<?xml version="1.0" encoding="utf-8"?>
<!-- Generator: Adobe Illustrator 27.8.1, SVG Export Plug-In . SVG Version: 6.00 Build 0)  -->
<svg version="1.1"
	 id="svg2" xmlns:cc="http://web.resource.org/cc/" xmlns:svg="http://www.w3.org/2000/svg" xmlns:rdf="http://www.w3.org/1999/02/22-rdf-syntax-ns#" xmlns:dc="http://purl.org/dc/elements/1.1/"
	 xmlns="http://www.w3.org/2000/svg" xmlns:xlink="http://www.w3.org/1999/xlink" x="0px" y="0px" viewBox="0 0 1092 630.1"
	 style="enable-background:new 0 0 1092 630.1;" xml:space="preserve">
<style type="text/css">
	.st0{fill:none;}
	.st1{fill:#808080;stroke:#808080;}
	.st2{fill:#808080;stroke:#808080;stroke-miterlimit:10;}
	.st3{fill:#808080;stroke:#808080;stroke-width:0.845;}
	.st4{fill:#808080;stroke:#808080;stroke-width:0.9588;}
	.st5{fill:#808080;stroke:#808080;stroke-width:0.9567;}
	.st6{fill:#808080;stroke:#808080;stroke-width:0.8459;}
</style>
<path class="st0" d="M148,319.9l-1.3-1.3C146.7,318.6,147.5,319.9,148,319.9z"/>
<polygon class="st0" points="163,327.1 164.7,327.9 161.7,326.4 "/>
<polygon class="st0" points="142.6,317.6 140.8,319.4 138,319.4 136.6,320.8 134.6,320.6 136.7,320.9 138.1,319.5 140.9,319.5 
	142.7,317.7 144.9,317.7 146.7,318.6 144.8,317.6 "/>
<polygon class="st0" points="163.4,323.2 163.2,323 162.8,325.2 161.7,326.4 163,325.7 "/>
<path class="st1" d="M134.1,435.8l2.3-1.1l1.6-0.1l1.6-1.6l2.9-1.6l3.3-2c0.7-0.1,1.3-0.1,2-0.2c1.7-0.3,3.3-0.7,5-1
	c0.3-1.8,0.7-3.5,1-5.3c-0.4-0.8-0.8-2-1.1-3.4c-0.3-1.6-0.2-3-0.1-4c0.1-0.9,0.1-1.7,0.2-2.6c0.2-1.2,0.4-2.4,0.6-3.6
	c0-0.1,0-0.2,0-0.4c-0.2-0.1-0.4-0.2-0.5-0.3c-0.6-0.7-1.2-1.5-1.8-2.2c-0.3,0-0.7,0-1-0.1c-0.3-0.1-0.5-0.1-0.8-0.2
	c-0.6-0.7-1.2-1.3-1.8-2c-0.7,0.8-1.4,1.6-2.1,2.4c-0.8,0-1.5-0.1-2.3-0.1c-0.3-0.2-0.5-0.5-0.8-0.7c-0.4-0.6-0.7-1.2-1.1-1.8
	c-0.9-0.2-1.8-0.5-2.7-0.7c-0.6,0.1-1.2,0.1-1.9,0.2c-0.2-0.1-0.5-0.3-0.7-0.4c-0.2-1.4-0.4-2.7-0.6-4.1c-0.6-0.7-1.2-1.5-1.8-2.2
	c-0.6,0.5-1.2,1-1.7,1.5c-0.1-0.1-0.1-0.1-0.2-0.2c-0.4-0.4-0.9-0.9-1.3-1.3c0.2-0.6,0.4-1.2,0.6-1.8c-0.3-0.5-0.5-1.1-0.8-1.6
	c-0.7-0.1-1.3-0.1-2-0.2c-0.4,0.5-0.9,1-1.3,1.5c-1-0.1-2-0.2-3.1-0.3c-0.4,0.7-0.8,1.3-1.2,2c-0.2,0.2-0.4,0.4-0.6,0.5
	c-0.2-0.1-0.4-0.1-0.6-0.2c-0.5-0.7-1-1.5-1.6-2.2c-0.4-0.5-0.8-1.1-1.2-1.6c-1.1,0.4-2.3,0.8-3.4,1.2c-0.5,0.8-1,1.5-1.5,2.3
	c-1,0.4-2,0.8-3,1.2c0.1,0.9,0.2,1.8,0.3,2.6c-0.4,0.3-0.7,0.6-1.1,0.8c-0.5,0.3-1.1,0.5-1.6,0.8c-0.4,0.2-0.9,0.4-1.3,0.5
	c-0.3-0.1-0.5-0.2-0.8-0.3c-0.3,0-0.7,0-1,0c-0.2-0.1-0.3-0.2-0.5-0.3c-0.2-0.1-0.4-0.3-0.7-0.4c-0.3-1.1-0.6-2.1-0.8-3.2
	c-0.4-1.1-0.9-2.2-1.3-3.3c-0.4-1.1-0.9-2.3-1.3-3.4c-0.4-0.2-0.8-0.4-1.2-0.7c-0.2-0.1-0.4-0.3-0.6-0.4c-0.3-0.4-0.6-0.7-0.9-1.1
	l-1.8-0.5v-0.1h-0.1c0.3-1,0.5-2,0.8-3c-0.4-0.4-0.8-0.8-1.3-1.2c-0.5-0.1-1-0.3-1.6-0.4c-0.1-0.1-0.3-0.3-0.4-0.4
	c-0.4-0.3-0.8-0.6-1.1-1c-0.6-0.1-1.2-0.3-1.9-0.4c-0.6-0.3-1.2-0.7-1.8-1c-0.8,0.2-1.6,0.4-2.3,0.5c-0.3,0.5-0.7,1.1-1,1.6
	c-0.5,0.2-1,0.3-1.5,0.5c-0.7,0.6-1.4,1.1-2.1,1.7h-2l-1,2.5l-1.7,1.3l1.8,2.8l1.8,3.3v3.5l-1.7,3.7l-2.2,2.5l0.8,2.3l2.5,2l1.2,3.8
	l3.7,2.8l3.2,2.3l1,5.2l-1,3.5l2.7,3l2.5,1.5l1,3.8l0.5,0.5l2.2,2.5v3.5l2.8,1.3l1.3,1.3v2.1h2.9l1.2,1.6h2.1l1.5-1.5h4.3l3.9-3.9
	l1.2-4h4.8l2.3-2.1l2.4,0.5l0.6,1.9l2.6,1.4h3.4l1.2-1.2L134.1,435.8z"/>
<path class="st1" d="M93.3,383.6l1.8,0.7l1.2,1l0.1,0.1v2.7l1.8,0.5v0.1h0.1l0.5,1.5l1.7,0.8v0.1h0.1l0.5,3.7l1.8,3.1l0.6,3.7
	l1.7,0.3l0.1,0.1l1.2,1.2l2-1.6h2.2l1.5-1.5l-0.9-1.8l3.3-1.9l0.9-2.3l2.7-0.9l0.1,0.1l1.2,1.2l1.6,2.3h1.9c0,0,0.9-1.4,0.9-1.9
	s2.5,0,2.5,0l0.8-1.5l2.4-0.2l0.1,0.1l0.8,1.3l-0.8,1.7l1,1.7l2.1-1.4l0.1,0.1l2.2,2.2l0.7,4.3l2.3-0.2l3,0.9v0.1h0.1l1.1,2.6
	l2.9,0.4l1.9-2.1l0.1,0.1l1.8,1.8l1.5-0.1l0.1,0.1l1.8,1.9l1.6,0.8l1.9-1.3l1.5-1.5v-1.3h1.9l1.6-1.6l1-1l2-0.5l1.6-1.6l-0.6-1.5
	v-1.6l-1.1-1.1l-1.6-1.1v-3l1.9-1.9l2.8-0.6l2-2h0.2l0.1-0.1l2.1-0.3l1.1-0.2c1.3-0.2,2.6-0.4,3.9-0.7c1.5-0.2,3.1-0.4,4.6-0.6
	c0.8-0.8,1.5-1.5,2.3-2.3c0.2-1,0.3-2.1,0.5-3.1c0.7-0.7,1.4-1.4,2.1-2.1c0.1,0,0.1,0,0.2,0c0.7,0.8,1.4,1.5,2.1,2.3
	c1.2,0,2.4,0,3.6,0c0.3-1.2,0.6-2.3,1-3.5c0.1,0,0.2,0,0.3,0c1,0.1,1.9,0.2,2.9,0.3c1.4,0.3,2.8,0.6,4.1,0.9c1.7-0.5,3.4-1,5.1-1.5
	c0.6-0.5,1.2-1.1,1.7-1.6c0.1-0.1,0.3-0.1,0.4-0.2c0.9,0.2,1.8,0.4,2.7,0.5c0.3,0.7,0.5,1.4,0.8,2.1c0.7,0.6,1.5,1.2,2.2,1.7
	c1.1,0.1,2.2,0.2,3.4,0.3c0.4,0.2,0.8,0.5,1.3,0.7c0.7-0.8,1.3-1.6,2-2.4c1.2-0.5,2.4-1,3.6-1.5c0.1,0,0.2,0,0.3,0
	c0.1,0,0.3,0,0.4,0.1c0.5,0.6,1,1.1,1.5,1.7c0.6-0.7,1.2-1.3,1.9-2c0.2,0,0.3,0,0.5,0c1.5,0,3,0,4.5,0c0.6-2.8,1.1-5.6,1.7-8.5
	c0.5-0.9,1.1-1.7,1.6-2.6c-1.5-1.2-3-2.3-4.4-3.5c-0.9,0.8-1.7,1.6-2.6,2.5c-1.1-0.2-2.1-0.4-3.2-0.6c-0.4,0.5-0.7,1.1-1.1,1.6
	c-0.2,0-0.4-0.1-0.5-0.1c-0.1,0-0.3,0-0.4,0c-0.6-0.9-1.1-1.8-1.7-2.7c-1.6-1.3-3.3-2.5-4.9-3.8c-0.8-0.9-1.6-1.8-2.4-2.8
	c-0.7-1.3-1.3-2.6-2-3.9c-1.8-0.1-3.6-0.1-5.4-0.2c-0.1,0-0.2-0.1-0.3-0.1c-0.2-0.1-0.3-0.2-0.5-0.3c-0.4-1.7-0.9-3.3-1.3-5
	c-1.4,0.3-2.8,0.5-4.2,0.8c-1.2-0.6-2.3-1.2-3.5-1.8c-1.3,0.5-2.6,1-3.9,1.5c-1,0.7-1.9,1.4-2.9,2.1c-0.1,0-0.3-0.1-0.4-0.1
	c-0.1,0-0.3,0-0.4-0.1c-0.7-1.2-1.4-2.4-2.1-3.6c-0.4-2.7-0.8-5.4-1.1-8.2c-1.1-0.7-2.2-1.5-3.3-2.2c-0.7,0.7-1.3,1.4-2,2.2
	c-0.2-0.1-0.4-0.1-0.7-0.2c-1-1-2-2-3-3c-0.5-0.6-1-1.2-1.6-1.8c-1.1,0.2-2.2,0.4-3.3,0.5c-0.6,0.2-1.3,0.4-1.9,0.6
	c-0.1-0.1-0.3-0.1-0.4-0.2c-0.1-0.1-0.2-0.2-0.3-0.2c0.1-1.2,0.3-2.4,0.4-3.6c0.3-0.9,0.6-1.7,0.8-2.6c-1-0.1-1.9-0.2-2.9-0.3
	c-0.6,0.2-1.3,0.4-1.9,0.6c-0.3-0.1-0.6-0.2-1-0.3c-0.5-0.2-1-0.4-1.6-0.6c-0.5-0.2-1-0.5-1.5-0.7c-1-0.3-1.9-0.6-2.9-0.9
	c-0.6-0.4-1.2-0.8-1.8-1.1c-0.5-0.6-0.9-1.1-1.4-1.7c-0.3,0.4-0.6,0.8-0.9,1.2c-0.6,0.2-1.2,0.4-1.8,0.5c-0.5-0.7-1.1-1.4-1.6-2.2
	c-1,0.2-2.1,0.5-3.1,0.7l-0.6-2.4c-0.5,0-1.3-1.3-1.3-1.3l-1.8-0.9h-2.2l-1.8,1.8h-2.8l-1.4,1.4l-2.1-0.3h-0.3l-1.9-1.9h-3.5l-2-1.2
	l-2.4,0.2l-0.1-0.1l-1.4-1.4h-2.9H120l-1.5-1.5l-1-2.1l-2.5,2.1l-0.3,2.1l-1.5,1.5l-0.3,3.5l-0.9,2l-1,1.8h-2.3l-1,2.8l-0.1-0.1v0.1
	l-2.2-2.8l-2.7,0.3l-3.2,2.7l-1.2,2.5l-3.3,1l-1.3,3.7l-1.8,4.3l-1,4l0.2,2.9l-1.7,1.2l2.5,2.5l-1,3.7l-0.8,3.3l-3.2,1l-3.3-1.2
	l-1-2.5l-1.8-2l-2.5,0.2l-0.8,3l-2.2,2.5l-3.2,3.2l-1.5,2.7l1.5,2.5l1.8,1.7l2.2-1.9l1.5,2.2l1.8,2l2.5,0.3l1.8,1.8l1.3,3.3
	l-0.3,2.7l-1.2,4.5l1.8,0.1l1.2-1.8l2.4-0.8l1.4,1.1h2.1l0.1,0.1L93.3,383.6z"/>
<path class="st2" d="M268,377.7l-1.5,1.5h-0.2l-0.1,0.1l-2.5,0.3l-0.8-1.9l-1.3-1.3l-2.4,2.4l-0.2-0.1l-0.1,0.1l-1.9-1.9l-3.1-1.4
	l-2.7,0.6l-1.1,3.4l-1.9,2.3l-0.1-0.1l-0.2,0.2l-1.2-1.2l1.1-2.3l-0.8-2.7v-2.4l-1.7-1.8V369l2.2-2.2v-2.2h0.2v-0.1l3-0.7v-3.2
	l0.2-0.2l0.6-0.6l1.2-1.3l-0.3-2.5l-1.5-0.8l0.6-1.8l-1.4-1.6v-0.1l-0.6-0.6l-0.3-0.4l-0.9-1.1l-1-0.3l-1.7,1.4l-3.7,3.7l-2.3,2.3
	h-0.2l-3.1-1.3l-1.7,1.5l3.7,3.8l-2.3,1.2v3.1l-1.1,1.1l-0.2-0.1l-2,2.3l-0.6,7.9h-0.2h-4.4l-2,2.1l-0.2-0.2l-0.1,0.2l-1.7-1.6
	l-3.7,1.3l-2.6,2.6l-0.2-0.2l-0.1,0.2l-1.1-1.1h-3.1l-1.8-1.8l-1.2-2.8H207l-1.9,1.9l-5.1,1.3h-0.1h-0.1l-3.9-0.9h-3.2l-1.4,3.4
	h-0.1h-3.4l-2.3-2.3l-1.8,1.8l-0.8,3.5l-2.2,2.2l-4.3,0.5l-3.6,1.2l-1.3,0.2l-2.2,0.4l-1.9,2c-1.1,0.1-2.2,0.3-3.3,0.4
	c-0.8,0.6-1.6,1.2-2.4,1.8c0,1.1-0.1,2.1-0.1,3.2c0,0.3,0,0.6,0,0.9c0.5,0.3,0.9,0.6,1.4,0.8c0.2,0.2,0.4,0.4,0.7,0.6
	c0.1,0.4,0.1,0.7,0.2,1.1c0,0.3,0,0.7,0.1,1c-0.1,0.1-0.1,0.3-0.2,0.4c-0.3,0.4-0.6,0.8-1,1.2c-0.7,0.2-1.5,0.3-2.2,0.5
	c-0.7,0.8-1.5,1.5-2.2,2.3c-0.8,0.3-1.6,0.6-2.4,0.8c0.1,0.4,0.1,0.9,0.2,1.3c-0.6,0.4-1.1,0.8-1.7,1.2c-0.6,0.2-1.2,0.4-1.8,0.6
	c0,0.8,0,1.5,0,2.3c1.3,0,2.6,0.1,3.9,0.1l1.6,1.6l2.8,1.2h2.1c0.6,1,1.3,2,1.9,3c0,1.2-0.1,2.3-0.1,3.5c1.4,0.8,2.7,1.6,4.1,2.3
	l0.8-0.7h3.6l4.3,4.2l2.1,0.3l2.7-2l1.7,1.8l3.8-0.6l0.5-2.2l1.7-1.7l0.2,0.4l4.4,3l1.6-0.6l1.6-0.6h0.1l2.9,1.1l3.2-1.1v-4v-0.1
	l3.8-2.2l4.1-1.1l5.4-1.4l3.9-2.3l1.5,1.6h3.7l2,2l2.9-1.6v2.6l0.9,4.1l2.8,3.2v-0.1l1.5-3.8l4.8-4.8v-4.8l3-3.2l1.6,1.6h2.9
	l2.1-2.1l0.9-2.9l1.9-3.2l3.1-2.2l3.9,3.8l3.3-0.1h0.1l0.1,3.4h2.9l3.7-2.3v-2.8l0.9-2.7l-1.7-1.7v-2.7l3-3l2.6-1l2.8-2.3l0.4-2.9
	l-1.8-1.5l-2.3-2.3l-3-1.4l-1.6-1.6l0.1-0.1H268z"/>
<path class="st3" d="M198.2,475.1v-0.2h5.8l1.6-3.3l0.2-0.1v-0.1l3.2-2.3l1.8,0.5l0.9-2h0.1l0.1-0.2l4.5-0.8l2.2-5.1l0.1-0.1
	l0.1-0.1l3.8-2.1l2.7-2.7l1.1-4.6h0.2v-0.2h2.7l2.8,2.8l-0.2,0.2l-1.7,1.7l1.9,1.9l2-0.8l1.8-3.5h1.9l3.3-3.3l-1-1v-0.1v-1.1
	l-0.6-2.2h0.1l-0.1-0.3l1.7-0.9l1,1l2-0.9h2.5l3.5-2.6v-1.9l-1.4-2.3l-2.6-1l-0.2-1.5v-0.1l2.1-1.3l-2.1-1.6l-0.3-3l-2-0.1l-1.1-1.6
	l-2.9-1.3l-1.6-2.2l-3.4-0.4l-2.8-3.2L231,417v-2.6l-2.9,1.6l-2-2h-3.7l-1.5-1.5c-1.5,0.5-2.9,1.1-4.4,1.6c-1.6,0.7-3.3,1.5-4.9,2.2
	c-1.4,0.1-2.9,0.2-4.3,0.3c-1.4,0.4-2.8,0.7-4.1,1.1c0.3,1.2,0.6,2.3,0.9,3.5c-0.3,0-0.6,0-0.9,0c-0.9,0.4-1.7,0.7-2.6,1.1
	c-0.8,0-1.6-0.1-2.4-0.1c-0.8,0.3-1.5,0.5-2.3,0.8c-0.6,0-1.2,0.1-1.8,0.1c-1.4-0.8-2.7-1.6-4.1-2.4c-0.6,0.5-1.2,1-1.9,1.5
	c-0.3,0.8-0.6,1.6-1,2.4c-0.8,0.2-1.7,0.4-2.5,0.6c-0.7-0.3-1.5-0.6-2.2-1c-0.8,0.3-1.6,0.6-2.4,1c-0.7-0.2-1.4-0.5-2.1-0.7
	c-1.5-1.3-2.9-2.5-4.4-3.8c-0.9-0.3-1.8-0.5-2.6-0.8c-0.3-0.2-0.6-0.4-0.9-0.6c-0.2-0.7-0.4-1.4-0.6-2.1c-0.7-0.6-1.5-1.2-2.2-1.8
	c-1.3-0.9-2.6-1.7-3.9-2.6c-0.6,0.2-1.2,0.4-1.8,0.6c-0.8-0.4-1.6-0.9-2.4-1.3c-0.3-0.3-0.6-0.7-0.9-1.2c-0.3-0.5-0.6-0.9-0.8-1.3
	c-0.7-0.7-1.4-1.4-2.1-2.1c-1.1-0.5-2.1-1-3.2-1.4c-0.2,0-2.7-0.6-4.6,1.2c-1.9,1.7-1.6,4.2-1.5,4.4c-0.1,1.2-0.1,2.5-0.2,3.8
	c0,1.5,0,2.9,0.1,4.3c0.4,0.7,0.7,1.4,1.1,2.1c0.1,1.2,0.2,2.3,0.2,3.5c-0.4,0.5-0.9,1-1.3,1.5c-0.4,0.4-0.9,0.8-1.3,1.2
	c-0.8,0.6-1.6,1.2-2.4,1.9c-1,0.5-1.9,1-2.9,1.5c-0.4,0.3-0.8,0.6-1.1,1c-0.5,0.2-1,0.4-1.5,0.6c-0.8,0.3-1.5,0.6-2.3,0.9
	c0.5,1.7,1,3.4,1.6,5.1l-1.2,1.2h-3.4l-2.6-1.4l-0.6-1.9l-2.4-0.5l-2.3,2.1h-4.8l-1.2,4l-3.9,3.9l0.2,2.2l2.3,3.6l-1.4,3.6l-3.9,3.9
	c0.1,1.5,0.3,3,0.4,4.5c-0.5,1.3-1,2.6-1.5,3.9c-0.9,0.4-1.7,0.7-2.6,1.1c-0.9-0.8-1.8-1.6-2.8-2.4c-1.2,0.6-2.4,1.2-3.5,1.8
	c-0.3,0.9-0.6,1.7-0.9,2.6c-0.7,0.9-1.4,1.7-2,2.6c1.1,0.9,2.1,1.8,3.2,2.7c0.1,1,0.2,2.1,0.3,3.1c-0.3,0.8-0.7,1.7-1,2.5
	c0.3,1,0.6,2,0.8,3c1.1,1.2,2.2,2.3,3.4,3.5c0.1,1.2,0.1,2.5,0.2,3.7c0.8,0.1,1.5,0.3,2.3,0.4c0.7-0.1,1.4-0.1,2.1-0.2
	c-0.1,0.4-0.2,0.9-0.3,1.3c-0.4,0.8-0.8,1.6-1.3,2.4c-0.7,0.7-1.4,1.4-2.2,2c-1.3-0.1-2.6-0.1-3.9-0.2c-0.9,1.1-1.8,2.2-2.7,3.4
	c-0.7,0-1.4,0-2.1-0.1c-0.4,0.2-0.7,0.4-1.1,0.6c-0.4-0.1-0.9-0.2-1.3-0.3c-0.4-0.5-0.8-1-1.2-1.4c-0.3-1.5-0.6-3.1-0.9-4.6
	c-0.6-0.3-1.3-0.7-1.9-1c-0.5-0.4-0.9-0.8-1.4-1.2c-0.3-0.6-0.6-1.3-0.9-1.9c-0.2-0.8-0.4-1.5-0.7-2.3c-0.8,0.1-1.5,0.2-2.3,0.3v1.6
	l-1.2,1.2h-3.1l-1.6-1.1l-2.1,1.7l1.9,0.9l0.8,2.2h1.7l1.4-0.5l0.8,2.2l1.3,1.3l3-0.5l1.7,1l0.3,2.4l1.6,1.8l0.5,2.1l1.6,1.7l1.1,3
	l-1.2,2.2l1.2,2.3l1.7,1.7l1.3,1.7v2l1.8,1.8l0.5,2.5l1.4,2.1v3.8l2.3,1.6l1.1,1.7l1.8,0.6l0.8,2.1l-0.2,2.9l2,0.5l3.5-1h3.2
	l2.8-3.3l2.3-1v-2.3l3,0.5l1.2,1.2l2.5,0.7c0,0-0.3,1.2,1.2,1.2c1.5,0,3.6-0.2,3.6-0.2h1.5h1.8h2.3l2.8-0.3l1.7-1.7l-2.1-2.1
	l-1.4-2.9l-0.3-3l2.5,0.3l1.7,1.8l1.8-1.8v-4.6l-0.9-5.7l0.8-4.3l-2-2l-3.2-3l-2.2-1.3l2.2-2.2l1-4.3l-2.4-2.4l-1.1-3.2l2.7-1.8
	l2.2-2.2l3,0.2l2.8-1.2v-3l2.2-2.2l2.6-2.6h3.2l2.2-1.6l1.2-2.7h2.8l1.8,1.8l-1.1,3.2v3.3l2.4,2.4l4.1,0.7l0.3-3.2l2.2-2.2l0.8-1.8
	h3.8h3.5l1.7-2.5h3.5l3.3,1.8l3.8-1.3l2.1-2.1l3.9,0.8C198,476.3,198.1,475.7,198.2,475.1z"/>
<path class="st1" d="M355.6,488.6l-6.2-3.8l0.1-0.5l-0.6-0.4l0.5-2.3l-1.7-0.2l-0.4-0.8h-0.1c-0.2-0.5-0.4-1-0.6-1.5
	c-0.9,0-1.8,0-2.8,0c-0.6-0.6-1.3-1.2-1.9-1.8l-2.6-0.5V476l-0.5-0.1v-3.1l-1.5-0.5l-2.8-4.1v-0.1l-0.5-0.8c0.8-1,1.6-2,2.4-3
	c0.5-0.7,1.1-1.3,1.6-2c-0.2-0.9-0.5-1.7-0.7-2.6c0.4-0.6,0.8-1.1,1.1-1.7c-0.1-1.1-0.2-2.2-0.4-3.4c1-0.9,2-1.8,3-2.7
	c0.7,0.3,1.4,0.5,2.1,0.8c0.6-0.7,1.2-1.4,1.8-2.1c0.9,0.3,1.7,0.6,2.6,0.9c1.1-0.6,2.2-1.1,3.3-1.7c0.1-1.1,0.2-2.2,0.3-3.3
	l-0.7-2.2l0.9-2.9l-1.3-1.3v-0.3l-0.5-0.5v-3.9l0.9-1.7l-1.3-1.3h-1.9v-0.7h-0.5l-0.1-2.6l-1.4-1.8l-2.8-1.5l-0.1-0.5l-0.4-0.2
	l-0.7-3.8l2-2c0,0,0.3-1.9,0.2-2.9l-1.9-1.9v-0.2c-0.3-0.3-0.5-0.5-0.5-0.5l0.9-3.4l-0.7-5.9c0,0,1.1-1.6,1.7-2.2
	c0.5-0.5,0.2-3.3,0-4.2l-1.6-1.6L341,396l-0.1-0.1l-2.1-4l-3.8-3.8l-2.2-2.2l-1.5-1l-1.3-1.3v-0.4l-0.4-0.3v-1.8
	c-0.6-0.4-1.2-0.7-1.7-1.1c-0.5,0.5-0.9,0.9-1.4,1.4c-0.3,0.8-0.6,1.6-0.8,2.4l-0.3-0.1l-0.1,0.2l-5.8-0.9l-4.2-1.6l-3.8-2l-3.9-2.6
	c-0.5,0-1,0-1.5,0c-0.3,0.7-0.6,1.3-0.9,2c-0.6,0.2-1.1,0.4-1.7,0.6l-0.4,0.1l-1.2-1.2c-0.5-0.2-1-0.4-1.5-0.5c-0.5,0.5-1,1-1.5,1.5
	c-0.1,0-0.1,0-0.2-0.1l-0.2,0.2l-2.9-1.1l-2.3,1.3l-0.1-0.1l-0.3,0.2l-2.4-2.4l-3.5-1.6l-1.8,0.7l-0.4,0.1l-1.8-2.1l0.4-2.1
	l-0.9-1.4c-0.6-0.3-1.3-0.5-1.9-0.8c-0.5,0.5-0.9,1-1.4,1.5l-0.1-0.1l-0.3,0.3c-0.4-0.4-0.8-0.8-1.2-1.2c-0.3,0.3-0.6,0.6-0.8,1
	l-0.2-0.1l-0.2,0.2c-1.1-0.6-2.1-1.1-3.2-1.7c-0.5,0.9-0.9,1.9-1.4,2.8c0.6,0.6,1.2,1.2,1.7,1.7v2l-2.5,1h-0.1h-0.1l1.6,1.6l3,1.4
	l2.2,2.3l1.9,1.5l-0.5,3l-2.8,2.3l-2.6,1l-3,3v2.7l1.7,1.7l-0.9,2.7v2.8l-3.6,2.3h-0.1h-2.9l-0.1-3.4h-0.1l-3.3,0.2l-3.9-3.8
	l-3.1,2.2l-1.9,3.2l-0.9,2.9l-2.1,2.2h-2.8l-1.7-1.7l-3,3.2v4.8l-2.8,2.8l-2,2c-0.9,1.4-1.7,2.9-2.6,4.3c1.1,0.4,2.3,0.7,3.4,1.1
	c0.6,0.6,1.3,1.3,1.9,1.9c1,0.4,2,0.8,3,1.2c0,0.7,0.1,1.4,0.1,2.1c0.7,0.1,1.4,0.2,2.1,0.3c0.3,0.6,0.5,1.2,0.8,1.8
	c0.5,0.5,1.1,1,1.6,1.4c-0.5,0.5-1.1,0.9-1.6,1.4c0.1,0.5,0.1,1,0.2,1.6c0.8,0.6,1.5,1.2,2.3,1.9c0.4,0.4,0.8,0.8,1.2,1.2
	c0.1,0.2,0.2,0.4,0.3,0.6c0,0.4,0,0.8,0,1.2c0,0.2,0,0.4,0,0.6c-1,0.6-2,1.1-3,1.7c-0.7,0-1.4,0-2.1-0.1c-0.5,0.4-1.1,0.7-1.6,1.1
	c-0.4-0.5-0.9-0.9-1.3-1.4c-0.8,0.5-1.7,1-2.5,1.5c0.3,0.8,0.5,1.6,0.8,2.3c0,0.1,0,0.3,0,0.4c0,0.3,0,0.6,0,0.9
	c0.3,0.3,0.7,0.7,1,1c0.2,0.1,0.4,0.1,0.6,0.2c-0.2,0-0.4,0-0.6,0c-0.4,0.4-0.8,0.9-1.2,1.3c-0.6,0.6-1.1,1.1-1.7,1.7
	c-0.7,0-1.4-0.1-2-0.1c-0.3,0.6-0.6,1.3-0.9,1.9c-0.2,0.6-0.5,1.1-0.7,1.7c-0.6,0.3-1.1,0.7-1.7,1c0-0.1-0.1-0.2-0.1-0.2
	c-0.3-0.4-0.9-1-1.7-1.3c-0.1,0-0.2-0.1-0.3-0.1c0.3-0.1,0.7-0.2,1-0.3c0.4-0.7,0.8-1.4,1.3-2.1c-1.1-0.9-2.3-1.8-3.4-2.7
	c-1.1,0-2.2-0.1-3.3-0.1c-0.3,1.5-0.7,2.9-1,4.4c-0.1,0.2-0.3,0.4-0.4,0.5c-0.7,0.8-1.5,1.7-2.7,2.5c-1.3,1-2.6,1.7-3.6,2.2
	c-0.7,1.7-1.4,3.5-2.1,5.2c-0.1,0.1-0.1,0.1-0.2,0.2c-1.3,0.2-2.6,0.3-3.9,0.5c-0.3,0.7-0.7,1.3-1,2c0,0.1-0.1,0.1-0.2,0.2
	c-0.2,0.2-0.5,0.3-0.6,0.3c-0.6-0.2-1.1-0.5-1.7-0.7c-1,0.7-2,1.4-3,2.1c-0.5,1.3-1,2.6-1.5,3.8c-0.1,0.1-0.1,0.2-0.2,0.3
	c-0.1,0.1-0.1,0.1-0.2,0.2c-1.9-0.1-3.9-0.3-5.8-0.4c0,0.7,0,1.4,0,2.2c0.1,0,0.2,0.1,0.3,0.2c0,0.1-0.1,0.3-0.4,0.3
	c0.5,1,1,2.1,1.5,3.1v3.2h2.3l4-0.7l2.2,2.2l1.2,2.8l4,1.5l2.5,3l0.7,4.5l1.7,4.3l1.3,2.8l-2,2v2.7h2.2l2-3.3l2.8,2.5l2,3.8l2.8,0.8
	l3.5-0.5l3.8-1.8l2.8,1.5l3.2,2.5l1.2,2.5l3.2-1.2h3.8l2.1,2.1v4.2l2.5,2.5l0.6,1.9l3.2,3.2h2.9l1.8-1.8h1.7l1.3,2.7l1.9,1.9
	l3.8-0.2h3.7l2.2-2.2l2.3-3.2l-2.3-2.3l-0.7-2.8l-1.6-1.6l-2.3-2.3l-0.9-2.1l1.3-3.5l3.3,0.8l2.8-0.8l1.2-3l-1.2-4.2l2.8-1.2
	l4.3-0.2l2.8,2.8h2.3l2.1-2.1l-2.2-2.2l-1.8-1.8l-1.8-1.2l2.3-2.3l-1.2-2.5l1.2-3.7h3.5l3.8,2l2.7,2.3l3-0.8l4.2,0.8l5.7-0.2
	l3.8,1.2h2.8l3.2,1.7l3.3-0.7l1.9-1.9h1.8l4.3,2.2h4.5l3.7-0.7l3,1.7l3.7-1h4.2l2-2.8l-0.1-0.7H356L355.6,488.6z"/>
<g>
	<polygon class="st1" points="471.2,266.4 472.5,265.2 474.7,265.2 476.6,263.4 474.8,261.5 473,262 471.3,263.7 469.5,265.2 	"/>
	<polygon class="st1" points="467.1,247.8 468.9,246.6 471.2,247.2 470.6,245.8 467.5,245.2 466.2,246.4 	"/>
	<polygon class="st1" points="461,254.3 462.4,252.6 460.6,251.3 459.8,253.2 	"/>
	<polygon class="st1" points="442.4,246.7 445.2,247.5 447.7,246.3 449.2,246.4 449.2,244.9 446.8,244.3 448,242.9 446.7,241 
		445,241.6 444.4,241.4 442.7,242.6 443.4,244 442.1,245.7 	"/>
	<path class="st4" d="M524.8,591.9c0.2-0.2,0.5-0.5,0.7-0.7c0.2-0.2,0.3-0.4,0.5-0.5c0.7-0.3,1.4-0.6,2-0.9c0.3-0.8,0.5-1.7,0.8-2.5
		c-1.1-0.7-2.1-1.5-3.2-2.2l-3.8-3.8v-0.1l-0.4-0.4l-1.1-3.6c0.1-1,0.3-2.1,0.4-3.1c0.7-0.2,1.4-0.3,2.1-0.5
		c1.8,0.2,3.6,0.3,5.4,0.5c1.7-0.9,3.4-1.8,5.1-2.7c-0.4-1.3-0.7-2.6-1.1-3.9c0.5-0.1,0.9-0.2,1.4-0.2c-0.1-0.2-0.1-0.5-0.2-0.7
		c0.9-0.5,1.8-1.1,2.7-1.6c0.7-0.5,1.4-1,2.2-1.4c0-1-0.1-2-0.1-3c0.3-0.2,0.6-0.5,1-0.7c0.1-0.2,0.2-0.4,0.2-0.6
		c0.2-0.4,0.5-0.8,0.7-1.2c1.3-0.7,2.6-1.4,3.9-2.1c-0.6-1.3-1.1-2.6-1.7-3.9l2.7-2.7l0.9-1.7l0.6-1.9l-1-2.7v-3.2l-3.5-3.5l-1.1-4
		l-3.4-3.4l1.1-4.5l-0.9-1.8l-3,1l-4.9-0.5l-1.5,1.5l-2.9-0.6l-0.8-0.1l-3.2-3.4l-1.9-3.2l3-3l2-0.8l-0.2-4.8l-1.8-3.4l-2-0.7h-0.1
		l-0.3-0.1l-1.3-1.2l-0.5-2.7l0.8-3.5v-5l2.2-3.8l3.7-1.8l-0.5-3.8l-4.2-1.4h-2.8v-0.1h-0.3l-0.8-2.7l-2.5-4l1.6-4.2l5.4-5.8
		l-1.5-1.5l-4.6,0.3v-0.2h-0.3c0-1.4,0-2.9,0.1-4.3c-0.4-1.4-0.7-2.8-1.1-4.2c-1-1.1-1.9-2.3-2.9-3.4c-1.6-0.1-3.2-0.2-4.7-0.4
		c-2,0.1-4.1,0.3-6.1,0.4c-1.1,0.4-2.1,0.8-3.2,1.2c-1.2-0.1-2.4-0.3-3.6-0.4c-0.3-0.2-0.5-0.5-0.8-0.7c0.2-0.9,0.3-1.8,0.5-2.7
		c0.6-1,1.2-1.9,1.8-2.9c-0.7-2.2-1.5-4.4-2.2-6.6c0.9-1.1,1.8-2.2,2.6-3.3c2-0.8,4.1-1.7,6.1-2.5c1-1.6,1.9-3.3,2.9-4.9
		c-2-0.6-4-1.1-6-1.7l-4.2-2.8l-0.7-0.7l-0.1-5.1l3.9-3.9l1.4-1.4l0.2-3.8l2.4-2.4v-4.2l-2.5-3.5l1.7-3.2l2.4-3.1l2.2-2.2l-1.2-2.7
		l0.7-3.5l-0.6-3.5l-1.6,1.6l-0.3-0.3l-1.7-1.7l-3.7-0.8v-0.2l-0.3-0.1l-0.8-3.5l1.7-1.7l-0.3-3.8l-1.5-3l-1.8-1.8h-1.9l-0.1-0.2
		H491l-2-3.3l1.5-1.2v-3l-1.2-2v-1.5l2.3-2.1l-1.3-2.8l-3.5-2.1l-0.2-0.1v-2.3l-1.3-1.3l-0.2-0.2l1.4-2.5l-0.5-3l-1.4-1.4l-0.2-0.2
		l0.1-2.7l2.3,0.5l0.6-2l1.8-1.8l1.1-3.2l-1.3-2.5h1.2l0.9-2.4l-1.6-3.8V316l-2.4-0.5c0,0,0-2.1-0.1-2.9c-0.4,0.1-0.8,0.2-1.2,0.3
		c-0.1,0.2-0.3,0.3-0.4,0.5c-0.1,0.1-0.3,0.2-0.7,0.2c-0.2,0-0.3,0-0.4,0c-0.3,0-0.6-0.1-0.9-0.1s-0.5-0.1-0.8-0.1
		c-0.4-0.1-0.7-0.2-1.1-0.3c-0.3-0.4-0.5-0.8-0.8-1.2l-3-0.5l-2.1-2.1l-0.2-0.2l-0.5-1.8l-1.3-1.3l-0.2-0.2l-0.2-3.1l3-2.3l2.5-2.5
		l1.2-2h3.3V290l0.3-3.9l-3.3-1.9l-0.1-0.2l-0.2-0.1l-0.9-1.6l-0.7,0.7l-0.2-0.4l-0.1,0.1l-1-2.2l2.3-2.3l3.2-0.5l-0.3-1.8l1.6-1.6
		l-0.6-2.1l-2.1-1.1l-2.2-0.6h-0.1l-1.4-1.4l-0.6-1.6h-1.4v-0.2h-0.6l-0.1-1.4l-1.3,1.7l0.2,1.9l0.7,2.2l-2,1.8l-2.7-2.7l-1.7-1.7
		l-3.5,2.3l1.2,3.7l2.5,2.5v1.3l3,1.5l1.9,1.9l1.1,2.6v2l-2.8-2.7l-2.6-2.6l-2.6,1.6l-2-1.7l-3.5-2.7v-3v-4.2l3-3l0.7-4.3v-4.8
		l0.8-3.5h-2.7l-1.2,2.5l1.2,2.8l-1.3,3.5l-2,3.2h-3.5l-4.2,4.2l-2.7,2.7l2.4,2.4l-0.4,3.4l1,3.2l1.2,3.7l-3.3,3.3l-1.5,4.3
		l-2.3,3.7l0.5,5.3l-2,2l0.5,3.2h3l1.3,1.8l2.5-1.2l1.9-1.9l2.3,2.3l4.1,1.4l1.3,1.3l2.2,2l1.7,3.3l-1.2,2.7l1,3.2l-1,2.2l-2.7,0.8
		l0.3,3v2l1.4,1.4l3.8,1.1v2.3l-3.8-0.8l-3.3-3.3v-2.5l-0.2-4l2.7-2.7l-2-5.2l-1.6-1.6l-1.1-3.2l-3.8,0.5h-3.5l-2.2,2.2l-2.2,2.2
		l0.3,3.2l0.8,3.5l-1,4l-2.1,2.1l-2.6,2.6l-1.5,1.5v3.5l-3.3,1.8l-4.2,1.2l-1,1h-2.2c0,0-2.4,1.1-1.8,1.8c0.7,0.7-0.6,2.9-0.6,2.9
		h-3l-2-2.8l-2.8,0.2l-3.3-2.3l-2.5-1.2l-2.5-3.8v-3.2l2.5,0.8l1.8,1.8l2.8,1.8l2.5-1.7l4.2,0.8l2.3-1.3l2.5-3.7l4.3-4.3l3.7-1
		l0.7-6.2l3.7-2.8l0.5-2.7l-2.9-2.9l-1.2-4.4l1.3-3.2l1.8-6.3l1.2-7.2l3.3-5l0.8-4.5l1-5.7l-2.8-2.5l1.3-4.3l4.8-4.8l0.8-6.1
		l1.7-1.7l-1.5-5.7H448l-2-2h-4l-2-2.8l-3.2,1.7l-1.8,4l-1.7,4l-2.2,4.8l-2.8,2.8l-1.2,1.2l-3.6,1.8l-3.3,1.2l-1.8,2.3l-1.2,3.3
		l2.2,0.7v2.5l-1.5,2l-0.8,4v2.7l-3.3,1.7l-1.6,1.6l1.8,3.6l3.2,2.2l-0.7,4.7l1.8,4.3l2.7,0.8l-3.8,3.5v3.5l-3.3,2l-2.3-3.7V307
		l-2.8-3.8l-2.7-4.2l-3.9-3.9c-0.6-0.8-1.2-1.6-1.9-2.4c-0.7,1-1.2,1.6-1.5,2c-0.1,0.2-0.4,0.4-0.7,0.8c-0.3,0.3-0.6,0.6-0.7,0.8
		c-0.4,0.3-0.8,0.6-1.2,0.9c0.5,0.6,0.9,1,1.1,1.4c0.6,0.9,0.7,1.1,0.7,1.1c0.2,0.4,0.2,0.5,0.4,0.6c0.5,0.4,1.3,0.1,1.3,0.3
		c0,0,0,0.1-0.1,0.1c0,0.2,0,0.4,0,0.7c0,0.9,0,1.5,0,1.7c0,0.6-0.1,1.6,0,3.4c-0.2,0-0.4,0-0.7,0c-0.7-0.1-1.1-0.3-1.4-0.5
		c0,0.1-0.1,0.7-0.7,1.1c-0.3,0.2-0.7,0.3-0.8,0.3c-0.4,0.3-0.8,0.6-1.2,0.9c0.2,0.4,0.3,0.8,0.5,1.1c0.1,0.2,0.2,0.4,0.3,0.6
		c0,0.2-0.1,0.4-0.1,0.6c0,0.2-0.1,0.3-0.1,0.5c0.5,0.4,1,0.7,1.6,1.1c0.7,0.4,1.3,0.8,1.9,1.1c-0.3,0-0.6-0.1-0.8-0.1
		c0.2,0.4,0.4,0.8,0.6,1.3c0.2,0.4,0.3,0.8,0.4,1.2c-0.3,0.2-0.8,0.4-1.2,0.6c-0.6,0.2-1.1,0.4-1.5,0.5c0.4,0.4,0.8,0.9,1.2,1.4
		c0.3,0.4,0.6,0.8,0.8,1.2c-0.5,0.3-1.1,0.7-2,1c-1.2,0.3-2.2,0.3-2.8,0.3c-0.4,0.7-0.9,1.4-1.4,2.2c-0.4,0.6-0.8,1.2-1.2,1.7
		c-0.3-0.1-0.6-0.2-1-0.3c-1-0.3-1.9-0.4-2.6-0.4c-0.1,1.4-0.2,2.1-0.4,2.5c0,0,0,0.1-0.1,0.3c-0.2,0.6-0.4,1-0.5,1.3
		c-0.6-0.1-1.2-0.1-1.9-0.1c-0.9,0-1.8,0.1-2.5,0.2c-0.9,0.1-2,0.2-3.1,0.4c-1,0.2-1.8,0.4-2.6,0.7c-0.2,0-0.4,0.1-0.7,0.2
		c-0.5,0.2-1.5,0.5-2.6,1.1c-0.6,0.4-1.5,1-2.4,1.8c0.1,0.4,0.1,1.1-0.1,1.9c-0.1,0.4-0.3,0.8-0.5,1.1c-0.9,0.2-1.8,0.4-2.7,0.6
		c-0.6,0.1-1.2,0.3-2,0.3c-0.9,0-1.6,0-2.2-0.1c-0.2,0.4-0.6,0.9-1.1,1.3c-0.4,0.4-0.9,0.7-1.2,0.9c-0.2,0.3-0.6,0.7-1.3,1
		c-0.7,0.4-1.4,0.4-1.7,0.4c-0.5,0.4-0.9,0.9-1.4,1.5c-0.6,0.8-1.2,1.5-1.6,2.2c-0.2,0-0.5,0-0.8,0c-0.5,0-0.9,0.1-1.3,0.2
		c-0.3,0-0.6,0-0.8,0.1c0-0.2-0.1-0.5,0-0.8c0.1-0.9,0.7-1.4,0.9-1.5c-0.4-0.1-0.9-0.3-1.3-0.4c-0.5-0.2-1.1-0.3-1.6-0.5
		c-0.2,0.3-0.4,0.6-0.7,0.9c-0.2,0.2-0.4,0.4-0.6,0.6s-0.4,0.4-0.7,0.6c-0.2,0.2-0.4,0.3-0.6,0.5s-0.5,0.4-0.8,0.7
		c-0.3,0.3-0.5,0.6-0.6,0.9c-0.3,0.3-0.5,0.6-0.8,0.8c-0.3,0.3-0.6,0.6-0.9,0.9c-0.2,0.3-0.4,0.7-0.6,1c-0.3,0.5-0.5,1-0.8,1.5
		c0.1,0.5,0.3,1,0.4,1.6c0.1,0.8,0.2,1.6,0.2,2.2c-0.5,0.2-1.1,0.5-1.7,0.8c-0.8,0.5-1.5,0.9-2.1,1.4c0,0.5,0,1.1-0.1,1.7
		c-0.1,0.7-0.1,1.3-0.2,1.8c-0.5,0.2-1.1,0.5-1.7,0.8s-1.2,0.7-1.8,1c-0.3,0.6-0.7,1.2-1,1.9c-0.4,0.7-0.7,1.4-1,2.1
		c0.1,0.5,0.2,0.9,0.3,1.4c0.1,0.6,0.2,1.1,0.3,1.6c-0.2,0.4-0.4,0.8-0.6,1.2c-0.3,0.5-0.5,0.9-0.8,1.3c0,0.4,0,0.8,0,1.2
		c0,0.4,0,0.8,0,1.2c-0.6,0.6-1.2,1.3-1.9,1.9c-0.9,0.8-1.8,1.6-2.6,2.3c-0.4,0.1-0.8,0.3-1.2,0.5c-0.8,0.4-1.4,1-1.9,1.4
		c0.1,0.3,0.3,0.5,0.5,0.8c0.1,0.2,0.2,0.3,0.4,0.5c0.1,0.3,0.2,0.6,0.4,0.9c0.1,0.2,0.1,0.4,0.2,0.6c0.6,1,1,1.5,1.3,1.9
		c0.1,0.1,0.3,0.4,0.5,0.8c0.2,0.3,0.3,0.6,0.4,0.8c0.4,0.2,0.7,0.4,0.9,0.5c0.4,0.3,0.4,0.3,0.8,0.6c0.5,0.3,0.6,0.3,0.8,0.6
		c0.2,0.2,0.4,0.4,0.7,0.8c0.6,0.6,1.2,1.3,2,2c1.1,1,2.3,1.8,3.2,2.3c0,0.1,0.2,0.5,0.7,0.8c0.2,0.1,0.4,0.2,0.5,0.2
		c0.1,0.3,0.3,0.5,0.4,0.8c0.3,0.5,1.1,1.8,2,2.8c0.5,0.6,0.9,0.9,1,1c0.4,0.3,0.7,0.6,0.9,0.7c0,0.1,0,0.1,0.1,0.2
		c0,0.1,0.1,0.2,0.1,0.3c0.1,0.1,0.1,0.3,0.2,0.4c0,1.3-0.1,2.7-0.1,4c-0.6,0.7-1.2,1.5-1.8,2.2c0.3,1.1,0.4,2,0.5,2.8
		c0.1,1.1,0.1,1.9,0,2.4c0,0.9-0.1,1.4-0.2,1.9c-0.1,0.5-0.5,1.3-1.2,2.1c0.8,0.7,1.6,1.4,2.4,2.1c0.2,0.1,0.3,0.3,0.5,0.4
		c0.1,0.1,0.3,0.2,0.4,0.3c-0.2,0.9-0.4,1.9-0.7,2.8c-0.9,0.7-1.9,1.3-2.8,2c0.4,0.4,0.9,1.1,1.2,2.1c0.3,0.8,0.4,1.5,0.4,2
		c0.9,0.4,1.9,0.8,2.8,1.2c0.3,0.2,0.7,0.6,1,1c0.3,0.4,0.6,0.7,0.7,1.1c0.1,0.1,0.2,0.3,0.3,0.5c0.1,0.1,0.1,0.3,0.1,0.4
		c0,0.3,0,0.6-0.1,1c-0.1,0.5-0.3,0.9-0.5,1.2c0.5,0.1,1.2,0.2,1.9,0.6c0.3,0.1,0.5,0.3,0.7,0.4c0.3,0.1,0.7,0.2,1.1,0.4
		c0.2,0.1,0.5,0.2,0.6,0.3c0,0.1-0.1,0.2-0.1,0.2c0,0.1-0.1,0.3-0.2,0.5c0,0-0.1,0.2-0.1,0.3c-0.2,0.4-1,1.1-1.1,1.2
		c0.2,0.2,0.7,0.9,0.8,1.9c0.1,0.8-0.2,1.4-0.4,1.7c0.2,0.1,0.4,0.3,0.7,0.5c0.1,0.1,0.3,0.3,0.5,0.5c0.2,0.2,0.6,0.6,0.9,1.3
		c0,0.3-0.1,0.7-0.2,1.1c-0.3,0.8-0.7,1.4-1,1.7c0.4,0.3,0.6,0.6,0.7,0.8c0.1,0.2,0.2,0.3,0.2,0.4c0.1,0.4,0.2,0.7,0.2,1
		c0,0.2,0.1,0.5,0,0.8c0,0.4-0.1,0.7-0.2,0.9c-0.1,0.4-0.2,0.7-0.4,1.1c-0.1,0.2-0.2,0.4-0.3,0.6c-0.2,0.2-0.5,0.5-1,0.7
		c-0.8,0.3-1.5,0.1-1.7,0c-1.1-0.5-2.2-1-3.3-1.6c-0.4,1-0.9,2.1-1.3,3.1c-0.8-0.2-1.7-0.4-2.5-0.6c-1.1,1.1-2.2,2.1-3.3,3.2
		c0.3,0.4,0.7,1.2,0.9,2.1c0.1,0.6,0.1,1.1,0,1.5c0,0.1,0,0.2-0.1,0.3c-0.1,0.2-0.2,0.3-0.3,0.3c-0.1,0.1-0.2,0.3-0.3,0.4
		c-0.3,0.3-0.6,0.5-0.8,0.5c0.3,0.3,0.7,0.7,1.1,1.4c0.3,0.6,0.4,1.1,0.5,1.5c-0.1-0.1-0.2-0.1-0.3-0.1c-0.2,0-0.3,0.3-0.5,0.6
		c-0.1,0.1-0.2,0.2-0.4,0.4c-0.2,0.2-0.5,0.5-0.9,0.8c-0.3,0.4-0.6,0.9-1,1.4c-0.4,0.5-0.8,0.9-1.2,1.2c0.3,0.3,0.6,0.6,0.9,1.1
		c0.2,0.4,0.4,0.7,0.5,1c0.1,0.1,0.5,0.4,0.6,1.1c0.1,0.5-0.1,1-0.1,1.1c0.1,0.3,0.3,0.5,0.4,0.5c0.2,0.1,0.4,0.2,0.5,0.3
		c0.2,0.1,0.4,0.1,0.5,0.1c0.4,0.1,0.9,0.1,1.3,0.2c-0.2,0.2-0.5,0.4-0.7,0.7c-0.5,1-1.1,2.1-1.6,3.1c1.1,0.2,2.2,0.3,3.4,0.4
		c0.4,0,0.7,0,1.1,0.1c0.1,0.2,0.1,0.4,0.2,0.6c0.1,0.2,0.2,0.4,0.3,0.6c0.1,0.2,0.2,0.4,0.4,0.5c0.4,0.4,0.9,0.5,1.1,0.5
		c0.3-0.1,0.9-0.3,1.6-0.1c0.5,0.1,0.8,0.3,1,0.5c0.2,0.1,0.5,0.2,0.7,0.4c0.1,0.1,0.3,0.2,0.4,0.2c0,0.1,0,0.2,0,0.2
		c0.1,0.3,0.4,0.5,0.4,0.6c0.2,0,0.6,0,1.1,0.3c0.2,0.1,0.3,0.2,0.4,0.3c-0.2,0.7-0.3,1.4-0.5,2.1c0.3,0.3,0.5,0.5,0.8,0.8
		c0.1,0.1,0.2,0.3,0.3,0.5c0.1,0.1,0.1,0.2,0.2,0.3c0.2,0.5,0.8,1.4,1.9,2.2c1.3,0.9,2.6,1,3.2,1.1c0,0.1,0.1,0.2,0.2,0.3
		c0.1,0.2,0.1,0.2,0.2,0.4c0,0.1,0.1,0.2,0.2,0.3c0.3,1.3,0.5,2.6,0.8,3.9c1.3,0,2.6-0.1,4-0.1l3.3,2h4.2l1.5,3h3l2.5,1.2l1.3,4.2
		l-0.8,2.3v3.2l-2.1,2.1l0.9,2.9l3.7,1l3.3-2l2.4,2.4l-1.1,3.9l3.3,1l1.8-1.8l3,1.8h3.3v2.3l-4,1.8l-1,4.5h2.8l3.5-1.7l1.8,2.7
		l4-2.2l4.7-1.3l2.8-2.8l2.6-0.1l3.5-0.2l2.5-2.5h3l0.8,2.3l-2,2.7h-2.3v3l2.8,1.2l2.1,2.1l1.9,4.1l1.8,1.8l2.8,2.8l2,6.7v5.5
		l2.7,2.5v4l2.8,5l0.8,4.3l1.2,3.8l2.2,4.3l3.7-0.7l1.8-3.8l2.7-0.8l1.8,2.2v2.5l1.8,1.8l2,2l3.7-0.7l1.7,1.7l4.2-0.7l2.1-2.1h4.2
		l2,2l3.1,1.4l2.3,2.2l0.7,4l2.8,1.8l1.3,3l3.5,2.2v4l4.5,1.2l4,1.3l4.3-1.7l2.6-2.6l0.9,3.4l1.8,3.3l1.5,2.5l4.8,0.8l2.2-2.2
		l4.2-2.3l5,0.2l2.8-2.8c1.5-0.4,2.9-0.8,4.4-1.2c-0.2-0.7-0.4-1.5-0.6-2.2c-0.1-0.9-0.2-1.8-0.3-2.7c-0.3-0.3-0.7-0.6-1-1
		C525.4,592.8,525.1,592.3,524.8,591.9z"/>
	<path class="st4" d="M328.5,379.6"/>
</g>
<g>
	<path class="st1" d="M1015.8,452.7l-3.4-1.9l-1.9,1.9l-3.2-0.1l-1.3-2.7h-2.5l-2.2-2.2h-3.7l-2.5-1.6l-2.9-2.9l-1.9-1.9
		c0,0-0.6-4-0.1-4.5c0.4-0.4-1.9-3-1.9-3l-2.5-3.8v-1.7l0.6-2.2l-0.6-3h2.2l2.7-0.9l1.4-1.4l0.6-1.9l-4-1.6l-2.3-1.9l-3.6-2.2
		l-4.2-2.2l-3.2-2.7l-4.9-2.7l-3.6-3.2l-3.8-1.4l-2.7-0.7l-4.3-4.4l-2.2-2.2l-1.4-3.9l-1.7-2.5h-2l-4-2.6l-0.9-2.3l-3.6-0.7l-2-2
		l-1-2.3l-1.9-0.9l-3.7-1v2.2l0.9,2.5l1.2-0.3l2.8,1l1.9,1.9v1.1l1.9,1.9l-0.6,2.9l-3.3-1v2.2l-1,2.9l4,1.3l2,3.7l3.7,3.8v2.2
		l3.5,4.8l2.6,0.3l4.3,1.9l5.5,2.5l2,3.3l3.2,4.3l3.6,3.6l4.3,4.3l5.3,7.4l2.5,5.2l2.9,0.9l3,1.7l2.9,2.7l2.3,4.5l1.9,2.5l2.7,2.7
		l2.9,2.9v2.7l4.3,4l2.5,2.5l1.9,2.3l2.3-1.9l-1.8-4l-2.3-2.3l-0.7-2.9l1.2-3h3.7l1.7-1.7c0,0,3.9,1.9,4.6,1.9s0-1.7,0-1.7
		L1015.8,452.7z"/>
	<polygon class="st1" points="1056,458.1 1056.3,461 1057.5,461.4 1057.5,459.1 1058.4,457.3 1058.4,454.7 1055.5,455.1 	"/>
	<polygon class="st1" points="1065.4,458.1 1067.3,459.1 1067.3,457 1065.4,456.8 	"/>
	<polygon class="st1" points="1062.2,434 1059.8,433.3 1059.1,437.1 1060,438 1059.2,440.8 1059.5,445.2 1061.2,445.9 1061.8,443.6 
		1060.9,439 1062.5,437.4 	"/>
	<polygon class="st1" points="1063.1,426.8 1063.7,429.3 1064.8,427.6 1063.8,426.1 	"/>
	<polygon class="st1" points="1068.3,409.5 1067.8,406.9 1065.8,408.8 1065.3,411.3 1066.3,413.6 1065.6,417.3 1067.4,417.8 
		1068.4,415.4 1067.9,412.3 	"/>
	<polygon class="st1" points="1068.9,388.5 1068.9,386.9 1068.9,385 1067.4,385.2 1067.4,388.3 1067.4,390.9 1069.5,390.9 	"/>
	<path class="st1" d="M1049.8,316.9v-3.3l-0.8-4.5l-1.7-7l-0.7-5.3l-3.2-3l-4.3-4.3l-2.8-1.2l-1.7-6l1.3-3v-3l3.7-0.5v-2l-4.8-1.2
		l-1.4-1.4l-2.9-1.1l-3.3-5.2l-1.2-6.7l1.7-3.7l2.8-1.8l2-1.3l-1.2-3l-3.3-2.7l-5.7,0.7l-2.4-2.4l-3.1-0.8l-3.5-5.8l-1-4l3.3-1
		l1.3-3.2l-3.2-3.2h-2.8l-1.7,1.7l-4.3-1l-4.3-3l-0.8-3.8l-4.3-4.3l-1.2,2.5l-1.6,1.6v1.4l1.2,2.8h-4.7l-2.8-2.8l-4.6-2.4l-0.5-3.7
		l-0.7-4.7l-3.2-3.2l-2.3-2.3l-2-2l-2.5-4.2l1.8-1.8v-4.3h2l3.1-3.1l-3.1-1.4v-3.1l-1.8-4.8l2-0.2l2.3,2.3l3.2,1.5V181l-2.8-4.3
		v-2.5l1.3-4.7l-1.8-1.8l3.5-5l2.2-5l4.2-1.3l3,1.5l2.8-2.5l-1.8-1.8l-2.8-3.2l-1.7-6.7v-4.8l-3.2-2.8l-1.7-5.2l-0.8-5.3l-1.7-4
		l-1-4.7v-6l-1.2-5.3l-2.8-4.3l1.2-1.2l-3.9-2.6l1-1.5h3.5l2.2-4.7l3.3-1.3v-3.5l-2.4-2.4l-1.2-2.9l-2.7,2l-1.8-1.5l-2.2,0.3
		l-1.8,1.8h-2.9l-0.8,1.6h-3v-2.5l-3.7,0.2l-2,0.3l-2.5-0.2l-1,1.7L951,87l-3.6,0.1l-2,1.5v3.2l-2.2,0.8l-1.4-1.7l2.7-3.2h-1.8
		l-2.9,1.2l1.2-2.7l3.5-1.5h2.5l2.7-4.3l-0.7-3.8l-1.3-4.8l-2.8-2.8l-2.6-2.6l-1.5,1.5l-0.2-3.2h-2.5l-3.7,1l-2.2-2.2v-2.2l-2.9-0.5
		l1-1l1.5-0.7l-1.2-1.2l0.2-1.6l1.7,1l1.8,1.5h3.2l2.2-1.7l2.2,1.7l2.8-2.8v-4.2l-1.2-2.5l2.8-4.2h3.2l2.5,1l3.5-1.2l1.8-4l3.5-3.8
		l3.8-0.3l1.5-4.3l-2.8-0.8v-1.3h3.5l-1.2-2.7v-2.2l-1.8,2.3l-1.8,0.5l-2.2-3.3l-3.1-3.1v1.8l-3.9-1.5l-2,1.7l-3-0.5l3.8-2.5v-3.5
		c0,0,1-3,0-2s-3.5,1-3.5,1l1.8-3.8l-1.6-1.7l-2.2-1.8c0,0,1-3.8,0-2.8s-3.8,1.8-3.8,1.8l-3,4.2h-1.2l-4,1.5l-2.3,2.3l-1.7,2.3
		l-0.3,3l-1.8-0.2v1.5l2.7,0.7l-3.2,2.2l-1,3l3,0.8l4.7,0.3l4-0.8v2l-4,2.2l-2.2,2.2l-3.4-2.6l-3.8,1.2l-2.7-2.7l-2.3,1.3l-3.7,1.7
		l-3,3.2l-5.7,1.7l-3,4.3l-4.2,1.7l-3.4,3.4l-3.3,3.3l-3.7,2.1l-5,2.2l-2.6,2.6l-5.7,5.7l-5.1,4.9l-1.3,4.8l-2.8,4.2l-1,3l1,2.8H865
		l-2.7,1.5l-0.3,3.5l-3,1.5l-0.8,3.2v1.8h3.3l1,2.3l4.2-0.7l5.7,2.5l1.8,0.3l1,2.7l-0.8,2.7l-3.3,0.8l-3.7,1.7l-2.7,1h-3.9l-2.5-2.5
		l2.4-2.4l-3.2-3.2l-1.8,1.8l-1.8,3.3l2.3,3.3l-0.7,2l1.7,1.7l-1,4l-4.2,3v3.3l-2.2,2.2h-2.5l-1.5,2.8v5.5l-3,3.2v2.3l1.6,1.6h-3.2
		l-3,2.4L834,145l-4.7-4.7l-2.2-2.2l-4.6,0.2l-5.5,0.8l-3.2,3.8l-3.5,3.5l-4.2,6.2v4.8l-3.3,4.2l-3.2,3.2l-3.5,0.2l-3.2-1.7
		l-4.5,2.5c0,0,1,4.3,0.5,3.8s-3.2-3.3-3.2-3.3l-2.3,2.7h-3.6c0,0-2.2-0.8-1.2-1.8s2.5-3,2.5-3l-3-2.2l-5,2.2l-3.5,1.7l-1.5,4.2
		l-0.7,2.3l1,5.3v3.2l-2.8,2.7l0.8-6.5l-3.2-1l-2.5,2.5l-2.8,1.3l1.2-4.5c0,0,3.2-1.2,3.2-2.2s-0.7-1.7-0.7-1.7l-4.8,2.2l-6.2,2.3
		l-1.3,3.8l-4.7,2.3h-3.2l-2.2,2.2l3.5,2.2l0.5,2.3l-3.7,3.3v3.5l2,1.3l1.7-4.3l1.2,1v3.7l2.8,1.5l2.5,2.5l1.2,0.7l-2.5,2.5
		l-3.2-0.2l-1.8,2l-1.4,1.4l3.9,1.8v2.5l-3.7-1l-3.2,0.2l-4.3,1l-2.3,4.3l0.8,4.3H729l-3.7,1l-2.3-2.3l-4.2-0.5v3l2.2,2.2v2.3l1,2.5
		l1.7,5.5l-0.3,3.2l-3.8-2l-1.5,1.5l-3.5-0.7l-2.5-1.7l-3.2-3.2l-3.4,0.1V229c0,0-1.5-2.3-1.5-1.5s-1.8,1.7-1.8,1.7l-2.4-2.3
		l1.3-1.3l2.2-0.7v-3.7l-1.7-1.7l-3.2,2v-3.2l-1.9-1.9h-1.9l1.3-4.1l-4-1.3l-1.2,1.2l-3.7-2.8c0,0-0.3,1.6-1.6,1.6s-1.1,3.1-1.1,3.1
		l-1.3,1l-1.3-1.5l-1.3,0.3l-0.7,2l-2.7-1.8l-1.8-1.8l-2.1,1.6l-2-2l-0.5,2l-0.7,3.8l2.5,3.8l0.5,3.3c0,0,0.8,3,0,3
		s-4.5,0.7-4.5,0.7l-3.5,3l-3.5,1.3l-2-3.2l-0.5,1.8l-0.2,1.3h-4.9l-2.8-2.8l1.2-1.2l-1.3-1.9l-5,1.5l-6.3,1.2l-4.2,2.2l-3.1,3.1
		l-1.6,1.6l2.3,2.2h-2.2l-2-2.8v-3.3l-1.8-1.8l-2.1,2.9l-0.7,2l-3.3-1.3l-2.8-0.7l0.4,2.9l0.8,0.6l0,0l0.6,0.5l-0.3,1.6l-1.1,1.2
		l0.8,1.9l1.5,2.2l1.4,1.4l-0.6,3.4l1,2l3.1,1.1v0.4l0.5,0.2v1.6l4,2.8l2.1,2.1v0.1l0.5,0.5v4.1l2.1,3.9h2.4v0.6h0.5l0.2,3.4h-1.4
		l-0.7,2.3l-3.2,3.2l-2.8,1.9l0.1,6l-2.5,0.9l-0.9,3.2l1.3,1.3v0.1l0.5,0.5v2.8l-1,2.2l-3.4-1l-2.5,0.8l-3.6,5.1l-3.5,1.4v1.4
		l0.9,2.2l1.1,2.6l2.5,1.7v0.2l0.5,0.4l0.3,5.5l2.9,5.3v2.2l0.7,4.2l0.9,6.5l-2.5,0.7l-1.7,2.7l-1.6,1.6l0.6,1.9l0.6-0.6l3.1,1.2
		v0.4l0.5,0.2v2.6l1,1l0,0l0.2,0.2l-1.1,1v2.8l2.8,1.5v0.1l0.1,0.1l0.9,4.5l3.3,3.3l0,0l0.2,0.2l-1.1,3.2l-2,3.1l0.8,2.5v2.2l-1,1
		v3.2l1.7,0.7h2.7l1.4-1.4h1.6l1.5,1.8l3-1.1l2.3,1l1.8-1.8l2.4,0.2v0.2h0.1l0.1,1.9l2.2,2.2v0.1l0.1,0.1v2.1l-2.2,0.6v3l2.6-0.2
		l2.8-0.8l2.5,1.8l0.1,0.2h0.1l2.1,3.7l0.9,3.5l1,1l0,0l0.2,0.2l-1,1v2.3l2.5,1.1h2.4l1.8,1.8l0,0l0.2,0.2l-0.4,3.1l-1.3,1.3v2.2
		l1.9,1.9l1,2.3l0.3,2l2.1,0.7l2.9,1.2v4.1l-0.6,4.2v4.7l-0.5,5l0.4,8.3l4,4l3.5-0.3l1.7-2.5l1-3.1h2.6l5.5-2.1l0.5-2.7l2.1-0.9l0,0
		h0.1l2.2,2.2v2.9l1.8,2.4v-3.2l4.4-3v-5.8l3.1-3.1l1.2-3.7l-0.9-3.2l2.3-2.3l1-3.3l2-2.4h0.1l0,0l3.4,0.5l3.4-0.4l0,0h0.1l3.7,1.8
		l3.2,0.4v3l1.6,1.4v2.4l3.5,0.5l2.3-2.3v-2.5h2.7l1.8,1.8l2.2,2.4l0,0l0.1,0.2v2.2l2,0.2l0.1,0.2h0.1l1.4,3.6l4.6,4.6l0,0l0.3,0.3
		l-0.6,1.8l1.4,1.4v0.1l0.2,0.2l0.8,3.6l3.4,1.3l0.2,0.3l0,0l2.4,3.1l2.5,0.8v0.2l0.2,0.1v2.7l2.5,0.6v0.2l0.2,0.1v1.9l1.8,1.8
		l2.9,0.8l2.2-0.8l0.2,0.3l0,0l1.2,1.9l-2,2.5l1,1.8l3.3,0.9l1-2.5l2-2l2,0.5l1.3,1.3v0.1l0.2,0.2l0.2,2.6l1.8,0.7l1.9-2.7l2.7,1.3
		l0.1,0.2l0.2,0.1l1.2,3.2l1.1,1.9l-0.4,3.9l1.5,0.2l2.2,2.4h1.3v0.3h0.2v1.2l-2.5,1.5l1.4,2.2l0.7,3.3h2.6l0.2,0.3h0.1l1.1,2.2
		l2.4,4.2l2.7-2.7l5.7-4.2h4.2l3.8-1.3l5,0.8l4-2.2h3.5l6.7,0.7l2,2l3.3,1.5l1.3,3.5l3.7,1l2.7,2.7l3.8,3l1.7,4l4,0.7
		c0,0,3.2,2.5,3.2,3.2s2.8,2.3,2.8,2.3l2.4,2.4l2.1,4.1l5,1l5-1.8l1.8-1.8h4.5l4.8-0.7l3.2,0.8l3.8,1l1.9-1.9l3.6,0.9l2.2,2.2
		l2.7,2.3v3.8l2.3,0.8l3.2,1.8h3.2l0.8-3l3-1l3.5-2l3.5-2.8l-1.3-4.2l3-3.8l2.7-4.3l1-3.3l4-2.2h2.8l0.7,2.2l2.4,2.4l2.1,2.1v3.7
		l-1.8,2.8l3.3,3.5l0.8,3.7l1.8,3.2l-0.7,2.7l2.3,3.2l0.3,3.8l1.7,3.7l-1.3,3.5l2.7,4.2l-1.5,3l-2.4,2.4l-2.8-0.9l-2.7,1.3l-2.3,2.3
		v3.3l-1.8,1.8l-2.1,2.1l0.1,3.2l3,1l3.2,3.2l1.5,3.8l1.8,1.8l3.6,3.6l1.8,3.9v3.3l-2,4l-1.2,3.8l1.3,1.3l3.2,0.2v-2.7v-1.7l1.4-1.4
		l0.9-3.2l-0.7-2.8l0.7-4.2v-1.7l2.2,2.2l1.4,1.4v-3.1l1.3-2.8l1.2,1.2v2.2l2.4,1l3.5-2l4.2-1.7h2.2l2.5-4.7l2.2-4.7l3.3-5.5v-3.8
		l0.3-8l-1-6.2l1-6v-8v-6.5l1-3.3v-6.3l-1-6.5l-1-4.8l-1.3-5.3l-1.8-4.8l0.2-6.2l-1.8-6l1-6v-7l-2.6-2.6l-3.1-4.8l-0.8-2.3l-2.3-4
		l-3.3-3.3l-0.8-2.8l-1.7-1.7l-4.2-4.2l-3.4-4.9l-2.2-6.7l-0.5-6.3l-1.7-3.2l-1.6-1.6l-3.1,0.4l-2.5-2.5l-0.7-2.2h-3h-2.8l1-1.8
		l1.2-1.2l1.6-1.6l-2.1-2.1c0,0-2.3,1-3.2,1s-4.7,0.7-4.7,0.7l-1.6-1.6l-3.6-0.4h-4.3l-3.7,0.8l-1.8,1.8l-3,1.7l1.8,3.3l1.5,2.8
		l1.6,1.6l-0.4,2.8l-1.9-1.1l-1.2,1l-1.8,2.5v1.7l-3.3,1.3v-2.2v-3l-1-1l-1,0.3l-2-1.5v-1.7l-1.8,2v2.5l2.3,1v2.7l-1.8,1.8l-2-2
		l-1.6-2.9v-2.2l-2-1l-1.7-1.7l-2.4,2.4l-2.2,2.2H885l-2,2h-2.5l-1.5-3.4l1.3-3.7v-4.1l2.5-4.2V392l1.5-5.7v-4.4v-4l-1.7-1.8v-5.7
		l1-4.2v-6v-4.5l2-3.3l-2.3-2.3l-1.5-3.8l0.8-5.3l2.5-2.5l-2.7-5.3l0.5-5.5l2.8-5.7l2.8-2.8l2.7-4.5l2.4-2.4l3.8-3.7h3.8l2.8-1.8
		l-1-1l-1.3-2.2l2-1.8h2l2.3-2.2l2.6-2.6l-1.1-3.6l3.5,1.3l2.2-2.3l-1.8-1.8l-1.2-3.2l0.8-2.5l2.2-2.2l2.7-0.7l2.3-2.8l4.7-2.2v-1.5
		l3.2-0.5l3-1.2l1.2,1.2l-2.8,0.9l-0.7,2.2v2.2c0,0,2.2,0.8,1.5,1.5s3.2-0.2,3.2-0.2l1.2-3.2v-3.5l3.2-1.3l0.5-2.5l-1.2-5.8l5-0.8
		v-4.6l2.7-0.8l0.2-3.2h-2.5l-1.4,1.4l-1.9,1.8l-2.2,0.3l-2.3-2.3v-3l-2.8-2.8l-0.9-6.6v-5l-3-4.7l0.5-4.7l-3-2l-0.2-7.3l1.8-2.2
		l1.5-5.5v-2.7h4.5l1.3-4l-1.3-3.7l4.7,4.3l1.3,2.8l1.7,1.7l2.5,2.5V210l3,1.5l1.3,3.3l1.2-3.8l-0.3-6.3l-1.7-4v-5.3l-2.1-2.1
		l1.6-2.2l1.5,0.2l0.3-2.2h-3.3l-2.8-2.8l-2.9-2.9l-2-1.8l1-2.7v-3.5l3.7-2l2.6-2.6l1.1,1.1l-3.2,3v3.8l3.5,2.2l2.3,3l1.9,1.9
		l2.1,0.8h2.2l2.2,4.2l2,2v2.8v2.3l-1.2,4l0.2,3.3l2,1.7l2,6.2l1.7,4.2l1.5,5.2l1.3,5.5l3.2,4.2l2,6.2l0.8,5.3l1.7,5l-1.2,1.2
		l-1.5,1.5l1.6,2.8l-1.2,2.5l-1.4,1.4v1.4l3.1,0.7l2.8,4l0.5,3.8l2.3,2.3v3.5l3.3,3.5l4.8,4.8c0,0,1.4,3.2,2.2,4l4.5,3l4.7,2.5
		l7.2,2.2l3.3,0.7l3,2l1.8,2.5l6.3,3.3l5.5,2.3l5.8,2.7l3,3h3.3l2.4,2.4l3.1,1.6h4.8L1049.8,316.9z"/>
	<polygon class="st1" points="988,199.1 985.2,198 983.5,199 983.5,202.2 983.2,205.1 985,206.2 986.1,207.7 986.2,210.2 
		988.6,211.1 988,208.5 987,206.5 988,203.2 	"/>
	<polygon class="st1" points="1042.1,217 1045.5,217 1047.7,214.9 1044.9,214 1042.2,215.1 1039.6,214.1 1037.6,214.9 1038.6,217 	
		"/>
	<polygon class="st1" points="1050.9,324.5 1051,321.9 1049.6,320.4 1048.7,323 1047.3,324.4 1048.9,326 1049.8,327.9 1049.6,330.5 
		1049.4,333.8 1050.9,335.3 1052.6,334.4 1052.6,330.9 1054.1,329.4 1052.9,326.5 	"/>
	<polygon class="st1" points="1058.2,344.5 1055.8,342.9 1055.8,345.1 1057.2,345.8 	"/>
	<polygon class="st1" points="1052.4,207.6 1053.7,206.2 1051.9,206.6 1050,207.9 1051,208.9 	"/>
	<polygon class="st1" points="853.7,44.6 855.3,47 857.1,51 859.7,51.5 861.5,49.8 862.8,47.3 861.4,45.7 863.6,42.5 863.2,39 
		863.2,34.9 861,33.2 859.7,32.7 858.5,33.9 856,35.2 853.9,37.3 854.1,40.8 853.2,41.7 	"/>
	<polygon class="st1" points="893.5,394.7 892.1,396.3 892.1,398.3 892.1,400.5 894.5,399.4 895.8,400.7 897.3,399.3 897.9,396.4 
		896.3,394.1 	"/>
	<polygon class="st1" points="729.2,139.2 730.9,141.6 734.1,142.7 736.2,140.7 738.9,140.7 741.6,139.6 744.1,138.5 745.7,136.9 
		745.7,134.8 747.1,131 744.7,129.2 741.3,130.7 739.6,132.7 737.7,134.6 736.9,134.6 735.5,132.9 733.2,135.2 731.6,136.8 
		730.4,138 728.2,136.9 728.5,138.1 	"/>
	<polygon class="st1" points="699.3,160.8 700.9,160.8 703.1,162.9 702.5,165.3 705.2,166.7 708.8,166.9 710.3,168.4 713,168.4 
		716.2,167.5 716.2,165 714.3,163.2 715.3,162.2 716.9,163.7 719.7,158.7 722.3,156 723.5,157.2 725.9,154.7 726.7,152.5 
		723.9,151.6 722.1,153.4 719.8,151.7 717.1,150.1 714.4,148.1 715.3,146.1 716.7,144.7 717.9,148.5 719.6,150.3 722.6,150.8 
		724.4,150.1 725.9,150.1 727.4,148.5 726.7,145.4 724.2,145.4 724.8,142.7 724.8,140.7 722.9,141.3 718,141.3 716.4,142.9 
		714,144.6 712.1,142.8 707.7,144.2 708.1,146.9 709.2,148 710.8,149.7 712,150.8 710.3,152.2 708.1,150.2 706.8,151.4 705.2,149.8 
		701.4,150.5 699.7,149.6 699,151.6 700.2,152.8 697.9,154 697.9,156.9 699.7,158.7 	"/>
	<polygon class="st1" points="725.4,167.9 724.1,169.1 725.1,172.1 726.9,173.9 728.3,171.1 728.3,168.8 727.3,167.8 	"/>
	<polygon class="st1" points="732.4,179.7 733.8,176.8 737.2,176.1 740.3,174.9 744.4,172.4 742.2,168.5 739.4,168.5 735.3,167.2 
		733.4,168.9 731.6,170.6 729.9,172.4 730.9,174.7 732.6,176.4 731.5,178.8 	"/>
	<polygon class="st1" points="696.4,167.8 698.4,167.8 698.4,165.8 697.6,164.1 696.3,162.8 693.8,162.6 695.4,164.2 	"/>
	<polygon class="st1" points="619.2,225.8 619.2,227.7 621.5,227.7 622.3,229.5 624.3,228.6 626.5,226.3 626.5,222.7 623.7,222.7 
		622,223 	"/>
	<polygon class="st1" points="721.8,118.1 720.6,116.5 719.7,118.1 720.7,119.1 	"/>
	<polygon class="st1" points="708.3,182.7 710,183.5 712.1,185.2 713,183.9 712.1,182.6 709.3,182 	"/>
</g>
<g>
	<polygon class="st1" points="590.7,185.2 589.3,184.5 588.7,185.4 590.1,186.3 	"/>
	<polygon class="st1" points="584.9,174 586.6,173.6 586.1,171.6 584.5,172 582.8,171 581.3,171.9 583.4,173 	"/>
	<polygon class="st1" points="564.2,177.5 565.9,176.4 569.7,174.5 572.7,174.2 576.5,171.3 578.3,167.8 577.1,164.8 575.7,162.5 
		573.9,163.3 572.1,160.1 570.7,158.7 569.1,160.7 568,163.6 568,161.5 568.1,157.7 567.1,155.6 565.6,155.7 563.5,158.3 
		563.6,160.6 562.7,162.1 563.3,166.2 561.5,168 561.6,172 560.7,175.5 560,179 561.3,179.8 	"/>
	<path class="st1" d="M545.8,146.7c-0.5,0.2-2.7,0.9-2.7,0.9l-1.1,2.3l-0.6,2l-1.4,1.7l0.5,2l-2.6,2l1.2,1.1l1.8-0.6l1.5,2.1l0.2,2
		l1.4,1.7l3.5,0.3l0.5,2l2.4-1.5l1.2,2l3.3,1.2l3.2-1.5l1.5-2.1l-1.2-2.4l-2-2.7l1.5-1.1l0.6-2.6l-0.8-2.9l0.3-2.9l-3.6-2l-1.4,1.7
		l-1.2,2.3l-1.1-0.5l0.8-2.9V145l0,0l-3.3,1.1C548.2,146.1,546.2,146.6,545.8,146.7z"/>
	<polygon class="st1" points="548.2,195.9 550,197.3 551.8,195.5 551.7,193.7 550.1,195.5 	"/>
	<polygon class="st1" points="528.1,193.2 526.4,193.1 525.6,194.3 526.7,195.2 	"/>
	<path class="st1" d="M509.8,237.4c0-0.3,1.4-0.6,1.4-0.6l-0.3-2.3l-1.8,0.9C509,235.4,509.8,237.7,509.8,237.4z"/>
	<polygon class="st1" points="498.6,223.8 497.8,220.9 496.1,222.3 497.1,224.1 	"/>
	<polygon class="st1" points="497.2,240.7 496.9,242.4 499.5,242.4 500.8,243.7 501,241.5 499.5,241.2 	"/>
	<polygon class="st1" points="490.2,153.7 490.7,152.2 488.4,151 487.5,151.9 488.6,152.5 	"/>
	<polygon class="st1" points="479.8,261 481.3,259.3 481.9,257.4 480.6,256 479.2,256.4 478.1,257.8 478.8,259.6 	"/>
	<polygon class="st1" points="502,133.2 503,132.2 501.1,131.4 499.9,131.7 499.1,132.5 500.3,133.8 	"/>
	<polygon class="st1" points="530.5,131.9 532.4,130.1 532.4,128.8 529.8,128.9 528.7,130.1 529.5,130.9 	"/>
	<polygon class="st1" points="536.4,146.2 539.3,148.7 541.9,146.2 543.7,146.2 546.3,144.7 549.4,143.7 548.5,140.7 548.5,136.9 
		550.4,135.3 548.8,133.8 545.7,130.6 544.5,128.1 541.8,127.3 541.4,129.8 539.1,130.8 535.8,133.1 535.8,136.2 537.1,137.6 
		535.3,139.4 534.1,141.7 535.8,143.9 	"/>
	<polygon class="st1" points="535.4,153.1 536.5,154.2 538.2,152.5 539.1,150.1 537.5,148.8 534.4,148.1 532.3,147.8 532.7,150.6 
		532.7,152.3 	"/>
	<polygon class="st1" points="503,213.3 501,212.1 500.2,212.9 501.3,213.8 	"/>
	<path class="st1" d="M788.4,479.7h-0.2l-0.8-3.6l-1.4-2.2l2.5-1.5v-0.9h-1.1l-2.2-2.4l-1.8-0.2v-0.3h-0.3l0.4-4.2l-1.1-1.9l-1.1-3
		l-2.5-1.2l-1.9,2.7l-2-0.8V460l-0.2-0.1l-0.2-2.7l-1.1-1.1l-2-0.5l-2,2l-1,2.5l-3.4-0.9l-0.1-0.3h-0.1l-1.1-2.1l2-2.5l-1-1.6
		l-2.2,0.8l-2.9-0.8l-2-2v-0.1l-0.2-0.2v-1.8l-2.5-0.6v-0.2l-0.2-0.1V445l-2.3-0.7l-0.2-0.3l-2.4-3.1l-3.6-1.4v-0.2l-0.2-0.1
		l-0.8-3.7l-1.5-1.5l-0.3-0.3l0.6-1.8l-2.3-2.3l-2.2-2.2v-0.1l-0.1-0.1l-1.3-3.5l-2-0.2v-0.2H736v-2.4l-2.1-2.2l-1.8-1.8h-2.7v2.3
		l-2.3,2.3H727l-3.6-0.5v-2.4l-1.6-1.4v-3l-3.2-0.4l-3.7-1.8l-3.4,0.4h-0.1h-0.1l-3.4-0.5l-2,2.4l-1,3.3l-2.3,2.3l0.9,3.2l-1.2,3.7
		l-3.1,3.1v5.8l-4.4,3v3.4l-0.1-0.2v0.2l-1.9-2.6v-2.9l-2.2-2.2l-2,0.9l-0.5,2.7l-5.5,2.1H680l-1,3.1l-1.7,2.5l-3.6,0.3h-0.1l-4-4
		l-0.4-8.3l0.5-5V424l0.6-4.2v-4.1l-2.9-1.2l-2.1-0.7l-0.3-2l-1-2.3l-1.9-1.9v-2.4l1.3-1.3l0.4-3l-1.6-1.6h-2.4l-2.6-1.2V398
		l-0.1-0.1v-2.5l1-1l-0.9-0.9v-0.1l-0.1-0.1l-0.9-3.6l-2-3.5l-2.4-1.8l-2.8,0.8l-2.7,0.2v-0.2h-0.1V382l2.2-0.6v-2l-2.2-2.2v-0.1
		l-0.1-0.1l-0.1-1.8l-2.3-0.2l-1.8,1.8l-2.3-1l-3,1.1l-1.5-1.8h-1.6l-1.4,1.4h-2.7l-1.8-0.8v-0.1l-0.1-0.1v-3.3l1-1V369l-0.8-2.5
		l2-3.1l1.1-3.2l-3.2-3.2v-0.1l-0.1-0.1l-0.9-4.5l-2.8-1.5v-0.1l-0.1-0.1v-2.9l1.1-1l-0.9-0.9v-0.1l-0.5-0.5v-2.3l-2.6-1l-0.9,0.9
		l-0.3-0.9l-0.3,0.3l-0.9-2.8l1.6-1.6l1.7-2.7l2.5-0.7l-0.9-6.5l-0.7-4.2v-2.2l-2.9-5.3l-0.3-5.3l-2.4-1.6l-0.1-0.3l-0.4-0.3
		l-1.2-2.9l-0.9-2.2v-1.4l3.5-1.4l3.6-5.1l2.5-0.8l3.4,1l1-2.2V291l-1.4-1.4l-0.6-0.6l0.9-3.2l2.5-0.9v-2.6l-0.1-3.4l2.8-1.9
		l3.2-3.2l0.7-2.3h1.4l-0.2-2.8h-2.1l-0.3-0.6H635l-2.4-4.5v-4L631,258l-4.5-3.2v-0.2l-0.5-0.4v-1.4l-2.9-1l-0.2-0.5l-0.3-0.1
		l-1.2-2.5l0.6-3.3l-1.4-1.4l-1.5-2.2l-0.8-1.9l1.1-1.2l0.3-1.6l-0.7-0.6l-0.5-0.5l-0.4-2.9h-2l-2.5,0.2l0.2,2.7l-0.2,1.3l2,0.2
		l1.2,1.2l-1.6,3.1l-2.7,1l-2.8,2.3c0,0-0.5,3-2,3s-4.2,0.8-4.2,0.8l-3,1.8l0.7,3.3l-3,1.3l0.8-3l0.7-4.3l2.8-2.8l1.2-3.8l4-1l1-5.2
		l2.5-2.5l1-4.7v-1.7l3.3-4l1.9-1.9l1.6-3.2l1.7-2.3v-3.3l1.9-1.9l-2.1-3.6l-3.3-1.8l-1.3-1.3l3.3,0.7l0.3-3.5l-2.2-2.2l-1.8-1.8
		l-1.2,1.3l-2-1.7l-1.7-3.3l-1.9-1.9l-2.6,1.2l-1.9-1.9l-3.4,2.4h-3.3l-3.7,2l1.5,1.5l-0.8,2.8c0,0-2.7-1.2-3.7-1.2
		s-0.8-2.2-0.8-2.2l2.2-2.2l-2.4-2.4h-3.2l-1,1l-5.3-0.3l2.2-2.8l2.6-2.6l-0.8-3.4l-2.5,0.3l-3.3-2l-2.7,2.8l-3,2.2l-2.5,6.2
		l-0.8,2.7v4l1.3,1l0.3,2.8h-1.2l-3.8,1.2h-3.7l1,1.8l2,1.5l1.5,2l-3.3-0.7l-3.3,0.7l-0.5,2.7l-5.2-0.2l-2.1,2.1v-2.4l1.6-3l-3,0.5
		l-0.8,1.8l-3.7,0.5l-4.3,1l-1.7,1.7l3,1l-1,1.2l-4.5,1.3l-1.6,1.6l-6.2,0.9l-1.8,1.8l-4.6,1.8l-1.8,3.8l-4.7-0.2l0.2,2.5l2.3,0.2
		l-2.3,1.8l-1.7,2.3l1.4,1.4l-0.9,2.1l1.3,1.5l-2,0.5c0,0,0-2.5-1.2-1.2s-1.9,1.9-1.9,1.9l1.7,1.7l2,0.7l1.7,2.5l-1.7,1.7h-3.2
		l-4.3,1.8h-6.5v1l-4-1.5h-7.8l-3.3,3l0.8,4.2l1.3,1.3l-1.5,3.3l-1,4l1.3,1.3l2.3,3.8l3.2,1.2l-0.2,2.3l1.8,2.5l-0.7,2.7H490
		l-2.9-2.9l-1.1-1.1l1.2-3.3l-4.3-2.3l-2.2-2.2l-2.8,0.4l-3.3-0.7l0.1,0.6l0.3-0.4l0.2,1.8h1.3l0.1,0.2h0.2l0.7,1.8l1.2,1.2l2,0.4
		l2.3,1.2v0.1l0.2,0.1l0.6,2.2l-1.6,1.6l0.3,1.8l-3.2,0.5l-1.4,1.4l-0.9,0.9l0.8,1.8l0.6-0.8l0.2,0.5l0.1-0.1l0.9,1.8l3.4,1.9v0.1
		l0.3,0.1l-0.3,4v5.8h-3.6l-1.2,2l-2.5,2.5l-3,2.3l0.2,3.1l1.3,1.3l0.2,0.2l0.5,1.8l1.9,1.9l3.2,0.5v0.2h0.2l0.4,2.2l0.9,0.9l2-1.8
		c0,0,0.1,0.1,0.2,0.3l0.1-0.1l0.8,0.8c0.3-0.3,2-1.9,2-1.9v0.5l0.3-0.2l-0.1,3l2.4,0.5v0.2h0.2v2.6l1.6,3.8l-0.9,2.4h-1.2l1.3,2.5
		l-1.1,3.2l-1.8,1.8l-0.6,2l-2.3-0.5l-0.1,2.7l1.4,1.4l0.2,0.2l0.5,3l-1.4,2.5l1.5,1.5v2.2l3.5,2.1l0.1,0.1l0.2,0.1l1.4,2.9
		l-2.2,2.1v1.7l1.2,2v3l-1.5,1.2l1.7,3.1h1.8l0.2,0.2h0.1l2,2l1.5,3l0.3,3.8l-1.7,1.7l0.8,3.3l3.5,0.7l0.2,0.2h0.1l1.6,1.6l1.9-1.9
		l0.1,0.5l0.3-0.3l0.7,4l-0.7,3.5l1.2,2.7l-2.2,2.2l-2.4,3.1l-1.7,3.2l2.5,3.5v4.2l-2.4,2.4l-0.2,3.8l-1.4,1.4l-3.9,3.9l0.1,5.1
		l3.9,2.6l4.7,2.1v0.1l0.4,0.2l-2.5,4.1l-6,2.6l-3.8,3.8l1.9,3.9l1.3,2.8l-3,3l1,3.3l3.4,1.1l4.5-1.2h5.3l4,1l0.1,0.1l0.3,0.1l2,3
		l3.2,3.2l1,3.6l4.5-0.3l0.2,0.2h0.2l1.7,1.7l-2.8,3.2l-2.6,2.6l-1.6,4.2l2.5,4l0.8,2.6h2.5l4.5,1.5l0.3,0.1l0.5,3.8l-3.7,1.8
		l-2.2,3.8v5l-0.8,3.5l0.5,2.7l1.2,1.2l2,0.7l0.3,0.1l2,3.8v4.3l-2,0.8l-3,3l1.9,3.2l3.2,3.4l0.4,0.1l2.5,0.5l1.5-1.5l4.9,0.5
		l3.2-1.1l0.1,0.2l0.2-0.1l1,2l-1.1,4.5l3.4,3.4l1.1,4l3.5,3.5v3.2l1,2.7l-0.9,1.8l-0.4,1.5l-2.7,2.7l0.4,3.4l-2.7,2.7l-0.4,0.2
		l-0.1,0.1l-2.6,1.2l-1.4,3.5l-1.2,1.7l-0.3,0.2l-0.1,0.2l-3.1,1.7v3.6l-3.2,3.2l-3.2-0.2l-2.9-0.8l-1.5,1.5l0.5,3.9l1.1,3.5
		l3.4,3.4l3.1,2.9v0.1c0.1,0.2,0.2,0.4,0.2,0.6c-0.2,0.1-0.5,0.4-0.7,0.9s-0.2,1-0.1,1.2c0.1-0.1,0.1-0.1,0.1-0.1
		c0-0.1-0.5,0.1-1.4,0.4c-0.3,0.1-0.8,0.3-1.5,0.5c-1.2,0.4-1.4,0.3-1.5,0.5c-0.8,1,0.5,3.7,4.3,8.3l0.7-3.5h3.3l3.3-3.3l5.5-3.5
		h4.3l1.2-3.5h3.7l2.9-2.9l3.6,1.6l2.8,2.8l4.5-1.8l3.8,1.2l3.2,3.2l2.7,2.7l4.8,1.7l3.3,1l4.7-0.8l4.5,1.2h4.8h3.2l3.8-3.8l3.9-2.6
		v-4l-2.9-2.9V579l-2.1-2.5l0.7-4.3l2.2-2.2l2.1-4.2l2.6-2.6l1.9-1.9l3.8,2.8h6.5l3.2,3.2l4.8-1.2h4.2l4.3,1.7l3.1,3.1l2.4,5.1
		l2.6,2.6l4.1,1.8l6,0.5l4.2-1.2l4.3-1l3.9-3.9h4.8l7.7-1.1l2.3,1.5l5.8,0.8h6.3l2.3,2.3l1.3,2.5l4.5,1.5l5-0.7h6.8l4.8-1.5h5.3
		l2.1-2.1l4.1-4.1l5.3-2.5l3.8-2.7l2.9-2.9l1.4-4.9l6-6l4.2-1.8l3.2,1.2l3.5,1.8l4.7-2.7l3.3-2l4.5,0.8l6.2,0.5l5.5-2l3.2-3.2
		l2.2-5.2l3.5-1v-5l-1.5-1.5l-2.5-4.8l1.8-4.7v-4.9h-1.2l1-7.2l1.3-2.8l-1.3-5.3l-2.3-2.3l-2.1-2.1l-2.6,2.1l-1.8-2.3l1.3-3.3
		l1.8-5.5l2.6-2.6l5.2-3.1l-2.4-4.2l-0.9-1.9C790.3,479.9,789.3,479.8,788.4,479.7z"/>
</g>
<polygon class="st1" points="52.5,274.3 51.1,272.2 51.4,269.7 51.4,266.8 49.2,264.9 48.5,264.2 47.3,265.3 48.6,266.6 48.1,268.5 
	45.7,268.1 45.4,266.1 43.9,265.6 43.8,263 41.9,261.2 39.9,260.8 39.1,262.5 36.8,263.1 34.2,262.5 39.1,273.7 47.5,283.7 
	53.1,280.9 54.2,278.5 53.8,275.2 "/>
<path class="st1" d="M107.3,328.3c0.5-0.9,1.1-1.8,1.6-2.7c0.8-0.1,1.6-0.1,2.4-0.2c0.3-0.6,0.7-1.3,1-1.9c0.3-0.7,0.5-1.4,0.8-2.2
	c0.1-1,0.2-2,0.3-3c0.5-0.5,0.9-0.9,1.4-1.4c0.2-0.8,0.4-1.5,0.6-2.3c0.5-0.5,1.1-0.9,1.6-1.4c0,0,0.1,0,0.1,0c0,0,0.1,0.1,0.1,0.1
	c0.2,0.4,0.4,0.8,0.5,1.2c0.5,0.6,0.9,1.3,1.4,1.9c1,0,2.1,0,3.1,0c0.5,0.3,0.9,0.7,1.4,1c0.7,0.1,1.4,0.2,2.1,0.2
	c0.3,0,0.7,0.1,1,0.1c0.5,0.2,1.1,0.5,1.6,0.7c1,0.2,2.1,0.4,3.1,0.5c0.2,0,0.5-0.1,0.7-0.1c0.5,0.5,1,1,1.5,1.4
	c0.2,0,0.5,0.1,0.7,0.1c0.6,0,1.2,0,1.9,0.1c0.6-0.5,1.1-1,1.7-1.5c0.9,0,1.7,0,2.6,0c0.6-0.4,1.2-0.9,1.8-1.3
	c0.6,0,1.2,0.1,1.8,0.1c0.5,0.2,1,0.4,1.4,0.6c0.4,0.4,0.8,0.7,1.2,1.1c1.1,0.6,1.6,1.5,1.4,2c0,0.1-0.2,0.3-0.7,0.5
	c0.8,0.1,1.6,0.2,2.4,0.2c0.6,0.7,1.3,1.4,1.9,2.1c0.9-0.1,1.8-0.3,2.7-0.4c0.2-0.4,0.3-0.7,0.5-1.1c0.3,0.4,0.5,0.8,0.8,1.1
	c0.3,0.2,0.7,0.4,1.3,0.7c0.4,0.2,0.7,0.3,1.3,0.5c1.4,0.5,1.7,0.5,2.2,0.9c0.4,0.3,0.6,0.6,0.7,0.8c0.7-0.5,1.4-1.1,2.1-1.6
	c0.1-1,0.2-2,0.3-2.9c-0.8-1.2-1.5-2.3-2.3-3.5c-0.7-0.1-1.3-0.1-2-0.2c-0.1-0.1-0.3-0.3-0.4-0.4c0.2,0,0.5-0.1,0.7-0.1
	c0-0.6-0.1-1.3-0.1-1.9c0.4-0.5,0.7-1.1,1.1-1.6c0.5-0.4,1-0.8,1.5-1.2c1,0.1,2.1,0.2,3.1,0.3c0.5-0.5,0.9-1,1.4-1.4
	c0.7,0.1,1.5,0.2,2.2,0.3c0.9-1,1.7-2.1,2.6-3.1c0.9-1.9,1.7-3.8,2.6-5.6c-0.5-2.6-1-5.3-1.5-7.9c-0.8-1.6-1.5-3.3-2.3-4.9
	c-1.8-0.3-3.6-0.6-5.5-0.9l-0.1-0.2l-0.1-0.1l-6.3-18.2l-1.8-6.2v-4.9h-15.3l2.2,2.5l3.6,1.5l-0.8,0.8l-2.7,0.7v5.7l3,2.6l0.4,4.9
	l1.1-1.3l0.4,0.6v1.2l-0.7,1v1.3l-1.5,0.7h-0.7l-0.6,0.5l-1.5-1.1l-1.2,0.2l0.4-1.6l0.4-1.4v-0.9l0.5-0.6l-1.3-3l-3.7-1.1l-2.3-2.5
	l-2.8-1.4l-1.5,1.5l-0.7,2.5l-4.5-1l-3.3,2l-3.9-0.1l-2.8,3.8l-3.5,1.3l-0.2,2.5l-1.8,2.2l-4.2,0.2l-1.6,2v3.5l-4,2.5l-2.7,0.6
	l0.8,3l-1.8,3.4l-3.2,3.1l-0.5,2.4l1.5,3.3l2.4,2.3l-0.9,2.7l-1,2.5l3.2,0.8l2.8,2.7c-0.1,2.3-0.2,4.6-0.3,6.9c1.3,0,2.6,0.1,4,0.1
	c0,0,0-0.1,0-0.1C106.4,326.9,106.9,327.6,107.3,328.3z"/>
<g>
	<polygon class="st1" points="227.2,256.8 228.5,255.5 226.7,254.6 226.1,255.5 	"/>
	<g>
		<polygon class="st1" points="358.1,236 359.2,238.7 360.3,239 360.1,242.6 361.8,244 360.9,245.5 358.4,246.3 357.5,249 
			360,251.6 363.1,254.6 364.2,254 366,256.7 367.7,256.7 370.1,258.1 370.1,260 372.7,258.8 373.6,257.9 372.8,255.2 371.2,252.6 
			372.4,248.7 371,244.7 372.1,242 372.1,238.2 374.2,236.1 375.1,233.1 377.7,232 377.7,229.2 380.2,227 383.4,227 385.4,223.7 
			386.9,221.8 388.9,221.8 390.3,220.3 392,218.6 393.3,219.9 393.3,217.7 393.3,216.2 394.6,217.5 396.4,217.5 396,214.5 
			397.8,212.8 397.8,215.4 400,213.7 402.8,211.8 402.8,209 405.5,209.8 405.8,208.1 408.4,208.1 411.2,208.4 413.7,207.5 
			412.6,205.1 416.1,203.2 420.8,203.2 423,200.7 429.1,200.7 433.8,200.9 435.7,198.9 439.8,200.4 444.4,198.3 448.1,198 
			451,195.3 454.2,192.4 454.2,188.8 452.1,185.5 448.4,185.5 444.5,187 441.6,188.6 439.1,191 435.3,191 432.6,191.8 431.1,190.3 
			427.9,190.3 426.5,188.3 423.6,188.1 421.1,190.6 417.3,190.6 414.7,189.7 411.1,191.4 409,191.4 407.3,193.3 405.6,195.1 
			402.3,193.9 402.3,196.2 400,196.2 398.2,194.4 397.2,196 398.8,198 397.3,199.5 397.5,202.5 396.3,201.3 393.1,201.5 
			395.1,203.5 391.4,203.6 391.4,205.4 388.9,205.4 386.9,207.4 383,208.4 379.2,209.5 379.2,210.7 382.4,211.8 383.7,213.1 
			379.9,213.9 379.5,215.5 377.8,217.2 376.1,215.6 372.7,215.6 372.7,217.8 371.9,220.1 369.2,219 366.8,220.5 368.6,222.5 
			365.9,225.4 362.4,226.4 361.9,228.4 360.9,228 360,226.9 357.1,226.6 354.7,229.9 354.1,233.2 355.9,235.8 		"/>
		<polygon class="st1" points="463.8,111 465.5,111 465.5,108.6 464,108 462.8,108.4 463.8,109.8 		"/>
		<polygon class="st1" points="458.3,124.3 459.7,124.6 462.4,124.6 464.6,122.5 466.2,120.8 465.7,118.4 463.7,118.6 462.8,120 
			459.5,120.6 457.4,121.8 459,122.5 		"/>
		<polygon class="st1" points="453.3,116.4 452.6,117.1 453.9,118.4 456.3,117.5 456.3,115.5 454.9,115.5 		"/>
		<polygon class="st1" points="447.3,121.6 447.3,124.1 449.4,124.5 449.9,126 452.5,125.4 454.2,123.7 455.5,122.5 456.1,120.4 
			454.3,120.4 451.5,120.3 449.7,118.3 448.3,119.6 		"/>
		<polygon class="st1" points="443.2,131.4 444.9,131.4 445.5,129.4 444,129 443.2,129.8 		"/>
		<polygon class="st1" points="439.3,125.4 440.4,126.5 443,125.9 443.8,124.1 445.7,124.8 444.7,122.5 443,120.8 440.5,122.6 
			439.7,121.8 436.9,121.8 436.9,123.6 435.4,125.1 436.3,126 		"/>
		<polygon class="st1" points="456.2,103.3 454.4,101.8 453.7,103.3 455,104.6 		"/>
		<polygon class="st1" points="451.8,111.4 453.7,110.5 452.5,108.1 451.7,105.3 449.7,105.3 449.7,107.5 451.8,109.6 		"/>
		<polygon class="st1" points="439.1,111.8 437.4,111.8 437,112.1 438.5,113.6 		"/>
		<polygon class="st1" points="442,117 440.7,114.6 439.5,115.8 440.7,117.1 		"/>
		<polygon class="st1" points="443.1,108.9 441.8,109.1 441.8,110.8 443.5,110.8 		"/>
		<polygon class="st1" points="444.5,113.5 444.2,113.2 444.2,114.6 445.7,114.6 		"/>
		<polygon class="st1" points="446.3,117.1 447.4,116 445.7,116.5 		"/>
		<polygon class="st1" points="448.9,109.9 447.4,109.9 447.4,111.6 448.9,111.8 		"/>
		<polygon class="st1" points="446.8,107.2 446,106.4 445.1,106.4 446,108 		"/>
		<polygon class="st1" points="429,116.9 428.1,117.8 429.7,119.5 431.5,119.5 431.5,116.5 430.3,114.9 		"/>
		<polygon class="st1" points="433.8,116.6 435,116.6 435,115.1 433.1,114.9 		"/>
		<polygon class="st1" points="418.8,108.3 418.8,109.8 416.1,107.9 414.1,108.6 414.8,111.6 416.7,111 416.7,113 418.7,113.5 
			420.5,111.7 423,110.6 425.1,111.3 428.3,111.3 430.5,109 428.4,106.9 429.8,105.5 427.4,104 426.1,104.9 424.9,106.1 
			424.9,107.5 423.5,109 420.9,107.1 		"/>
		<polygon class="st1" points="415.5,105.5 418.8,104.4 419.9,105.5 422,104.6 422.9,105.5 422.9,103.6 421.5,102.2 420.1,102.2 
			419,101.8 416.3,101.8 414.7,100.1 413.5,102.4 415,103.8 		"/>
		<polygon class="st1" points="421.5,115 420.4,115 420.8,116.5 423,116.6 		"/>
		<polygon class="st1" points="423.8,120.8 422.4,119.4 421.9,118.3 420.8,119.4 421.7,120.3 		"/>
		<polygon class="st1" points="433.5,102.5 431,102.1 431,103.8 432.3,103.8 		"/>
		<polygon class="st1" points="378.3,265.6 375.8,266.8 374,267.4 374.5,271.4 374.8,273.5 376.4,273.9 377.1,277.1 380.2,277.4 
			381.3,274.8 379.8,272.3 379.9,269.4 		"/>
		<polygon class="st1" points="321.4,261.7 323.7,262.6 325.8,261.1 328.4,261.5 329.7,258.4 327.6,255.6 327.4,253.4 324.7,252.5 
			321.4,253.4 319.4,255.9 317.9,257.9 319,260.8 		"/>
		<path class="st5" d="M169.3,292l0.2,0.1l2.3,4.4l1.8,7l-1.5,2.8l-0.9,2.2l-2.2,2.8l-2.2,0.6l-1,1.5l-3.2-0.5l-1.8,1.8l-1.7,3.4
			l2.2,0.7l2.2,3.5v0.2l0.1,0.2l-0.4,2.5l-1.3,0.7l3.1,1.5h0.1l2.7-0.5l2.4,0.8l0.2,0.1l-0.9,2.8v3.2l1.9-0.4l3.1-0.3l0.1,0.1h0.1
			l1.8,1.8l4,2.8l1.6-1.6l0.1,0.1l0.1-0.1l3.1,3.1v3.1v3.5l3.8,3.8l3.6-1.6l4.1-1l3.7,1.6l3.4-1.6l0.1,0.2l0.1-0.1l2.2,4.6l4.1,0.8
			l0.1,0.1h0.1l3.3,3.3l1.2,3.2l2.8,1.3c0.9,0.9,1.8,1.9,2.7,2.8c0.6,1.3,1.2,2.7,1.9,4c0.8-0.6,1.7-1.3,2.5-1.9
			c1.3,0.3,2.5,0.6,3.8,0.9c0.5-1.1,1.1-2.3,1.6-3.4c0.1-0.1,0.3-0.3,0.4-0.4c0.2,0.2,0.4,0.3,0.6,0.5c1.1,1.1,2.2,2.1,3.3,3.2
			c0.6-0.6,1.2-1.1,1.8-1.7c0.1-0.9,0.1-1.8,0.2-2.7c0.7-0.5,1.4-0.9,2.1-1.4c-1-1.2-2.1-2.4-3.1-3.6c0.3-0.5,0.6-1.1,0.9-1.6
			c0.2,0,0.3,0,0.5,0c1.1,0.4,2.2,0.8,3.3,1.1c1.8-1.8,3.7-3.7,5.5-5.5c0.4-0.5,0.7-1,1.1-1.5c0.2-0.1,0.3-0.2,0.5-0.4
			c0.1,0,0.2,0,0.4,0c0.2,0.1,0.4,0.2,0.6,0.3c0.2,0.4,0.4,0.7,0.7,1.1c0.2,0.4,0.4,0.7,0.7,1.1c0.3,0.5,0.7,0.9,1,1.4
			c-0.1,0.6-0.3,1.1-0.4,1.7c0.5,0.4,1,0.7,1.5,1.1c0,0.7,0,1.4,0,2c-0.3,0.4-0.5,0.8-0.8,1.2c-0.3,0.2-0.6,0.5-0.9,0.7
			c0.2,1,0.3,2,0.5,3c0,0.1-0.1,0.2-0.1,0.3c-0.1,0-0.2-0.1-0.3-0.1c-1.1,0.3-2.1,0.5-3.2,0.8c-0.1,0.8-0.2,1.5-0.3,2.3
			c-0.7,0.8-1.4,1.5-2.1,2.3c-0.1,0.9-0.1,1.8-0.2,2.7c0.6,0.6,1.2,1.2,1.8,1.8c0.1,0.8,0.3,1.7,0.4,2.5c0.2,0.8,0.4,1.6,0.5,2.3
			c-0.4,0.9-0.9,1.8-1.3,2.7c0.5,0.5,0.9,1,1.4,1.5c0.9-0.8,1.8-1.5,2.8-2.3c0.4-1,0.8-2.1,1.2-3.1c0.2-0.1,0.3-0.2,0.5-0.4
			c0.8-0.2,1.6-0.3,2.3-0.5c0.9,0.4,1.8,0.8,2.6,1.2c0.6,0.7,1.3,1.3,1.9,2c0.9-0.7,1.8-1.4,2.7-2c0.2,0,0.4,0,0.5,0
			c0.2,0,0.4,0,0.6-0.1c0.2,0.3,0.4,0.6,0.6,0.9c0.3,0.7,0.6,1.4,1,2.2c0.9-0.2,1.8-0.5,2.7-0.7c0.6-0.4,1.1-0.9,1.7-1.3
			c0.6,0,1.3,0,1.9,0c0.2,0,0.4-0.1,0.6-0.1c0.8-0.5,1.6-0.9,2.4-1.4c0-0.7,0-1.4-0.1-2.1c-0.4-0.5-0.8-1.1-1.2-1.6
			c0.3-0.9,0.5-1.8,0.8-2.7c0.1,0,0.2-0.1,0.3-0.1c0.2,0,0.3-0.1,0.5-0.1c0.9,0.7,1.8,1.4,2.7,2.1c0.3-0.4,0.6-0.8,0.9-1.1
			c0.1,0,0.2-0.1,0.3-0.1c0.1-0.1,0.3-0.2,0.4-0.4c0.3,0.5,0.6,1,0.8,1.6c0.4-0.5,0.8-0.9,1.2-1.4c0.2-0.1,0.3-0.1,0.5-0.2
			c0.3,0.1,0.5,0.2,0.8,0.2c0.3,0.2,0.6,0.4,1,0.6c0.2,0.4,0.4,0.8,0.5,1.2c-0.2,0.7-0.3,1.4-0.5,2.1c0.7,0.7,1.3,1.5,2,2.2
			c0.7-0.2,1.3-0.4,2-0.6c0.2,0,0.3,0,0.5,0c0.2,0.1,0.4,0.2,0.6,0.2c0.7,0.6,1.4,1.2,2.1,2.1c0.8,0.9,1.4,1.8,1.9,2.6
			c0.6-0.2,1.2-0.5,2-0.7c0.4-0.1,0.8-0.1,1.1-0.2c0.3-0.1,0.5-0.2,0.6-0.3c0.1-0.1,0.2-0.2,0.3-0.3c0.2-0.1,0.4,0,0.6,0.1
			c0.2,0.1,0.5,0.2,0.8,0.2c0.4,0.1,0.7,0.2,1.1,0.3c0.2,0,0.6,0,1-0.3c0.2-0.2,0.3-0.3,0.4-0.5c0-0.1,0.1-0.3,0.2-0.4
			c0.2-0.1,0.3,0,0.3,0c0.1,0,0.3,0,0.4-0.1c0.1,0,0.1-0.1,0.2-0.1c0.2,0.1,0.4,0.2,0.7,0.3c0,0,0.4,0.2,0.6,0.3
			c0.2,0.2,0.7,0.5,1.2,1.1c0.3-0.2,0.7-0.3,1.1-0.5c0.4-0.2,0.8-0.3,1.2-0.4c0.1-0.3,0.2-0.6,0.2-0.9c0.1-0.4,0.2-0.7,0.3-1.1
			c0,0,0.1,0,0.3,0c0.2-0.1,0.2-0.2,0.2-0.3c0.2,0.2,0.4,0.3,0.6,0.5c0.3,0.2,0.6,0.4,0.9,0.6c0.4,0.3,0.9,0.7,1.3,1.1
			c0.5,0.5,0.9,1,1.2,1.4c1.3,0.4,2.7,0.8,4.1,1.2c1.6,0.5,3.2,1.1,4.6,1.7c1.9,0.2,3.8,0.4,5.7,0.7c0.7-0.8,1.5-1.5,2.2-2.3
			c0.1-0.9,0.2-1.9,0.3-2.8c0.3,0.3,0.5,0.5,0.8,0.8c0.2-0.2,0.5-0.4,0.7-0.6c-0.1-0.3-0.1-0.5-0.2-0.8c0.3-0.8,0.5-1.5,0.8-2.3
			c1.3-1.1,2.5-2.2,3.8-3.3c0.1-1,0.1-2.1,0.2-3.1c0.5-0.6,1.1-1.3,1.6-1.9c-0.4-1.1-0.8-2.2-1.2-3.3c0.7-1.3,1.5-2.5,2.2-3.8
			c1.2-0.6,2.3-1.1,3.5-1.7c0-1.3-0.1-2.6-0.1-3.9c1.4-0.6,2.8-1.3,4.2-1.9c-0.2-1.5-0.4-3-0.7-4.5c0.4-0.9,0.9-1.8,1.3-2.7
			c0.6-0.6,1.3-1.3,2.2-2.1c0.8-0.6,1.5-1.1,2.2-1.5c0.2,0,0.6-0.1,1,0.1c0.2,0.1,0.4,0.2,0.9,0.7c0.2,0.3,0.5,0.6,0.9,1
			c0.5-0.1,1.3-0.3,2.1-0.7c0.5-0.3,0.8-0.5,1.1-0.8c1.3-0.9,2.6-1.8,3.8-2.7c1-0.4,2-0.8,2.9-1.2c0.5-0.8,1.1-1.5,1.6-2.3
			c0.9-0.1,1.9-0.2,2.8-0.3c1.5-0.2,3-0.3,4.5-0.5c0.2-0.5,0.4-1.1,0.6-1.7c0.2-0.4,0.3-0.8,0.5-1.1c0.7-0.2,1.3-0.5,2-0.7
			c0.9-0.3,1.8-0.6,2.7-0.8c1.5-0.3,3-0.7,4.6-1c2.1-0.4,4.2-0.8,6.2-1.2c0.3-0.5,0.7-1.1,1-1.8c0.2-0.4,0.3-0.7,0.4-1
			c0.4-0.1,0.9-0.2,1.3-0.3c0.7-0.2,1.3-0.4,1.9-0.6c1.1-1.1,2.2-2.2,3.4-3.3c0.9-0.5,1.7-1.1,2.6-1.6c0.8-0.5,1.7-1,2.5-1.6
			c-0.4-0.4-1-0.8-1.6-1.3c-0.5-0.3-1-0.6-1.4-0.9c0.4-0.3,0.7-0.5,1.1-0.8c0.4-0.3,0.8-0.6,1.2-0.9c0.1-0.4,0.2-0.8,0.3-1.2
			c0.1-0.3,0.1-0.6,0.1-0.9c0-0.1,0.1-0.3,0.1-0.4c0-0.2,0.1-0.5,0.1-0.7c-0.7-0.6-1.7-1.2-2.9-1.8c-0.4-0.2-0.9-0.4-1.3-0.5
			c-0.1-0.3-0.1-0.5-0.2-0.7c-0.1-0.4-0.1-0.5,0-0.6c0.1-0.2,0.2-0.3,0.3-0.3c0.5-0.2,1.1-0.5,1.7-0.9c0.8-0.5,1.5-1,2.1-1.5
			c0-0.9-0.1-1.8-0.1-2.8c-0.1-1-0.1-1.9-0.2-2.9c-0.1-0.2-0.1-0.3-0.1-0.4c0-0.2-0.1-0.3-0.1-0.4c0-0.1,0-0.2,0-0.3
			c0-0.2,0-0.3,0-0.5c0-0.4,0-0.8,0-1.2c-0.1-0.3-0.1-0.7,0-1.2c0.1-0.5,0.3-0.9,0.4-1.1c0.1-0.2,0.3-0.5,0.4-0.8
			c0.2-0.5,0.3-0.9,0.4-1.3c-0.3-0.3-0.6-0.6-1-0.9c-0.3-0.3-0.5-0.6-0.7-0.8l-3.2-3.2l-3.9-3.9l-3.4-4.2l-1.3,1.3l-3.1-3.1
			l-2.6,0.8l-3,1.5l0.5,4.8l-0.7,4l-3.2,0.5v2.7l-3.3-0.8l-1.4,1.4l-0.2,3.1l-3.2-2.7v-2.8l2.7-1.8l0.5-2.3l-1.8-1.8l-4.4,1.4H360
			l-1.8,1.8l-5.2-5.2l-4.7-0.9l-5,2.2h-2.7l-3.8-3.5l2.5-0.8l1-3h3.2l-1.2-4.3H340l-5.3,1.7v3H333l-1.8-3.3h-3.7l-6.3-0.8l-3.5,0.7
			l-6.5-1.2l0.7,2.7l-4.2-2l-4.3,1v3l-4.2,2l-3.7-1.7l-3.8-1v-3.3l-1.3-4v-4.3l5.3-1.8l3.5,0.8l2.5,2.5l1.5-1.5l1-3v-6.1l-2.8-4.3
			l-3.8-3.8l-0.9-2.1h-2.9l0.7,4v4.2l-4.2,2.5v2.7l-4.3,2.2l-1.3,2.8v4.2l-3.3,4.8l-4,0.8l-2.9,2.9l-2.1,2.6v-3.7l2.3-2.3l-2.8-4.3
			l-1.9-1.9h-3.2l-4.5,1.4l-4-2.2l-4.8,1.8l-5.2-0.8l-0.2,5.8l-2.8,2.3l1.2,2.8l-1.4,1.4l-4.8-1.4l-1.8-3.8l-2.9-2.9l-0.9-4.9
			l-1-7.5h-2.9l-2.8,3v2.8l-0.3,3.7l2.2,2.2l-0.8,4.2l-4.2,3l-3.6-3.6l-3.4-3.4l2.4-4.2l-2.5-7.8l3.1-3.1l1.3-5.9l3.2-3.2l4.1-1.2
			l2.3-5.2l0.7-3.7l-2.4-2.4l1.8-1.8l-0.1-4.2l-0.7-3.7l1.6-1.6l1.1-2.9l2.3,2.3l-1.9,1.9l-0.8,3.8l2.3,1l1.2,6.2l2.2,3.7l1.2,3.3
			l1.5,3.5l3.2,3.2v4.5l3.1,3.1l4.9,2.8l4.5,1.7l5.2-1h4.7l4.4-4.4l2.9-5.1l0.7-6l0.2-3.7l-2.9-2.9l-0.1-5.1l-1-2.3l0.8-4.2v-4.8
			l-1.3-4.7l-2.8-2.8v-4.2l-2.4-1.2v-3.5l-2.2-2.2l-2.8-1.5v-3.2l-0.8-3.2l1.8-1.8l1.9,1.9l1.8,1.2l-0.8-3v-2.5l-4-0.2L258,191
			l0.7-3.5l-2.9,2l-2.3-2.3h-2.8l-4.8-1.8l-7,3.5l-5.3,2.7v9l-2.7,4.7h-8.5l-5.1,5.1l-0.4,3.1l-6.2,11.5l-2.8-1.3l-5.8,4.7l-2.7,0.2
			v5.7l-3,1.2v4.3l-4,3.2h-4.7l-1.2,11v4.3c-2.2,0.7-4.4,1.4-6.7,2.1c-7.6,0-15.3,0-22.9,0.1c-0.2,1.9-0.4,3.8-0.6,5.7
			c0.6,2,1.3,4,1.9,6c2,6.1,4.1,12.1,6.1,18.2c0.6,0.4,1.4,0.8,2.4,1.1C167.7,291.7,168.6,291.9,169.3,292z"/>
	</g>
</g>
<g>
	<path class="st1" d="M32.5,465.3l-0.1-0.1l-0.1-0.1c0,0,0,0-0.1,0c0,0,0,0,0,0.1c0,0,0,0.1,0.1,0.1
		C32.4,465.2,32.4,465.3,32.5,465.3c-0.1,0.1-0.1,0.1-0.1,0.1s0,0,0.1,0C32.5,465.4,32.6,465.4,32.5,465.3
		C32.6,465.3,32.6,465.3,32.5,465.3z"/>
	<path class="st1" d="M29.4,453.2C29.5,453.2,29.5,453.2,29.4,453.2c0-0.1-0.1-0.1-0.1-0.1s0,0.1-0.1,0.1h-0.1H29c0,0,0,0.1-0.1,0.1
		c0,0.1-0.1,0.1-0.1,0.2s-0.1,0.1-0.1,0.2v0.1h0.1l0.1-0.1c0,0,0.1,0,0.1-0.1c0,0,0-0.1-0.1-0.1v-0.1c0,0,0.1,0,0.1-0.1h0.1
		C29.4,453.4,29.4,453.3,29.4,453.2z"/>
	<path class="st1" d="M31.5,464.6C31.5,464.6,31.4,464.6,31.5,464.6c-0.1,0-0.1,0.1-0.2,0.1c0,0,0,0-0.1,0.1v0.1l-0.1,0.1
		c0,0,0,0,0,0.1v0.1c0,0,0,0.1,0.1,0.1h0.1c0.1,0,0.1,0,0-0.1c0,0-0.1-0.1,0-0.2c0,0,0.1,0,0.1-0.1c0,0,0-0.1,0.1-0.1h0.1
		C31.6,464.8,31.6,464.7,31.5,464.6C31.5,464.7,31.5,464.6,31.5,464.6z"/>
	<path class="st1" d="M28.9,453.4C28.9,453.3,28.9,453.3,28.9,453.4c0.1-0.1,0.1-0.1,0.1-0.1h0.1c0.1,0,0-0.2-0.1-0.1h-0.1
		c0,0-0.1,0-0.1,0.1c-0.1,0.1-0.1,0.1-0.1,0.2s0,0.1,0,0.2s-0.1,0.1-0.2,0.1c0,0.1,0,0.2,0.1,0.1c0.1,0,0.1-0.1,0.2-0.1
		c0-0.1,0-0.1,0.1-0.2C28.9,453.4,28.9,453.4,28.9,453.4z"/>
	<path class="st1" d="M23.4,452.6L23.4,452.6h-0.2c0,0-0.1,0-0.1-0.1H23c0,0-0.1-0.1-0.1,0h-0.1h-0.1h-0.1v-0.1c0,0-0.1,0-0.1,0.1
		s0,0.2,0,0.2s0,0.2,0.1,0.1c0,0,0.1,0,0.1-0.1c0.1,0,0,0,0.1,0c0,0.1,0.1-0.1,0.1-0.1c0.1,0,0.1,0,0.2,0.1s0.1,0.1,0.2,0.1
		C23.2,452.7,23.3,452.7,23.4,452.6L23.4,452.6z"/>
	<path class="st1" d="M23.7,454.9L23.7,454.9c-0.1-0.1-0.1-0.1-0.2-0.1l0.1-0.1c0,0,0,0-0.1,0h-0.1h-0.1c0,0,0,0,0-0.1
		s-0.1-0.1-0.1,0s0,0.1,0,0.2s0,0.1,0,0.2s0,0.1,0.1,0.2c0,0,0.1,0.1,0.2,0.1s0.1-0.1,0.1-0.2V455C23.6,455,23.7,455,23.7,454.9
		c0,0.1,0,0.2,0.1,0.2S23.8,455,23.7,454.9C23.8,455,23.7,454.9,23.7,454.9z"/>
	<path class="st1" d="M28.7,452.6L28.7,452.6c0-0.1,0-0.1,0-0.2v-0.1c0,0,0,0,0-0.1v-0.1c-0.1,0-0.1,0.2-0.2,0.2v0.1
		c0,0,0,0.1,0.1,0.1C28.7,452.7,28.7,452.7,28.7,452.6z"/>
	<path class="st1" d="M31.9,462.4c-0.1,0-0.1,0-0.2,0c0,0,0,0-0.1,0c0,0-0.1,0-0.1,0.1s-0.1,0.1,0,0.2c0.1,0,0.1,0,0.2,0
		s0.1,0,0.2,0s0.1-0.1,0.1-0.1S32.1,462.4,31.9,462.4C32,462.2,32,462.4,31.9,462.4z"/>
	<path class="st6" d="M117.1,451.7c-0.9-1.3-1.7-2.6-2.6-3.9c-0.2-0.8-0.4-1.7-0.6-2.5c-1.5,0.1-3.1,0.2-4.6,0.4l-1.5,1.5h-2.3
		l-1.2-1.6h-2.9v-2.1l-1.3-1.3l-1.3,1.7l-1.2,2.8l-6.2,0.7l0.2,2.7l-2.3-0.3l-2.3,2.3l0.6,3.7l-2.5,1.5l-3.8,3.6l-3.9-4.4l-2.7-2.9
		l-2.8,1.2l-3.2-1.3l-3.7,1.6l-2.5,2.7l2,0.7l1.8,1.8l2.8,0.7l2,1.5l-0.7,3l-2.8-1.2l-3.8-0.6l-2.3-1l-1.5,1.5l-2-1.8l-1.8-1.3
		l-2-0.3l-0.7,2.2l1.3,2.5l-0.6,4.2l-2.5-0.8h-2l-3.8,0.1l-2.8,1.2l-1.2,2.5l-2.5-0.8l-2.7-3.3l-2,0.3l-1.8,1.8l0.8,3.3l-1,3
		l1.3,2.7l2,1.8l-0.4,5l1.7,2.5l1.3,2.8l0.6,5.7l-0.6,7.7l1.2,4l2.2-0.3l1.7,2.3l1.3,1.7l1.8,0.3l0.8,3.3l2.4,3.8l1.1,4l3.7,2.6
		l2.5,1.2l1.4,3.8l2.8,2.3l-0.7,3.3l2.3,2.2l0.6,5.3l2.3,2.3l3.7,0.6l2.1,2.1l0.6,1.8l2.8,0.3l0.8,3l2.5,2.7l-1,2.8l-1.5,2.5l2.3,3
		l1.3,3.5v2.2l2.7,1.8l0.2,4l1.7,5.5l0.5,3.2l3.7,0.9l3.8-1.2l2.7,1.2l4-1.7l-0.2-5.3l0.8-4.3l-0.9-5.7l0.1-4.7l3.8-5.9l1.7-1.5
		v-1.2l1.9-1.9l0.8-2.9l0.8-3.2l-1-3.2l-1.8-1.8v-3c0.8-0.7,1.7-1.3,2.5-2c0-0.9,0-1.8,0.1-2.7c-0.2-0.8-0.3-1.5-0.5-2.3
		c-0.6-0.3-1.2-0.5-1.8-0.8c-0.3-0.6-0.7-1.2-1-1.8c-0.7-0.6-1.4-1.2-2.2-1.8c0-1.2,0-2.3,0.1-3.5c-0.4-0.7-0.8-1.5-1.2-2.2
		c-0.4-0.8-0.8-1.7-1.2-2.5c-0.4-0.6-0.7-1.2-1.1-1.8c-0.1-0.7-0.2-1.4-0.3-2.2c-0.5-0.5-1-1-1.6-1.6c-0.5-0.5-1-1.1-1.4-1.6
		c-0.3-0.7-0.7-1.4-1-2.1c0.2-0.7,0.4-1.5,0.7-2.2c-0.4-1-0.8-2-1.2-3c-0.6-0.5-1.2-1-1.8-1.4c-0.2-0.7-0.3-1.4-0.5-2.2
		c-0.7-0.5-1.3-1.1-2-1.6l-0.2-2.8l-1.9-0.8l-3,0.5l-1.3-1.3l-0.8-2.2l-1.4,0.5h-1.6l-0.8-2.2l-1.9-0.9c0.7-0.3,1.5-0.7,2.2-1
		c0.6,0.5,1.2,1,1.8,1.4c1,0,2.1,0,3.1,0.1c0.4-0.7,0.8-1.3,1.2-2c0-0.4,0.1-0.8,0.1-1.2c0.5,0,1,0,1.6,0c0.3,0.6,0.5,1.2,0.8,1.7
		v2.2l1.6,1.6l2.1,0.6l0.6,2.9l0.6,2.1l1.2,1.2c0.8,0.4,1.6,0.9,2.4,1.3c0.4-0.2,0.7-0.5,1.1-0.7c0.7,0,1.5,0.1,2.2,0.1
		c1.4-0.9,2.7-1.7,4.1-2.6c0.7-0.4,1.3-0.8,2-1.2c1.6-0.9,3.2-1.9,4.8-2.8c0.2-1,0.4-2.1,0.6-3.1c-0.1-0.8-0.3-1.6-0.4-2.4
		c-0.7-0.1-1.4-0.1-2.1-0.2c-0.4-0.2-0.7-0.4-1.1-0.7c-0.3-0.7-0.7-1.4-1-2.2c-1.1-1.1-2.2-2.2-3.3-3.3c-0.3-0.9-0.5-1.8-0.8-2.7
		c0.3-0.8,0.7-1.7,1-2.5c-0.1-1.1-0.1-2.3-0.2-3.4c-0.7-0.9-1.4-1.9-2.2-2.8c0.4-0.5,0.9-1,1.3-1.6c0-0.6,0-1.1,0.1-1.7
		c0.8-0.1,1.5-0.3,2.3-0.4c0.6,0.5,1.1,1,1.7,1.5c1.3-0.3,2.6-0.6,3.8-0.8c1.3-1.8,2.6-3.6,3.8-5.3c-0.6-1.7-1.3-3.4-1.9-5.1
		c1.4-1.2,2.8-2.4,4.2-3.6C116.4,454.7,116.7,453.2,117.1,451.7z"/>
	<path class="st1" d="M33.1,465.2c0.1,0,0.1-0.1,0.2-0.1c0.1,0,0.1,0,0.2,0c0,0,0.1,0.1,0.2,0.1c0.1,0,0-0.1,0.1-0.2s0.2-0.1,0.2,0
		l0.1,0.1c0,0.1,0,0.1,0.1,0.1c0,0.1,0.1,0.2,0.2,0.2c0,0,0.1,0,0.1-0.1l0.1-0.1c0-0.1,0-0.1,0.1-0.2v-0.1v-0.1c0,0,0,0-0.1,0h-0.1
		c-0.1,0-0.1-0.1-0.1-0.1c0-0.1,0.1-0.2,0-0.3c-0.1,0-0.1-0.1-0.2-0.1c-0.1,0-0.1-0.1-0.1-0.2s0-0.2-0.1-0.2c0,0-0.1,0-0.2-0.1
		c-0.1,0,0.1-0.1,0.1-0.1c0.1,0-0.1-0.2-0.2-0.2c-0.1-0.1-0.2-0.2-0.3-0.3l-0.1-0.1c0,0-0.1,0-0.2,0c-0.1,0-0.1,0-0.2,0h-0.1
		c-0.1,0-0.1,0.1-0.2,0.1c0,0-0.1,0-0.2,0c-0.1-0.1-0.2-0.2-0.2-0.3v-0.1v-0.1c0-0.1,0-0.1,0-0.2s0-0.1,0-0.2c0,0,0-0.1,0.1-0.1h0.1
		c0.1,0,0.1-0.1,0-0.2c0,0,0-0.1-0.1-0.1h-0.1h-0.1c0,0-0.1,0-0.1,0.1c0,0-0.1,0.1-0.2,0.1h-0.1h-0.1h-0.1h-0.1h-0.1h-0.1
		c-0.1,0-0.1,0-0.2-0.1s-0.2-0.1-0.2-0.2c0,0-0.1,0-0.2-0.1s-0.3-0.1-0.4-0.2s-0.1-0.3-0.1-0.4V461v-0.1c0-0.1,0-0.1,0-0.2
		s0-0.3,0-0.4c0-0.2,0.1-0.3,0.1-0.5c0-0.1,0.1-0.3,0.1-0.4s0-0.1,0-0.2s0-0.1,0.1-0.2c0-0.1,0-0.3,0.1-0.4c0-0.1,0.1-0.3,0.1-0.4
		s0.1-0.1,0.1-0.2v-0.1v-0.1c0-0.1,0-0.1,0-0.2s0.1-0.1,0.1-0.2c0.1-0.1,0.1-0.2,0.1-0.4c0.1-0.1,0.2-0.3,0.2-0.4s0-0.1,0.1-0.2
		v-0.1c0,0,0,0,0-0.1c0,0-0.1,0-0.1-0.1L31,456l0,0l-0.1,0.1l-0.1,0.1c0,0-0.4,0.1-0.3,0.2c0,0,0.1,0,0.2,0c0,0,0.2-0.1,0.2,0
		c0.1,0.1,0,0.3-0.1,0.4s-0.1,0.2-0.2,0.4c0,0.1,0,0.1,0,0.2s-0.1,0.2-0.1,0.3c0,0-0.1,0.1-0.1,0.2s0,0.2,0,0.2
		c-0.1,0.1-0.1,0.3-0.1,0.4s-0.1,0.3-0.1,0.4c0,0.3-0.1,0.6-0.2,0.8c0,0.1-0.1,0.2-0.1,0.3c0,0-0.1,0.1,0,0.2c0,0.1,0,0.1,0,0.2
		s-0.1,0.1-0.1,0.2v0.1v0.1c0,0.1,0,0.1,0,0.2c0,0,0.1,0,0,0.1v0.1v0.1h-0.1c-0.1,0-0.2-0.1-0.3-0.1c-0.1,0,0-0.1,0-0.1V461v-0.1
		c0-0.1-0.1-0.1-0.1-0.2s-0.1-0.2-0.1-0.4c0-0.1,0-0.2-0.1-0.3l0,0l-0.1-0.1l0,0c0-0.1,0-0.1,0-0.2s0-0.2,0-0.2s0,0,0.1-0.1v-0.1
		c0-0.1,0-0.2,0-0.2c0.1,0,0.1,0,0.2,0s0.1,0.1,0.2,0.1s0.1,0,0.1-0.1s0.1-0.1,0.1-0.2c0.1-0.1,0.2-0.2,0.2-0.4c0-0.1,0-0.1,0.1-0.2
		c0-0.1,0-0.2,0-0.2V458v-0.1c0-0.1,0.1-0.1,0.1-0.2s-0.1-0.1-0.2-0.1c0,0,0,0,0-0.1v-0.1v-0.1v-0.1c0,0-0.1-0.1,0-0.1H30h0.1h0.1
		c-0.1,0-0.1-0.1-0.2-0.1h-0.1l0,0v-0.1c0,0,0-0.1-0.1-0.1c0,0-0.2-0.1-0.1-0.1h0.1h0.1c0.1-0.1,0.1-0.1,0.2-0.2l0.1-0.1
		c-0.1,0-0.1-0.1-0.2-0.1s-0.2,0-0.2-0.1c0,0,0,0,0-0.1h0.1c0.1,0,0.1-0.1,0.2-0.1h0.1l0.1,0.1l0,0l0,0l0.1-0.1c0,0,0.1,0,0.1-0.1
		v-0.1c-0.1,0-0.1,0-0.2,0s-0.1-0.1-0.2-0.1c0,0-0.1,0-0.1-0.1c0,0,0,0-0.1,0s-0.2,0-0.2,0c-0.1,0-0.1,0-0.2,0h-0.1l-0.1-0.1h-0.1
		h-0.1c0,0,0,0-0.1-0.1c0,0-0.1,0-0.1-0.1c0,0,0,0,0.1,0h0.1h0.1c0,0,0.1,0,0.1-0.1c0.1,0,0.1,0,0.2,0s0.1,0,0.2-0.1l0.2,0.1
		c0.1,0,0.1,0,0.2,0s0.2-0.1,0.3-0.1c0.1,0,0.1,0,0.1-0.1s0-0.1-0.1-0.2c0-0.1,0-0.2-0.1-0.2l-0.1,0.2c0,0.1,0,0.1-0.1,0.1
		s0-0.1-0.1-0.1s-0.1,0-0.2,0.1h-0.1c0,0-0.1,0-0.1-0.1s0-0.1,0.1-0.2c0.1,0,0.1-0.1,0.2-0.1c0-0.1-0.1-0.1-0.1-0.1
		c-0.1,0-0.1,0-0.1,0s-0.1,0-0.1,0.1l-0.1,0.1h-0.1c0,0,0-0.1,0.1-0.1l0.1-0.1h-0.1l0.1-0.1h-0.1c0,0-0.1,0,0,0s0.1-0.1,0.2-0.1
		c0,0,0,0,0.1,0h0.1H30c0,0,0-0.1,0.1-0.1V454v-0.1v-0.1l0.1,0.1v-0.1v-0.1c0,0,0-0.2-0.1-0.1c-0.1,0-0.1,0.1-0.2,0.1v-0.1v-0.1
		c0.1,0,0.1-0.1,0.2-0.1v-0.1H30h-0.1h-0.1c0,0-0.1,0-0.1-0.1c0,0,0-0.1,0.1-0.1s0.1,0,0.1-0.1s-0.1-0.1-0.1-0.2l0,0c0,0,0,0,0-0.1
		s0-0.1-0.1-0.2c0,0,0,0,0,0.1v0.1c0,0.1,0,0.2,0,0.2c0,0.1,0,0.1,0,0.2c-0.1,0.1-0.1,0.1-0.2,0.2c0,0.1-0.1,0-0.2,0l-0.2-0.1
		c0-0.1,0-0.1,0.1-0.2v-0.1v0.1c0,0.1,0.1,0,0.2,0v-0.1c0-0.1,0-0.3,0-0.4s0-0.1,0-0.2s0-0.1,0-0.2s-0.1-0.2-0.1-0.2
		c0-0.1-0.1,0-0.1,0c-0.1,0.1,0.2,0.3,0,0.3h-0.1v0.1c0,0.1-0.1,0.1-0.1,0c-0.1,0,0-0.1,0-0.2V452v-0.1h-0.1c0,0,0,0-0.1,0l0,0h-0.1
		l0,0l0,0c0,0,0,0,0.1,0h0.1c0,0,0-0.1,0-0.2s0-0.1,0.1-0.2h0.1c0,0,0-0.1,0.1-0.1c0,0,0,0,0-0.1v-0.1v-0.1h-0.1
		c-0.1,0.1-0.1,0.1-0.2,0.2h-0.1v-0.1c0-0.1,0-0.2,0-0.2c0-0.1,0-0.1,0.1-0.2c0-0.1,0.1-0.1,0.1-0.2c0,0,0,0,0-0.1l0,0
		c0,0-0.1-0.1-0.2-0.1s-0.1,0-0.2,0h-0.1c0,0,0,0-0.1,0l0,0c0,0.1-0.1,0.1-0.1,0.2s0,0.1-0.1,0.2c0,0,0,0.1-0.1,0.1H28
		c-0.1,0-0.1,0.1-0.2,0.1c0,0,0,0,0,0.1v0.1c0,0,0,0-0.1,0h-0.1v0.1v0.1c0,0.1-0.1,0-0.2,0c0,0-0.1,0-0.1,0.1h0.1
		c0.1,0,0.1,0,0.2,0.1c0,0.1,0.1,0.1,0.1,0.2s0.1,0.1,0.1,0.2c0,0,0,0.2-0.1,0.1l-0.1-0.1h-0.1c0,0,0,0-0.1-0.1h-0.1
		c-0.1,0.1-0.2,0.3-0.3,0.2c0-0.1,0-0.1,0-0.2s-0.1-0.1-0.1-0.1l-0.2-0.1c-0.1,0-0.1,0.1-0.2,0c-0.1,0-0.1-0.1-0.1-0.2v-0.1l0,0
		c0,0,0,0-0.1,0l-0.1-0.1c0,0-0.1,0-0.1-0.1c-0.1,0-0.1,0-0.2,0s-0.3,0-0.4-0.1c-0.1,0-0.1,0-0.2-0.1c-0.1,0-0.1,0-0.2-0.1
		c-0.1,0-0.1-0.1-0.1-0.2s-0.1-0.1,0-0.2v-0.1l0,0c0,0,0,0-0.1,0s-0.1,0.1-0.1,0.2v0.1c0,0-0.1,0-0.1-0.1c-0.1,0-0.1-0.1-0.2-0.1
		c-0.3-0.1-0.6-0.2-0.8-0.3c0,0-0.1,0-0.1-0.1c-0.1,0-0.1,0-0.2-0.1c-0.1,0-0.1,0-0.2,0s-0.1,0-0.2,0s0,0.1-0.1,0.1c0,0-0.1,0-0.2,0
		c0,0,0-0.1-0.1-0.1v-0.1c0,0,0-0.1-0.1-0.1h-0.1c-0.1,0-0.1,0-0.2,0s-0.1-0.1-0.2-0.1s-0.1-0.1-0.2-0.1s-0.1,0-0.2,0
		s-0.3-0.1-0.4-0.1s-0.2,0-0.3,0s-0.1,0-0.2,0.1c-0.1,0,0,0.1-0.1,0.2c0,0.1-0.1,0.1-0.1,0.1c0,0.1,0,0.1,0.1,0.2c0,0.1,0,0.1,0,0.2
		s0.1,0.1,0.1,0.2c0,0,0,0.1,0.1,0.2c0.1,0,0.1,0,0.2,0h0.1h0.1c0.1,0,0.1,0.1,0.2,0.1c0,0.1,0.1,0.1,0.1,0.2
		c0.1,0.1,0.2,0.2,0.2,0.3c0,0.1,0.1,0.2,0.1,0.2v0.1v0.1c0,0.1,0,0.2,0,0.2c0,0.1,0,0.1,0,0.2s0,0.1,0,0.2s0,0.2,0,0.2
		c0,0.1,0,0.1,0,0.2s0,0.1,0,0.2s0,0.1,0,0.2s0.1,0.1,0.1,0.2s0,0.1,0,0.2s0.1,0.1,0.1,0.1h0.1c0,0,0.1,0,0.1,0.1c0,0,0,0,0.1,0.1
		h0.1c0,0,0.1,0.1,0.1,0.2s0,0.1,0,0.2s0,0.2,0,0.2c0,0.1,0,0.1,0.1,0.2c0,0.1,0,0.1,0,0.2s0,0.1,0,0.2c-0.1,0.1-0.2,0.2-0.3,0.3
		c0,0,0,0-0.1,0.1v0.1c0,0.1-0.1,0.1-0.1,0.2s-0.1,0.1-0.1,0.2s-0.1,0.1-0.1,0.1c-0.1,0-0.1,0.1-0.2,0.1c0,0-0.1,0.1-0.2,0.1
		s-0.1-0.1-0.2-0.1c0,0-0.1,0-0.2,0s-0.1,0.1-0.2,0.1h-0.1c0,0,0,0.1-0.1,0.1c0,0.1-0.1,0.1-0.1,0.1c0,0.1-0.1,0.1-0.1,0.2
		s-0.1,0.1-0.2,0.1s-0.1,0-0.2,0s-0.1,0.1-0.1,0.1s0,0.1,0.1,0.1v0.1H20c0,0-0.1,0-0.1-0.1c0,0,0-0.1-0.1-0.1c0,0-0.1,0-0.1-0.1
		s-0.1-0.1-0.1-0.1s0-0.1-0.1-0.1s-0.1,0-0.1,0h-0.1h-0.1v-0.1l0,0l0,0c-0.1,0.1,0,0.3,0,0.4s0,0.1,0,0.2s0,0.1,0,0.2s0,0.1,0,0.2
		s0.1,0.1,0.2,0.1s0,0.1,0,0.2s0,0.1-0.1,0.2c0,0.1-0.1,0.1-0.1,0.1c0,0.1,0.1,0.1,0.1,0.2s0,0.1,0,0.2s0,0.1,0.1,0.2
		c0,0.1,0.1,0.1,0.1,0.2c0,0,0.1,0.1,0.2,0.1s0.1,0.2,0.2,0.3c0,0,0,0.1,0.1,0.1l0.1,0.1c0.1,0,0.1,0.1,0.2,0.1s0.1,0.1,0.2,0.1h0.1
		c0,0,0.1,0,0.1,0.1c0.1,0,0.1,0.1,0.1,0.1c0.1,0,0.1,0.1,0.2,0.1s0.3-0.1,0.4-0.1c0,0,0.1,0,0.1,0.1c0,0,0.1,0,0.1,0.1
		c0,0,0,0,0.1,0.1h0.1c0.1,0,0.1-0.1,0.2-0.1s0.1,0.1,0.1,0.1c0,0.1,0.1,0.1,0.2,0.1s0.1-0.1,0.2-0.1s0.1,0,0.2,0s0.2-0.1,0.2-0.1
		c0.1,0,0.1,0,0.2,0s0.1,0,0.2-0.1c0.1,0,0.1,0,0.2,0h0.1h0.1c0.1,0,0.1,0,0.2,0.1c0.1,0,0.1,0.1,0.1,0.1c0.1,0.1,0.3,0.2,0.4,0.3
		c0.1,0,0.1,0,0.2,0s0.1,0,0.2,0s0.1,0.1,0.2,0.1s0.1,0.1,0.1,0.1c0,0.1,0,0.1,0.1,0.2c0,0,0.2,0,0.2,0.1s0,0.1,0.1,0.2
		c0.1,0,0.1,0,0.2,0c0,0,0.1,0.1,0.2,0.1c0,0.1,0.1,0.1,0.1,0.2s0,0.2,0,0.2c0,0.1,0,0.1,0,0.2c0.1,0.1,0.3,0,0.4,0
		c0.1-0.1,0.2-0.2,0.4-0.2c0.1,0,0.1,0,0.2,0s0.1,0.1,0.2,0.1c0,0,0,0,0.1,0c0,0,0.1,0,0.1-0.1c0,0,0.1-0.1,0.2,0c0,0,0,0,0.1,0.1
		c0,0,0,0.1,0.1,0.1h0.1v0.1c0,0.1,0,0.2,0.1,0.2s0.1-0.1,0.1-0.2c0,0,0.1-0.1,0.2,0l0.1,0.1c0,0,0,0.1,0.1,0.1s0.1-0.1,0-0.1v-0.1
		l0.1-0.1c0.1-0.1,0.3-0.1,0.4,0c0.1,0,0.2,0,0.2,0.1c0.1,0,0.1,0,0.2,0s0.1,0.1,0.1,0.1c0,0.1,0.1,0.1,0.1,0.2
		c0.1,0.1,0.1,0.2,0.2,0.4c0,0.1,0,0.1,0.1,0.2c0,0.1,0,0.1,0,0.2s0,0.1,0,0.2c0,0,0,0,0,0.1v0.1c0,0.1,0,0.1-0.1,0.2
		c0,0.1-0.1,0.1,0,0.2c0,0.1,0.1,0.1,0.1,0.1c0.1,0,0.1,0.1,0.2,0.1c-0.1,0-0.1-0.1-0.1-0.1s0.1-0.2,0.1-0.1c0.1,0,0.1,0.1,0.1,0.2
		v0.1c0,0,0,0.1-0.1,0.1c0,0.1,0,0.1,0.1,0.2c0,0,0.1,0,0.2,0s0.1-0.1,0.2,0c0.1,0,0.1,0.1,0.2,0.1c0,0,0,0.1,0.1,0.1v0.1
		c0,0.1,0,0.1,0.1,0.2c0,0,0,0.1,0.1,0.1c0,0,0,0,0,0.1s0.1,0.1,0.1,0.2c0.1,0,0.1,0,0.2,0s0.1,0,0.2,0s0.1,0.1,0.1,0.2
		c0,0,0,0,0.1,0.1c0,0,0,0.1,0.1,0.1c0.1,0,0.1,0,0.2,0.1c0.1,0,0.1,0.1,0.2,0.1h0.1v-0.1c0-0.1,0-0.1,0-0.2c0,0,0-0.1,0.1-0.2
		s0.1-0.1,0.2-0.1c0.1,0,0.1-0.1,0.2-0.1C32.9,465.2,33,465.2,33.1,465.2z M23.2,452.7c-0.1,0-0.1-0.1-0.2-0.1
		c0-0.1-0.1-0.1-0.2-0.1l-0.1,0.1c0,0,0-0.1-0.1,0c0,0-0.1,0-0.1,0.1c-0.1,0-0.1-0.1-0.1-0.1c0-0.1,0-0.2,0-0.2s0-0.1,0.1-0.1v0.1
		h0.1h0.1h0.1h0.1H23c0,0,0.1,0,0.1,0.1h0.1h0.1l0,0C23.3,452.7,23.2,452.7,23.2,452.7z M23.8,455.1c-0.1,0-0.1-0.1-0.1-0.1h-0.1
		c0,0,0,0,0,0.1s0,0.1-0.1,0.2c0,0-0.2,0-0.2-0.1s-0.1-0.1-0.1-0.2s0-0.1,0-0.2s0-0.1,0-0.2s0.1-0.1,0.1,0c0,0,0,0,0,0.1
		c0,0,0,0,0.1,0h0.1c0,0,0,0,0.1,0l-0.1,0.1c0,0,0.1,0,0.2,0.1v0.1C23.7,455,23.8,455,23.8,455.1C23.8,455,23.9,455.1,23.8,455.1z
		 M28.6,452.5c0-0.1,0.1-0.2,0.2-0.2s0,0.1,0,0.1s0,0,0,0.1v0.1c0,0,0,0,0,0.1v0.1c0,0.1-0.1,0.1-0.1,0.1l-0.1-0.1
		C28.6,452.5,28.6,452.5,28.6,452.5z M28.8,453.7c0,0.1-0.1,0.1-0.2,0.1s-0.1-0.1-0.1-0.1c0-0.1,0.1-0.1,0.2-0.1c0-0.1,0-0.1,0-0.2
		s0.1-0.1,0.1-0.2c0,0,0-0.1,0.1-0.1H29c0.1,0,0.1,0.1,0.1,0.1H29c0,0-0.1,0-0.1,0.1c0,0,0,0-0.1,0.1l-0.1,0.1
		C28.8,453.5,28.9,453.6,28.8,453.7z M29.1,453.5v0.1c0,0,0,0.1,0.1,0.1c0,0,0,0.1-0.1,0.1c0,0-0.1,0-0.1,0.1c0,0,0,0-0.1,0v-0.1
		c0-0.1,0.1-0.1,0.1-0.2S29,453.5,29.1,453.5c-0.1-0.1,0-0.1,0-0.1s0,0,0.1,0h0.1c0,0,0-0.1,0.1-0.1h0.1v0.1c0,0.1-0.1,0.1-0.1,0.1
		C29.3,453.4,29.2,453.4,29.1,453.5C29.2,453.4,29.2,453.4,29.1,453.5z M31.5,464.8L31.5,464.8c-0.1,0-0.1,0-0.2,0.1
		c0,0,0,0-0.1,0.1c-0.1,0,0,0.1,0,0.2c0.1,0.1,0,0.1,0,0.1h-0.1l-0.1-0.1v-0.1V465c0,0,0.1,0,0.1-0.1v-0.1c0,0,0,0,0.1-0.1l0.1-0.1
		h0.1C31.5,464.6,31.5,464.7,31.5,464.8C31.6,464.7,31.6,464.8,31.5,464.8z M32,462.4c0,0,0,0.1-0.1,0.1s-0.1,0-0.2,0s-0.1,0-0.2,0
		s-0.1-0.1,0-0.2c0,0,0-0.1,0.1-0.1c0,0,0,0,0.1,0s0.1,0.1,0.2,0c0.1,0,0.1-0.1,0.1-0.1C32.1,462.2,32,462.4,32,462.4z M32.5,465.4
		C32.5,465.4,32.4,465.4,32.5,465.4c-0.1-0.1-0.1-0.1-0.1-0.1c0-0.1-0.1-0.1-0.1-0.1l-0.1-0.1V465c0,0,0,0,0.1,0l0.1,0.1l0.1,0.1
		C32.5,465.2,32.6,465.2,32.5,465.4C32.6,465.4,32.5,465.4,32.5,465.4z"/>
</g>
</svg>
