<?xml version="1.0" encoding="utf-8"?>
<!-- Generator: Adobe Illustrator 27.8.1, SVG Export Plug-In . SVG Version: 6.00 Build 0)  -->
<svg version="1.1"
	 id="svg2" xmlns:cc="http://web.resource.org/cc/" xmlns:svg="http://www.w3.org/2000/svg" xmlns:rdf="http://www.w3.org/1999/02/22-rdf-syntax-ns#" xmlns:dc="http://purl.org/dc/elements/1.1/"
	 xmlns="http://www.w3.org/2000/svg" xmlns:xlink="http://www.w3.org/1999/xlink" x="0px" y="0px" viewBox="0 0 1092 630.1"
	 style="enable-background:new 0 0 1092 630.1;" xml:space="preserve">
<style type="text/css">
	.st0{fill:#808080;stroke:#808080;}
</style>
<g>
	<polygon class="st0" points="590.7,185.2 589.3,184.5 588.7,185.4 590.1,186.3 	"/>
	<polygon class="st0" points="584.9,174 586.6,173.6 586.1,171.6 584.5,172 582.8,171 581.3,171.9 583.4,173 	"/>
	<polygon class="st0" points="564.2,177.5 565.9,176.4 569.7,174.5 572.7,174.2 576.5,171.3 578.3,167.8 577.1,164.8 575.7,162.5 
		573.9,163.3 572.1,160.1 570.7,158.7 569.1,160.7 568,163.6 568,161.5 568.1,157.7 567.1,155.6 565.6,155.7 563.5,158.3 
		563.6,160.6 562.7,162.1 563.3,166.2 561.5,168 561.6,172 560.7,175.5 560,179 561.3,179.8 	"/>
	<path class="st0" d="M545.8,146.7c-0.5,0.2-2.7,0.9-2.7,0.9l-1.1,2.3l-0.6,2l-1.4,1.7l0.5,2l-2.6,2l1.2,1.1l1.8-0.6l1.5,2.1l0.2,2
		l1.4,1.7l3.5,0.3l0.5,2l2.4-1.5l1.2,2l3.3,1.2l3.2-1.5l1.5-2.1l-1.2-2.4l-2-2.7l1.5-1.1l0.6-2.6l-0.8-2.9l0.3-2.9l-3.6-2l-1.4,1.7
		l-1.2,2.3l-1.1-0.5l0.8-2.9V145l0,0l-3.3,1.1C548.2,146.1,546.2,146.6,545.8,146.7z"/>
	<polygon class="st0" points="548.2,195.9 550,197.3 551.8,195.5 551.7,193.7 550.1,195.5 	"/>
	<polygon class="st0" points="528.1,193.2 526.4,193.1 525.6,194.3 526.7,195.2 	"/>
	<path class="st0" d="M509.8,237.4c0-0.3,1.4-0.6,1.4-0.6l-0.3-2.3l-1.8,0.9C509,235.4,509.8,237.7,509.8,237.4z"/>
	<polygon class="st0" points="498.6,223.8 497.8,220.9 496.1,222.3 497.1,224.1 	"/>
	<polygon class="st0" points="497.2,240.7 496.9,242.4 499.5,242.4 500.8,243.7 501,241.5 499.5,241.2 	"/>
	<polygon class="st0" points="490.2,153.7 490.7,152.2 488.4,151 487.5,151.9 488.6,152.5 	"/>
	<polygon class="st0" points="479.8,261 481.3,259.3 481.9,257.4 480.6,256 479.2,256.4 478.1,257.8 478.8,259.6 	"/>
	<polygon class="st0" points="502,133.2 503,132.2 501.1,131.4 499.9,131.7 499.1,132.5 500.3,133.8 	"/>
	<polygon class="st0" points="530.5,131.9 532.4,130.1 532.4,128.8 529.8,128.9 528.7,130.1 529.5,130.9 	"/>
	<polygon class="st0" points="536.4,146.2 539.3,148.7 541.9,146.2 543.7,146.2 546.3,144.7 549.4,143.7 548.5,140.7 548.5,136.9 
		550.4,135.3 548.8,133.8 545.7,130.6 544.5,128.1 541.8,127.3 541.4,129.8 539.1,130.8 535.8,133.1 535.8,136.2 537.1,137.6 
		535.3,139.4 534.1,141.7 535.8,143.9 	"/>
	<polygon class="st0" points="535.4,153.1 536.5,154.2 538.2,152.5 539.1,150.1 537.5,148.8 534.4,148.1 532.3,147.8 532.7,150.6 
		532.7,152.3 	"/>
	<polygon class="st0" points="503,213.3 501,212.1 500.2,212.9 501.3,213.8 	"/>
	<path class="st0" d="M788.4,479.7h-0.2l-0.8-3.6l-1.4-2.2l2.5-1.5v-0.9h-1.1l-2.2-2.4l-1.8-0.2v-0.3h-0.3l0.4-4.2l-1.1-1.9l-1.1-3
		l-2.5-1.2l-1.9,2.7l-2-0.8V460l-0.2-0.1l-0.2-2.7l-1.1-1.1l-2-0.5l-2,2l-1,2.5l-3.4-0.9l-0.1-0.3h-0.1l-1.1-2.1l2-2.5l-1-1.6
		l-2.2,0.8l-2.9-0.8l-2-2v-0.1l-0.2-0.2v-1.8l-2.5-0.6v-0.2l-0.2-0.1V445l-2.3-0.7l-0.2-0.3l-2.4-3.1l-3.6-1.4v-0.2l-0.2-0.1
		l-0.8-3.7l-1.5-1.5l-0.3-0.3l0.6-1.8l-2.3-2.3l-2.2-2.2v-0.1l-0.1-0.1l-1.3-3.5l-2-0.2v-0.2H736v-2.4l-2.1-2.2l-1.8-1.8h-2.7v2.3
		l-2.3,2.3H727l-3.6-0.5v-2.4l-1.6-1.4v-3l-3.2-0.4l-3.7-1.8l-3.4,0.4h-0.1h-0.1l-3.4-0.5l-2,2.4l-1,3.3l-2.3,2.3l0.9,3.2l-1.2,3.7
		l-3.1,3.1v5.8l-4.4,3v3.4l-0.1-0.2v0.2l-1.9-2.6v-2.9l-2.2-2.2l-2,0.9l-0.5,2.7l-5.5,2.1H680l-1,3.1l-1.7,2.5l-3.6,0.3h-0.1l-4-4
		l-0.4-8.3l0.5-5V424l0.6-4.2v-4.1l-2.9-1.2l-2.1-0.7l-0.3-2l-1-2.3l-1.9-1.9v-2.4l1.3-1.3l0.4-3l-1.6-1.6h-2.4l-2.6-1.2V398
		l-0.1-0.1v-2.5l1-1l-0.9-0.9v-0.1l-0.1-0.1l-0.9-3.6l-2-3.5l-2.4-1.8l-2.8,0.8l-2.7,0.2v-0.2h-0.1V382l2.2-0.6v-2l-2.2-2.2v-0.1
		l-0.1-0.1l-0.1-1.8l-2.3-0.2l-1.8,1.8l-2.3-1l-3,1.1l-1.5-1.8h-1.6l-1.4,1.4h-2.7l-1.8-0.8v-0.1l-0.1-0.1v-3.3l1-1V369l-0.8-2.5
		l2-3.1l1.1-3.2l-3.2-3.2v-0.1l-0.1-0.1l-0.9-4.5l-2.8-1.5v-0.1l-0.1-0.1v-2.9l1.1-1l-0.9-0.9v-0.1l-0.5-0.5v-2.3l-2.6-1l-0.9,0.9
		l-0.3-0.9l-0.3,0.3l-0.9-2.8l1.6-1.6l1.7-2.7l2.5-0.7l-0.9-6.5l-0.7-4.2v-2.2l-2.9-5.3l-0.3-5.3l-2.4-1.6l-0.1-0.3l-0.4-0.3
		l-1.2-2.9l-0.9-2.2v-1.4l3.5-1.4l3.6-5.1l2.5-0.8l3.4,1l1-2.2V291l-1.4-1.4l-0.6-0.6l0.9-3.2l2.5-0.9v-2.6l-0.1-3.4l2.8-1.9
		l3.2-3.2l0.7-2.3h1.4l-0.2-2.8h-2.1l-0.3-0.6H635l-2.4-4.5v-4L631,258l-4.5-3.2v-0.2l-0.5-0.4v-1.4l-2.9-1l-0.2-0.5l-0.3-0.1
		l-1.2-2.5l0.6-3.3l-1.4-1.4l-1.5-2.2l-0.8-1.9l1.1-1.2l0.3-1.6l-0.7-0.6l-0.5-0.5l-0.4-2.9h-2l-2.5,0.2l0.2,2.7l-0.2,1.3l2,0.2
		l1.2,1.2l-1.6,3.1l-2.7,1l-2.8,2.3c0,0-0.5,3-2,3s-4.2,0.8-4.2,0.8l-3,1.8l0.7,3.3l-3,1.3l0.8-3l0.7-4.3l2.8-2.8l1.2-3.8l4-1l1-5.2
		l2.5-2.5l1-4.7v-1.7l3.3-4l1.9-1.9l1.6-3.2l1.7-2.3v-3.3l1.9-1.9l-2.1-3.6l-3.3-1.8l-1.3-1.3l3.3,0.7l0.3-3.5l-2.2-2.2l-1.8-1.8
		l-1.2,1.3l-2-1.7l-1.7-3.3l-1.9-1.9l-2.6,1.2l-1.9-1.9l-3.4,2.4h-3.3l-3.7,2l1.5,1.5l-0.8,2.8c0,0-2.7-1.2-3.7-1.2
		s-0.8-2.2-0.8-2.2l2.2-2.2l-2.4-2.4h-3.2l-1,1l-5.3-0.3l2.2-2.8l2.6-2.6l-0.8-3.4l-2.5,0.3l-3.3-2l-2.7,2.8l-3,2.2l-2.5,6.2
		l-0.8,2.7v4l1.3,1l0.3,2.8h-1.2l-3.8,1.2h-3.7l1,1.8l2,1.5l1.5,2l-3.3-0.7l-3.3,0.7l-0.5,2.7l-5.2-0.2l-2.1,2.1v-2.4l1.6-3l-3,0.5
		l-0.8,1.8l-3.7,0.5l-4.3,1l-1.7,1.7l3,1l-1,1.2l-4.5,1.3l-1.6,1.6l-6.2,0.9l-1.8,1.8l-4.6,1.8l-1.8,3.8l-4.7-0.2l0.2,2.5l2.3,0.2
		l-2.3,1.8l-1.7,2.3l1.4,1.4l-0.9,2.1l1.3,1.5l-2,0.5c0,0,0-2.5-1.2-1.2s-1.9,1.9-1.9,1.9l1.7,1.7l2,0.7l1.7,2.5l-1.7,1.7h-3.2
		l-4.3,1.8h-6.5v1l-4-1.5h-7.8l-3.3,3l0.8,4.2l1.3,1.3l-1.5,3.3l-1,4l1.3,1.3l2.3,3.8l3.2,1.2l-0.2,2.3l1.8,2.5l-0.7,2.7H490
		l-2.9-2.9l-1.1-1.1l1.2-3.3l-4.3-2.3l-2.2-2.2l-2.8,0.4l-3.3-0.7l0.1,0.6l0.3-0.4l0.2,1.8h1.3l0.1,0.2h0.2l0.7,1.8l1.2,1.2l2,0.4
		l2.3,1.2v0.1l0.2,0.1l0.6,2.2l-1.6,1.6l0.3,1.8l-3.2,0.5l-1.4,1.4l-0.9,0.9l0.8,1.8l0.6-0.8l0.2,0.5l0.1-0.1l0.9,1.8l3.4,1.9v0.1
		l0.3,0.1l-0.3,4v5.8h-3.6l-1.2,2l-2.5,2.5l-3,2.3l0.2,3.1l1.3,1.3l0.2,0.2l0.5,1.8l1.9,1.9l3.2,0.5v0.2h0.2l0.4,2.2l0.9,0.9l2-1.8
		c0,0,0.1,0.1,0.2,0.3l0.1-0.1l0.8,0.8c0.3-0.3,2-1.9,2-1.9v0.5l0.3-0.2l-0.1,3l2.4,0.5v0.2h0.2v2.6l1.6,3.8l-0.9,2.4h-1.2l1.3,2.5
		l-1.1,3.2l-1.8,1.8l-0.6,2l-2.3-0.5l-0.1,2.7l1.4,1.4l0.2,0.2l0.5,3l-1.4,2.5l1.5,1.5v2.2l3.5,2.1l0.1,0.1l0.2,0.1l1.4,2.9
		l-2.2,2.1v1.7l1.2,2v3l-1.5,1.2l1.7,3.1h1.8l0.2,0.2h0.1l2,2l1.5,3l0.3,3.8l-1.7,1.7l0.8,3.3l3.5,0.7l0.2,0.2h0.1l1.6,1.6l1.9-1.9
		l0.1,0.5l0.3-0.3l0.7,4l-0.7,3.5l1.2,2.7l-2.2,2.2l-2.4,3.1l-1.7,3.2l2.5,3.5v4.2l-2.4,2.4l-0.2,3.8l-1.4,1.4l-3.9,3.9l0.1,5.1
		l3.9,2.6l4.7,2.1v0.1l0.4,0.2l-2.5,4.1l-6,2.6l-3.8,3.8l1.9,3.9l1.3,2.8l-3,3l1,3.3l3.4,1.1l4.5-1.2h5.3l4,1l0.1,0.1l0.3,0.1l2,3
		l3.2,3.2l1,3.6l4.5-0.3l0.2,0.2h0.2l1.7,1.7l-2.8,3.2l-2.6,2.6l-1.6,4.2l2.5,4l0.8,2.6h2.5l4.5,1.5l0.3,0.1l0.5,3.8l-3.7,1.8
		l-2.2,3.8v5l-0.8,3.5l0.5,2.7l1.2,1.2l2,0.7l0.3,0.1l2,3.8v4.3l-2,0.8l-3,3l1.9,3.2l3.2,3.4l0.4,0.1l2.5,0.5l1.5-1.5l4.9,0.5
		l3.2-1.1l0.1,0.2l0.2-0.1l1,2l-1.1,4.5l3.4,3.4l1.1,4l3.5,3.5v3.2l1,2.7l-0.9,1.8l-0.4,1.5l-2.7,2.7l0.4,3.4l-2.7,2.7l-0.4,0.2
		l-0.1,0.1l-2.6,1.2l-1.4,3.5l-1.2,1.7l-0.3,0.2l-0.1,0.2l-3.1,1.7v3.6l-3.2,3.2l-3.2-0.2l-2.9-0.8l-1.5,1.5l0.5,3.9l1.1,3.5
		l3.4,3.4l3.1,2.9v0.1c0.1,0.2,0.2,0.4,0.2,0.6c-0.2,0.1-0.5,0.4-0.7,0.9s-0.2,1-0.1,1.2c0.1-0.1,0.1-0.1,0.1-0.1
		c0-0.1-0.5,0.1-1.4,0.4c-0.3,0.1-0.8,0.3-1.5,0.5c-1.2,0.4-1.4,0.3-1.5,0.5c-0.8,1,0.5,3.7,4.3,8.3l0.7-3.5h3.3l3.3-3.3l5.5-3.5
		h4.3l1.2-3.5h3.7l2.9-2.9l3.6,1.6l2.8,2.8l4.5-1.8l3.8,1.2l3.2,3.2l2.7,2.7l4.8,1.7l3.3,1l4.7-0.8l4.5,1.2h4.8h3.2l3.8-3.8l3.9-2.6
		v-4l-2.9-2.9V579l-2.1-2.5l0.7-4.3l2.2-2.2l2.1-4.2l2.6-2.6l1.9-1.9l3.8,2.8h6.5l3.2,3.2l4.8-1.2h4.2l4.3,1.7l3.1,3.1l2.4,5.1
		l2.6,2.6l4.1,1.8l6,0.5l4.2-1.2l4.3-1l3.9-3.9h4.8l7.7-1.1l2.3,1.5l5.8,0.8h6.3l2.3,2.3l1.3,2.5l4.5,1.5l5-0.7h6.8l4.8-1.5h5.3
		l2.1-2.1l4.1-4.1l5.3-2.5l3.8-2.7l2.9-2.9l1.4-4.9l6-6l4.2-1.8l3.2,1.2l3.5,1.8l4.7-2.7l3.3-2l4.5,0.8l6.2,0.5l5.5-2l3.2-3.2
		l2.2-5.2l3.5-1v-5l-1.5-1.5l-2.5-4.8l1.8-4.7v-4.9h-1.2l1-7.2l1.3-2.8l-1.3-5.3l-2.3-2.3l-2.1-2.1l-2.6,2.1l-1.8-2.3l1.3-3.3
		l1.8-5.5l2.6-2.6l5.2-3.1l-2.4-4.2l-0.9-1.9C790.3,479.9,789.3,479.8,788.4,479.7z"/>
</g>
</svg>
