<?xml version="1.0" encoding="utf-8"?>
<!-- Generator: Adobe Illustrator 27.8.1, SVG Export Plug-In . SVG Version: 6.00 Build 0)  -->
<svg version="1.1"
	 id="svg2" xmlns:cc="http://web.resource.org/cc/" xmlns:svg="http://www.w3.org/2000/svg" xmlns:rdf="http://www.w3.org/1999/02/22-rdf-syntax-ns#" xmlns:dc="http://purl.org/dc/elements/1.1/"
	 xmlns="http://www.w3.org/2000/svg" xmlns:xlink="http://www.w3.org/1999/xlink" x="0px" y="0px" viewBox="0 0 1092 630.1"
	 style="enable-background:new 0 0 1092 630.1;" xml:space="preserve">
<style type="text/css">
	.st0{fill:none;}
	.st1{fill:#808080;stroke:#808080;}
</style>
<path class="st0" d="M148,319.9l-1.3-1.3C146.7,318.6,147.5,319.9,148,319.9z"/>
<polygon class="st0" points="163,327.1 164.7,327.9 161.7,326.4 "/>
<polygon class="st0" points="142.6,317.6 140.8,319.4 138,319.4 136.6,320.8 134.6,320.6 136.7,320.9 138.1,319.5 140.9,319.5 
	142.7,317.7 144.9,317.7 146.7,318.6 144.8,317.6 "/>
<polygon class="st0" points="163.4,323.2 163.2,323 162.8,325.2 161.7,326.4 163,325.7 "/>
<path class="st1" d="M355.6,488.6l-6.2-3.8l0.1-0.5l-0.6-0.4l0.5-2.3l-1.7-0.2l-0.4-0.8h-0.1c-0.2-0.5-0.4-1-0.6-1.5
	c-0.9,0-1.8,0-2.8,0c-0.6-0.6-1.3-1.2-1.9-1.8l-2.6-0.5V476l-0.5-0.1v-3.1l-1.5-0.5l-2.8-4.1v-0.1l-0.5-0.8c0.8-1,1.6-2,2.4-3
	c0.5-0.7,1.1-1.3,1.6-2c-0.2-0.9-0.5-1.7-0.7-2.6c0.4-0.6,0.8-1.1,1.1-1.7c-0.1-1.1-0.2-2.2-0.4-3.4c1-0.9,2-1.8,3-2.7
	c0.7,0.3,1.4,0.5,2.1,0.8c0.6-0.7,1.2-1.4,1.8-2.1c0.9,0.3,1.7,0.6,2.6,0.9c1.1-0.6,2.2-1.1,3.3-1.7c0.1-1.1,0.2-2.2,0.3-3.3
	l-0.7-2.2l0.9-2.9l-1.3-1.3v-0.3l-0.5-0.5v-3.9l0.9-1.7l-1.3-1.3h-1.9v-0.7h-0.5l-0.1-2.6l-1.4-1.8l-2.8-1.5l-0.1-0.5l-0.4-0.2
	l-0.7-3.8l2-2c0,0,0.3-1.9,0.2-2.9l-1.9-1.9v-0.2c-0.3-0.3-0.5-0.5-0.5-0.5l0.9-3.4l-0.7-5.9c0,0,1.1-1.6,1.7-2.2
	c0.5-0.5,0.2-3.3,0-4.2l-1.6-1.6L341,396l-0.1-0.1l-2.1-4l-3.8-3.8l-2.2-2.2l-1.5-1l-1.3-1.3v-0.4l-0.4-0.3v-1.8
	c-0.6-0.4-1.2-0.7-1.7-1.1c-0.5,0.5-0.9,0.9-1.4,1.4c-0.3,0.8-0.6,1.6-0.8,2.4l-0.3-0.1l-0.1,0.2l-5.8-0.9l-4.2-1.6l-3.8-2l-3.9-2.6
	c-0.5,0-1,0-1.5,0c-0.3,0.7-0.6,1.3-0.9,2c-0.6,0.2-1.1,0.4-1.7,0.6l-0.4,0.1l-1.2-1.2c-0.5-0.2-1-0.4-1.5-0.5c-0.5,0.5-1,1-1.5,1.5
	c-0.1,0-0.1,0-0.2-0.1l-0.2,0.2l-2.9-1.1l-2.3,1.3l-0.1-0.1l-0.3,0.2l-2.4-2.4l-3.5-1.6l-1.8,0.7l-0.4,0.1l-1.8-2.1l0.4-2.1
	l-0.9-1.4c-0.6-0.3-1.3-0.5-1.9-0.8c-0.5,0.5-0.9,1-1.4,1.5l-0.1-0.1l-0.3,0.3c-0.4-0.4-0.8-0.8-1.2-1.2c-0.3,0.3-0.6,0.6-0.8,1
	l-0.2-0.1l-0.2,0.2c-1.1-0.6-2.1-1.1-3.2-1.7c-0.5,0.9-0.9,1.9-1.4,2.8c0.6,0.6,1.2,1.2,1.7,1.7v2l-2.5,1h-0.1h-0.1l1.6,1.6l3,1.4
	l2.2,2.3l1.9,1.5l-0.5,3l-2.8,2.3l-2.6,1l-3,3v2.7l1.7,1.7l-0.9,2.7v2.8l-3.6,2.3h-0.1h-2.9l-0.1-3.4h-0.1l-3.3,0.2l-3.9-3.8
	l-3.1,2.2l-1.9,3.2l-0.9,2.9l-2.1,2.2h-2.8l-1.7-1.7l-3,3.2v4.8l-2.8,2.8l-2,2c-0.9,1.4-1.7,2.9-2.6,4.3c1.1,0.4,2.3,0.7,3.4,1.1
	c0.6,0.6,1.3,1.3,1.9,1.9c1,0.4,2,0.8,3,1.2c0,0.7,0.1,1.4,0.1,2.1c0.7,0.1,1.4,0.2,2.1,0.3c0.3,0.6,0.5,1.2,0.8,1.8
	c0.5,0.5,1.1,1,1.6,1.4c-0.5,0.5-1.1,0.9-1.6,1.4c0.1,0.5,0.1,1,0.2,1.6c0.8,0.6,1.5,1.2,2.3,1.9c0.4,0.4,0.8,0.8,1.2,1.2
	c0.1,0.2,0.2,0.4,0.3,0.6c0,0.4,0,0.8,0,1.2c0,0.2,0,0.4,0,0.6c-1,0.6-2,1.1-3,1.7c-0.7,0-1.4,0-2.1-0.1c-0.5,0.4-1.1,0.7-1.6,1.1
	c-0.4-0.5-0.9-0.9-1.3-1.4c-0.8,0.5-1.7,1-2.5,1.5c0.3,0.8,0.5,1.6,0.8,2.3c0,0.1,0,0.3,0,0.4c0,0.3,0,0.6,0,0.9
	c0.3,0.3,0.7,0.7,1,1c0.2,0.1,0.4,0.1,0.6,0.2c-0.2,0-0.4,0-0.6,0c-0.4,0.4-0.8,0.9-1.2,1.3c-0.6,0.6-1.1,1.1-1.7,1.7
	c-0.7,0-1.4-0.1-2-0.1c-0.3,0.6-0.6,1.3-0.9,1.9c-0.2,0.6-0.5,1.1-0.7,1.7c-0.6,0.3-1.1,0.7-1.7,1c0-0.1-0.1-0.2-0.1-0.2
	c-0.3-0.4-0.9-1-1.7-1.3c-0.1,0-0.2-0.1-0.3-0.1c0.3-0.1,0.7-0.2,1-0.3c0.4-0.7,0.8-1.4,1.3-2.1c-1.1-0.9-2.3-1.8-3.4-2.7
	c-1.1,0-2.2-0.1-3.3-0.1c-0.3,1.5-0.7,2.9-1,4.4c-0.1,0.2-0.3,0.4-0.4,0.5c-0.7,0.8-1.5,1.7-2.7,2.5c-1.3,1-2.6,1.7-3.6,2.2
	c-0.7,1.7-1.4,3.5-2.1,5.2c-0.1,0.1-0.1,0.1-0.2,0.2c-1.3,0.2-2.6,0.3-3.9,0.5c-0.3,0.7-0.7,1.3-1,2c0,0.1-0.1,0.1-0.2,0.2
	c-0.2,0.2-0.5,0.3-0.6,0.3c-0.6-0.2-1.1-0.5-1.7-0.7c-1,0.7-2,1.4-3,2.1c-0.5,1.3-1,2.6-1.5,3.8c-0.1,0.1-0.1,0.2-0.2,0.3
	c-0.1,0.1-0.1,0.1-0.2,0.2c-1.9-0.1-3.9-0.3-5.8-0.4c0,0.7,0,1.4,0,2.2c0.1,0,0.2,0.1,0.3,0.2c0,0.1-0.1,0.3-0.4,0.3
	c0.5,1,1,2.1,1.5,3.1v3.2h2.3l4-0.7l2.2,2.2l1.2,2.8l4,1.5l2.5,3l0.7,4.5l1.7,4.3l1.3,2.8l-2,2v2.7h2.2l2-3.3l2.8,2.5l2,3.8l2.8,0.8
	l3.5-0.5l3.8-1.8l2.8,1.5l3.2,2.5l1.2,2.5l3.2-1.2h3.8l2.1,2.1v4.2l2.5,2.5l0.6,1.9l3.2,3.2h2.9l1.8-1.8h1.7l1.3,2.7l1.9,1.9
	l3.8-0.2h3.7l2.2-2.2l2.3-3.2l-2.3-2.3l-0.7-2.8l-1.6-1.6l-2.3-2.3l-0.9-2.1l1.3-3.5l3.3,0.8l2.8-0.8l1.2-3l-1.2-4.2l2.8-1.2
	l4.3-0.2l2.8,2.8h2.3l2.1-2.1l-2.2-2.2l-1.8-1.8l-1.8-1.2l2.3-2.3l-1.2-2.5l1.2-3.7h3.5l3.8,2l2.7,2.3l3-0.8l4.2,0.8l5.7-0.2
	l3.8,1.2h2.8l3.2,1.7l3.3-0.7l1.9-1.9h1.8l4.3,2.2h4.5l3.7-0.7l3,1.7l3.7-1h4.2l2-2.8l-0.1-0.7H356L355.6,488.6z"/>
</svg>
