<?xml version="1.0" encoding="utf-8"?>
<!-- Generator: Adobe Illustrator 27.8.1, SVG Export Plug-In . SVG Version: 6.00 Build 0)  -->
<svg version="1.1"
	 id="svg2" xmlns:cc="http://web.resource.org/cc/" xmlns:svg="http://www.w3.org/2000/svg" xmlns:rdf="http://www.w3.org/1999/02/22-rdf-syntax-ns#" xmlns:dc="http://purl.org/dc/elements/1.1/"
	 xmlns="http://www.w3.org/2000/svg" xmlns:xlink="http://www.w3.org/1999/xlink" x="0px" y="0px" viewBox="0 0 1092 630.1"
	 style="enable-background:new 0 0 1092 630.1;" xml:space="preserve">
<style type="text/css">
	.st0{fill:none;}
	.st1{fill:#808080;stroke:#808080;}
	.st2{fill:#808080;stroke:#808080;stroke-width:0.9588;}
</style>
<path class="st0" d="M148,319.9l-1.3-1.3C146.7,318.6,147.5,319.9,148,319.9z"/>
<polygon class="st0" points="142.6,317.6 140.8,319.4 138,319.4 136.6,320.8 134.6,320.6 136.7,320.9 138.1,319.5 140.9,319.5 
	142.7,317.7 144.9,317.7 146.7,318.6 144.8,317.6 "/>
<polygon class="st0" points="163.4,323.2 163.2,323 162.8,325.2 161.7,326.4 163,325.7 "/>
<g>
	<polygon class="st1" points="471.2,266.4 472.5,265.2 474.7,265.2 476.6,263.4 474.8,261.5 473,262 471.3,263.7 469.5,265.2 	"/>
	<polygon class="st1" points="467.1,247.8 468.9,246.6 471.2,247.2 470.6,245.8 467.5,245.2 466.2,246.4 	"/>
	<polygon class="st1" points="461,254.3 462.4,252.6 460.6,251.3 459.8,253.2 	"/>
	<polygon class="st1" points="442.4,246.7 445.2,247.5 447.7,246.3 449.2,246.4 449.2,244.9 446.8,244.3 448,242.9 446.7,241 
		445,241.6 444.4,241.4 442.7,242.6 443.4,244 442.1,245.7 	"/>
	<path class="st2" d="M524.8,591.9c0.2-0.2,0.5-0.5,0.7-0.7s0.3-0.4,0.5-0.5c0.7-0.3,1.4-0.6,2-0.9c0.3-0.8,0.5-1.7,0.8-2.5
		c-1.1-0.7-2.1-1.5-3.2-2.2l-3.8-3.8v-0.1l-0.4-0.4l-1.1-3.6c0.1-1,0.3-2.1,0.4-3.1c0.7-0.2,1.4-0.3,2.1-0.5
		c1.8,0.2,3.6,0.3,5.4,0.5c1.7-0.9,3.4-1.8,5.1-2.7c-0.4-1.3-0.7-2.6-1.1-3.9c0.5-0.1,0.9-0.2,1.4-0.2c-0.1-0.2-0.1-0.5-0.2-0.7
		c0.9-0.5,1.8-1.1,2.7-1.6c0.7-0.5,1.4-1,2.2-1.4c0-1-0.1-2-0.1-3c0.3-0.2,0.6-0.5,1-0.7c0.1-0.2,0.2-0.4,0.2-0.6
		c0.2-0.4,0.5-0.8,0.7-1.2c1.3-0.7,2.6-1.4,3.9-2.1c-0.6-1.3-1.1-2.6-1.7-3.9l2.7-2.7l0.9-1.7l0.6-1.9l-1-2.7v-3.2l-3.5-3.5l-1.1-4
		l-3.4-3.4l1.1-4.5l-0.9-1.8l-3,1l-4.9-0.5l-1.5,1.5l-2.9-0.6l-0.8-0.1l-3.2-3.4l-1.9-3.2l3-3l2-0.8l-0.2-4.8l-1.8-3.4l-2-0.7h-0.1
		l-0.3-0.1l-1.3-1.2l-0.5-2.7l0.8-3.5v-5l2.2-3.8l3.7-1.8l-0.5-3.8l-4.2-1.4h-2.8v-0.1h-0.3l-0.8-2.7l-2.5-4l1.6-4.2l5.4-5.8
		l-1.5-1.5l-4.6,0.3v-0.2h-0.3c0-1.4,0-2.9,0.1-4.3c-0.4-1.4-0.7-2.8-1.1-4.2c-1-1.1-1.9-2.3-2.9-3.4c-1.6-0.1-3.2-0.2-4.7-0.4
		c-2,0.1-4.1,0.3-6.1,0.4c-1.1,0.4-2.1,0.8-3.2,1.2c-1.2-0.1-2.4-0.3-3.6-0.4c-0.3-0.2-0.5-0.5-0.8-0.7c0.2-0.9,0.3-1.8,0.5-2.7
		c0.6-1,1.2-1.9,1.8-2.9c-0.7-2.2-1.5-4.4-2.2-6.6c0.9-1.1,1.8-2.2,2.6-3.3c2-0.8,4.1-1.7,6.1-2.5c1-1.6,1.9-3.3,2.9-4.9
		c-2-0.6-4-1.1-6-1.7l-4.2-2.8l-0.7-0.7l-0.1-5.1l3.9-3.9l1.4-1.4l0.2-3.8l2.4-2.4v-4.2l-2.5-3.5l1.7-3.2l2.4-3.1l2.2-2.2l-1.2-2.7
		l0.7-3.5l-0.6-3.5l-1.6,1.6l-0.3-0.3l-1.7-1.7l-3.7-0.8v-0.2l-0.3-0.1l-0.8-3.5l1.7-1.7l-0.3-3.8l-1.5-3l-1.8-1.8h-1.9l-0.1-0.2
		H491l-2-3.3l1.5-1.2v-3l-1.2-2v-1.5l2.3-2.1l-1.3-2.8l-3.5-2.1l-0.2-0.1v-2.3l-1.3-1.3l-0.2-0.2l1.4-2.5l-0.5-3l-1.4-1.4l-0.2-0.2
		l0.1-2.7l2.3,0.5l0.6-2l1.8-1.8l1.1-3.2l-1.3-2.5h1.2l0.9-2.4l-1.6-3.8V316l-2.4-0.5c0,0,0-2.1-0.1-2.9c-0.4,0.1-0.8,0.2-1.2,0.3
		c-0.1,0.2-0.3,0.3-0.4,0.5c-0.1,0.1-0.3,0.2-0.7,0.2c-0.2,0-0.3,0-0.4,0c-0.3,0-0.6-0.1-0.9-0.1s-0.5-0.1-0.8-0.1
		c-0.4-0.1-0.7-0.2-1.1-0.3c-0.3-0.4-0.5-0.8-0.8-1.2l-3-0.5l-2.1-2.1l-0.2-0.2l-0.5-1.8l-1.3-1.3l-0.2-0.2l-0.2-3.1l3-2.3l2.5-2.5
		l1.2-2h3.3V290l0.3-3.9l-3.3-1.9l-0.1-0.2l-0.2-0.1l-0.9-1.6l-0.7,0.7l-0.2-0.4l-0.1,0.1l-1-2.2l2.3-2.3l3.2-0.5l-0.3-1.8l1.6-1.6
		l-0.6-2.1l-2.1-1.1l-2.2-0.6h-0.1l-1.4-1.4l-0.6-1.6h-1.4v-0.2h-0.6l-0.1-1.4l-1.3,1.7l0.2,1.9l0.7,2.2l-2,1.8l-2.7-2.7l-1.7-1.7
		l-3.5,2.3l1.2,3.7l2.5,2.5v1.3l3,1.5l1.9,1.9l1.1,2.6v2l-2.8-2.7l-2.6-2.6l-2.6,1.6l-2-1.7l-3.5-2.7v-3v-4.2l3-3l0.7-4.3v-4.8
		l0.8-3.5h-2.7l-1.2,2.5l1.2,2.8l-1.3,3.5l-2,3.2h-3.5l-4.2,4.2l-2.7,2.7l2.4,2.4l-0.4,3.4l1,3.2l1.2,3.7l-3.3,3.3l-1.5,4.3
		l-2.3,3.7l0.5,5.3l-2,2l0.5,3.2h3l1.3,1.8l2.5-1.2l1.9-1.9l2.3,2.3l4.1,1.4l1.3,1.3l2.2,2l1.7,3.3l-1.2,2.7l1,3.2l-1,2.2l-2.7,0.8
		l0.3,3v2l1.4,1.4l3.8,1.1v2.3l-3.8-0.8l-3.3-3.3v-2.5l-0.2-4l2.7-2.7l-2-5.2l-1.6-1.6l-1.1-3.2l-3.8,0.5h-3.5l-2.2,2.2l-2.2,2.2
		l0.3,3.2l0.8,3.5l-1,4l-2.1,2.1l-2.6,2.6l-1.5,1.5v3.5l-3.3,1.8l-4.2,1.2l-1,1h-2.2c0,0-2.4,1.1-1.8,1.8c0.7,0.7-0.6,2.9-0.6,2.9
		h-3l-2-2.8l-2.8,0.2l-3.3-2.3l-2.5-1.2l-2.5-3.8v-3.2l2.5,0.8l1.8,1.8l2.8,1.8l2.5-1.7l4.2,0.8l2.3-1.3l2.5-3.7l4.3-4.3l3.7-1
		l0.7-6.2l3.7-2.8l0.5-2.7l-2.9-2.9l-1.2-4.4l1.3-3.2l1.8-6.3l1.2-7.2l3.3-5l0.8-4.5l1-5.7l-2.8-2.5l1.3-4.3l4.8-4.8l0.8-6.1
		l1.7-1.7l-1.5-5.7H448l-2-2h-4l-2-2.8l-3.2,1.7l-1.8,4l-1.7,4l-2.2,4.8l-2.8,2.8l-1.2,1.2l-3.6,1.8l-3.3,1.2l-1.8,2.3l-1.2,3.3
		l2.2,0.7v2.5l-1.5,2l-0.8,4v2.7l-3.3,1.7l-1.6,1.6l1.8,3.6l3.2,2.2l-0.7,4.7l1.8,4.3l2.7,0.8l-3.8,3.5v3.5l-3.3,2l-2.3-3.7V307
		l-2.8-3.8l-2.7-4.2l-3.9-3.9c-0.6-0.8-1.2-1.6-1.9-2.4c-0.7,1-1.2,1.6-1.5,2c-0.1,0.2-0.4,0.4-0.7,0.8c-0.3,0.3-0.6,0.6-0.7,0.8
		c-0.4,0.3-0.8,0.6-1.2,0.9c0.5,0.6,0.9,1,1.1,1.4c0.6,0.9,0.7,1.1,0.7,1.1c0.2,0.4,0.2,0.5,0.4,0.6c0.5,0.4,1.3,0.1,1.3,0.3
		c0,0,0,0.1-0.1,0.1c0,0.2,0,0.4,0,0.7c0,0.9,0,1.5,0,1.7c0,0.6-0.1,1.6,0,3.4c-0.2,0-0.4,0-0.7,0c-0.7-0.1-1.1-0.3-1.4-0.5
		c0,0.1-0.1,0.7-0.7,1.1c-0.3,0.2-0.7,0.3-0.8,0.3c-0.4,0.3-0.8,0.6-1.2,0.9c0.2,0.4,0.3,0.8,0.5,1.1c0.1,0.2,0.2,0.4,0.3,0.6
		c0,0.2-0.1,0.4-0.1,0.6s-0.1,0.3-0.1,0.5c0.5,0.4,1,0.7,1.6,1.1c0.7,0.4,1.3,0.8,1.9,1.1c-0.3,0-0.6-0.1-0.8-0.1
		c0.2,0.4,0.4,0.8,0.6,1.3c0.2,0.4,0.3,0.8,0.4,1.2c-0.3,0.2-0.8,0.4-1.2,0.6c-0.6,0.2-1.1,0.4-1.5,0.5c0.4,0.4,0.8,0.9,1.2,1.4
		c0.3,0.4,0.6,0.8,0.8,1.2c-0.5,0.3-1.1,0.7-2,1c-1.2,0.3-2.2,0.3-2.8,0.3c-0.4,0.7-0.9,1.4-1.4,2.2c-0.4,0.6-0.8,1.2-1.2,1.7
		c-0.3-0.1-0.6-0.2-1-0.3c-1-0.3-1.9-0.4-2.6-0.4c-0.1,1.4-0.2,2.1-0.4,2.5c0,0,0,0.1-0.1,0.3c-0.2,0.6-0.4,1-0.5,1.3
		c-0.6-0.1-1.2-0.1-1.9-0.1c-0.9,0-1.8,0.1-2.5,0.2c-0.9,0.1-2,0.2-3.1,0.4c-1,0.2-1.8,0.4-2.6,0.7c-0.2,0-0.4,0.1-0.7,0.2
		c-0.5,0.2-1.5,0.5-2.6,1.1c-0.6,0.4-1.5,1-2.4,1.8c0.1,0.4,0.1,1.1-0.1,1.9c-0.1,0.4-0.3,0.8-0.5,1.1c-0.9,0.2-1.8,0.4-2.7,0.6
		c-0.6,0.1-1.2,0.3-2,0.3c-0.9,0-1.6,0-2.2-0.1c-0.2,0.4-0.6,0.9-1.1,1.3c-0.4,0.4-0.9,0.7-1.2,0.9c-0.2,0.3-0.6,0.7-1.3,1
		c-0.7,0.4-1.4,0.4-1.7,0.4c-0.5,0.4-0.9,0.9-1.4,1.5c-0.6,0.8-1.2,1.5-1.6,2.2c-0.2,0-0.5,0-0.8,0c-0.5,0-0.9,0.1-1.3,0.2
		c-0.3,0-0.6,0-0.8,0.1c0-0.2-0.1-0.5,0-0.8c0.1-0.9,0.7-1.4,0.9-1.5c-0.4-0.1-0.9-0.3-1.3-0.4c-0.5-0.2-1.1-0.3-1.6-0.5
		c-0.2,0.3-0.4,0.6-0.7,0.9c-0.2,0.2-0.4,0.4-0.6,0.6s-0.4,0.4-0.7,0.6c-0.2,0.2-0.4,0.3-0.6,0.5s-0.5,0.4-0.8,0.7
		c-0.3,0.3-0.5,0.6-0.6,0.9c-0.3,0.3-0.5,0.6-0.8,0.8c-0.3,0.3-0.6,0.6-0.9,0.9c-0.2,0.3-0.4,0.7-0.6,1c-0.3,0.5-0.5,1-0.8,1.5
		c0.1,0.5,0.3,1,0.4,1.6c0.1,0.8,0.2,1.6,0.2,2.2c-0.5,0.2-1.1,0.5-1.7,0.8c-0.8,0.5-1.5,0.9-2.1,1.4c0,0.5,0,1.1-0.1,1.7
		c-0.1,0.7-0.1,1.3-0.2,1.8c-0.5,0.2-1.1,0.5-1.7,0.8s-1.2,0.7-1.8,1c-0.3,0.6-0.7,1.2-1,1.9c-0.4,0.7-0.7,1.4-1,2.1
		c0.1,0.5,0.2,0.9,0.3,1.4c0.1,0.6,0.2,1.1,0.3,1.6c-0.2,0.4-0.4,0.8-0.6,1.2c-0.3,0.5-0.5,0.9-0.8,1.3c0,0.4,0,0.8,0,1.2
		c0,0.4,0,0.8,0,1.2c-0.6,0.6-1.2,1.3-1.9,1.9c-0.9,0.8-1.8,1.6-2.6,2.3c-0.4,0.1-0.8,0.3-1.2,0.5c-0.8,0.4-1.4,1-1.9,1.4
		c0.1,0.3,0.3,0.5,0.5,0.8c0.1,0.2,0.2,0.3,0.4,0.5c0.1,0.3,0.2,0.6,0.4,0.9c0.1,0.2,0.1,0.4,0.2,0.6c0.6,1,1,1.5,1.3,1.9
		c0.1,0.1,0.3,0.4,0.5,0.8c0.2,0.3,0.3,0.6,0.4,0.8c0.4,0.2,0.7,0.4,0.9,0.5c0.4,0.3,0.4,0.3,0.8,0.6c0.5,0.3,0.6,0.3,0.8,0.6
		c0.2,0.2,0.4,0.4,0.7,0.8c0.6,0.6,1.2,1.3,2,2c1.1,1,2.3,1.8,3.2,2.3c0,0.1,0.2,0.5,0.7,0.8c0.2,0.1,0.4,0.2,0.5,0.2
		c0.1,0.3,0.3,0.5,0.4,0.8c0.3,0.5,1.1,1.8,2,2.8c0.5,0.6,0.9,0.9,1,1c0.4,0.3,0.7,0.6,0.9,0.7c0,0.1,0,0.1,0.1,0.2
		c0,0.1,0.1,0.2,0.1,0.3c0.1,0.1,0.1,0.3,0.2,0.4c0,1.3-0.1,2.7-0.1,4c-0.6,0.7-1.2,1.5-1.8,2.2c0.3,1.1,0.4,2,0.5,2.8
		c0.1,1.1,0.1,1.9,0,2.4c0,0.9-0.1,1.4-0.2,1.9s-0.5,1.3-1.2,2.1c0.8,0.7,1.6,1.4,2.4,2.1c0.2,0.1,0.3,0.3,0.5,0.4
		c0.1,0.1,0.3,0.2,0.4,0.3c-0.2,0.9-0.4,1.9-0.7,2.8c-0.9,0.7-1.9,1.3-2.8,2c0.4,0.4,0.9,1.1,1.2,2.1c0.3,0.8,0.4,1.5,0.4,2
		c0.9,0.4,1.9,0.8,2.8,1.2c0.3,0.2,0.7,0.6,1,1s0.6,0.7,0.7,1.1c0.1,0.1,0.2,0.3,0.3,0.5c0.1,0.1,0.1,0.3,0.1,0.4c0,0.3,0,0.6-0.1,1
		c-0.1,0.5-0.3,0.9-0.5,1.2c0.5,0.1,1.2,0.2,1.9,0.6c0.3,0.1,0.5,0.3,0.7,0.4c0.3,0.1,0.7,0.2,1.1,0.4c0.2,0.1,0.5,0.2,0.6,0.3
		c0,0.1-0.1,0.2-0.1,0.2c0,0.1-0.1,0.3-0.2,0.5c0,0-0.1,0.2-0.1,0.3c-0.2,0.4-1,1.1-1.1,1.2c0.2,0.2,0.7,0.9,0.8,1.9
		c0.1,0.8-0.2,1.4-0.4,1.7c0.2,0.1,0.4,0.3,0.7,0.5c0.1,0.1,0.3,0.3,0.5,0.5s0.6,0.6,0.9,1.3c0,0.3-0.1,0.7-0.2,1.1
		c-0.3,0.8-0.7,1.4-1,1.7c0.4,0.3,0.6,0.6,0.7,0.8c0.1,0.2,0.2,0.3,0.2,0.4c0.1,0.4,0.2,0.7,0.2,1c0,0.2,0.1,0.5,0,0.8
		c0,0.4-0.1,0.7-0.2,0.9c-0.1,0.4-0.2,0.7-0.4,1.1c-0.1,0.2-0.2,0.4-0.3,0.6c-0.2,0.2-0.5,0.5-1,0.7c-0.8,0.3-1.5,0.1-1.7,0
		c-1.1-0.5-2.2-1-3.3-1.6c-0.4,1-0.9,2.1-1.3,3.1c-0.8-0.2-1.7-0.4-2.5-0.6c-1.1,1.1-2.2,2.1-3.3,3.2c0.3,0.4,0.7,1.2,0.9,2.1
		c0.1,0.6,0.1,1.1,0,1.5c0,0.1,0,0.2-0.1,0.3c-0.1,0.2-0.2,0.3-0.3,0.3c-0.1,0.1-0.2,0.3-0.3,0.4c-0.3,0.3-0.6,0.5-0.8,0.5
		c0.3,0.3,0.7,0.7,1.1,1.4c0.3,0.6,0.4,1.1,0.5,1.5c-0.1-0.1-0.2-0.1-0.3-0.1c-0.2,0-0.3,0.3-0.5,0.6c-0.1,0.1-0.2,0.2-0.4,0.4
		c-0.2,0.2-0.5,0.5-0.9,0.8c-0.3,0.4-0.6,0.9-1,1.4s-0.8,0.9-1.2,1.2c0.3,0.3,0.6,0.6,0.9,1.1c0.2,0.4,0.4,0.7,0.5,1
		c0.1,0.1,0.5,0.4,0.6,1.1c0.1,0.5-0.1,1-0.1,1.1c0.1,0.3,0.3,0.5,0.4,0.5c0.2,0.1,0.4,0.2,0.5,0.3c0.2,0.1,0.4,0.1,0.5,0.1
		c0.4,0.1,0.9,0.1,1.3,0.2c-0.2,0.2-0.5,0.4-0.7,0.7c-0.5,1-1.1,2.1-1.6,3.1c1.1,0.2,2.2,0.3,3.4,0.4c0.4,0,0.7,0,1.1,0.1
		c0.1,0.2,0.1,0.4,0.2,0.6s0.2,0.4,0.3,0.6c0.1,0.2,0.2,0.4,0.4,0.5c0.4,0.4,0.9,0.5,1.1,0.5c0.3-0.1,0.9-0.3,1.6-0.1
		c0.5,0.1,0.8,0.3,1,0.5c0.2,0.1,0.5,0.2,0.7,0.4c0.1,0.1,0.3,0.2,0.4,0.2c0,0.1,0,0.2,0,0.2c0.1,0.3,0.4,0.5,0.4,0.6
		c0.2,0,0.6,0,1.1,0.3c0.2,0.1,0.3,0.2,0.4,0.3c-0.2,0.7-0.3,1.4-0.5,2.1c0.3,0.3,0.5,0.5,0.8,0.8c0.1,0.1,0.2,0.3,0.3,0.5
		c0.1,0.1,0.1,0.2,0.2,0.3c0.2,0.5,0.8,1.4,1.9,2.2c1.3,0.9,2.6,1,3.2,1.1c0,0.1,0.1,0.2,0.2,0.3c0.1,0.2,0.1,0.2,0.2,0.4
		c0,0.1,0.1,0.2,0.2,0.3c0.3,1.3,0.5,2.6,0.8,3.9c1.3,0,2.6-0.1,4-0.1l3.3,2h4.2l1.5,3h3l2.5,1.2l1.3,4.2l-0.8,2.3v3.2l-2.1,2.1
		l0.9,2.9l3.7,1l3.3-2l2.4,2.4l-1.1,3.9l3.3,1l1.8-1.8l3,1.8h3.3v2.3l-4,1.8l-1,4.5h2.8l3.5-1.7l1.8,2.7l4-2.2l4.7-1.3l2.8-2.8
		l2.6-0.1l3.5-0.2l2.5-2.5h3l0.8,2.3l-2,2.7h-2.3v3l2.8,1.2l2.1,2.1l1.9,4.1l1.8,1.8l2.8,2.8l2,6.7v5.5l2.7,2.5v4l2.8,5l0.8,4.3
		l1.2,3.8l2.2,4.3l3.7-0.7l1.8-3.8l2.7-0.8l1.8,2.2v2.5l1.8,1.8l2,2l3.7-0.7l1.7,1.7l4.2-0.7l2.1-2.1h4.2l2,2l3.1,1.4l2.3,2.2l0.7,4
		l2.8,1.8l1.3,3l3.5,2.2v4l4.5,1.2l4,1.3l4.3-1.7l2.6-2.6l0.9,3.4l1.8,3.3l1.5,2.5l4.8,0.8l2.2-2.2l4.2-2.3l5,0.2l2.8-2.8
		c1.5-0.4,2.9-0.8,4.4-1.2c-0.2-0.7-0.4-1.5-0.6-2.2c-0.1-0.9-0.2-1.8-0.3-2.7c-0.3-0.3-0.7-0.6-1-1
		C525.4,592.8,525.1,592.3,524.8,591.9z"/>
	<path class="st2" d="M328.5,379.6"/>
</g>
</svg>
