<?xml version="1.0" encoding="utf-8"?>
<!-- Generator: Adobe Illustrator 27.8.1, SVG Export Plug-In . SVG Version: 6.00 Build 0)  -->
<svg version="1.1"
	 id="svg2" xmlns:cc="http://web.resource.org/cc/" xmlns:svg="http://www.w3.org/2000/svg" xmlns:rdf="http://www.w3.org/1999/02/22-rdf-syntax-ns#" xmlns:dc="http://purl.org/dc/elements/1.1/"
	 xmlns="http://www.w3.org/2000/svg" xmlns:xlink="http://www.w3.org/1999/xlink" x="0px" y="0px" viewBox="0 0 1092 630.1"
	 style="enable-background:new 0 0 1092 630.1;" xml:space="preserve">
<style type="text/css">
	.st0{fill:#808080;stroke:#808080;}
</style>
<g>
	<path class="st0" d="M1015.8,452.7l-3.4-1.9l-1.9,1.9l-3.2-0.1l-1.3-2.7h-2.5l-2.2-2.2h-3.7l-2.5-1.6l-2.9-2.9l-1.9-1.9
		c0,0-0.6-4-0.1-4.5c0.4-0.4-1.9-3-1.9-3l-2.5-3.8v-1.7l0.6-2.2l-0.6-3h2.2l2.7-0.9l1.4-1.4l0.6-1.9l-4-1.6l-2.3-1.9l-3.6-2.2
		l-4.2-2.2l-3.2-2.7l-4.9-2.7l-3.6-3.2l-3.8-1.4l-2.7-0.7l-4.3-4.4l-2.2-2.2l-1.4-3.9l-1.7-2.5h-2l-4-2.6l-0.9-2.3l-3.6-0.7l-2-2
		l-1-2.3l-1.9-0.9l-3.7-1v2.2l0.9,2.5l1.2-0.3l2.8,1l1.9,1.9v1.1l1.9,1.9l-0.6,2.9l-3.3-1v2.2l-1,2.9l4,1.3l2,3.7l3.7,3.8v2.2
		l3.5,4.8l2.6,0.3l4.3,1.9l5.5,2.5l2,3.3l3.2,4.3l3.6,3.6l4.3,4.3l5.3,7.4l2.5,5.2l2.9,0.9l3,1.7l2.9,2.7l2.3,4.5l1.9,2.5l2.7,2.7
		l2.9,2.9v2.7l4.3,4l2.5,2.5l1.9,2.3l2.3-1.9l-1.8-4l-2.3-2.3l-0.7-2.9l1.2-3h3.7l1.7-1.7c0,0,3.9,1.9,4.6,1.9s0-1.7,0-1.7
		L1015.8,452.7z"/>
	<polygon class="st0" points="1056,458.1 1056.3,461 1057.5,461.4 1057.5,459.1 1058.4,457.3 1058.4,454.7 1055.5,455.1 	"/>
	<polygon class="st0" points="1065.4,458.1 1067.3,459.1 1067.3,457 1065.4,456.8 	"/>
	<polygon class="st0" points="1062.2,434 1059.8,433.3 1059.1,437.1 1060,438 1059.2,440.8 1059.5,445.2 1061.2,445.9 1061.8,443.6 
		1060.9,439 1062.5,437.4 	"/>
	<polygon class="st0" points="1063.1,426.8 1063.7,429.3 1064.8,427.6 1063.8,426.1 	"/>
	<polygon class="st0" points="1068.3,409.5 1067.8,406.9 1065.8,408.8 1065.3,411.3 1066.3,413.6 1065.6,417.3 1067.4,417.8 
		1068.4,415.4 1067.9,412.3 	"/>
	<polygon class="st0" points="1068.9,388.5 1068.9,386.9 1068.9,385 1067.4,385.2 1067.4,388.3 1067.4,390.9 1069.5,390.9 	"/>
	<path class="st0" d="M1049.8,316.9v-3.3l-0.8-4.5l-1.7-7l-0.7-5.3l-3.2-3l-4.3-4.3l-2.8-1.2l-1.7-6l1.3-3v-3l3.7-0.5v-2l-4.8-1.2
		l-1.4-1.4l-2.9-1.1l-3.3-5.2l-1.2-6.7l1.7-3.7l2.8-1.8l2-1.3l-1.2-3l-3.3-2.7l-5.7,0.7l-2.4-2.4l-3.1-0.8l-3.5-5.8l-1-4l3.3-1
		l1.3-3.2l-3.2-3.2h-2.8l-1.7,1.7l-4.3-1l-4.3-3l-0.8-3.8l-4.3-4.3l-1.2,2.5l-1.6,1.6v1.4l1.2,2.8h-4.7l-2.8-2.8l-4.6-2.4l-0.5-3.7
		l-0.7-4.7l-3.2-3.2l-2.3-2.3l-2-2l-2.5-4.2l1.8-1.8v-4.3h2l3.1-3.1l-3.1-1.4v-3.1l-1.8-4.8l2-0.2l2.3,2.3l3.2,1.5V181l-2.8-4.3
		v-2.5l1.3-4.7l-1.8-1.8l3.5-5l2.2-5l4.2-1.3l3,1.5l2.8-2.5l-1.8-1.8l-2.8-3.2l-1.7-6.7v-4.8l-3.2-2.8l-1.7-5.2l-0.8-5.3l-1.7-4
		l-1-4.7v-6l-1.2-5.3l-2.8-4.3l1.2-1.2l-3.9-2.6l1-1.5h3.5l2.2-4.7l3.3-1.3v-3.5l-2.4-2.4l-1.2-2.9l-2.7,2l-1.8-1.5l-2.2,0.3
		l-1.8,1.8h-2.9l-0.8,1.6h-3v-2.5l-3.7,0.2l-2,0.3l-2.5-0.2l-1,1.7L951,87l-3.6,0.1l-2,1.5v3.2l-2.2,0.8l-1.4-1.7l2.7-3.2h-1.8
		l-2.9,1.2l1.2-2.7l3.5-1.5h2.5l2.7-4.3l-0.7-3.8l-1.3-4.8l-2.8-2.8l-2.6-2.6l-1.5,1.5l-0.2-3.2h-2.5l-3.7,1l-2.2-2.2v-2.2l-2.9-0.5
		l1-1l1.5-0.7l-1.2-1.2l0.2-1.6l1.7,1l1.8,1.5h3.2l2.2-1.7l2.2,1.7l2.8-2.8v-4.2l-1.2-2.5l2.8-4.2h3.2l2.5,1l3.5-1.2l1.8-4l3.5-3.8
		l3.8-0.3l1.5-4.3l-2.8-0.8v-1.3h3.5l-1.2-2.7v-2.2l-1.8,2.3l-1.8,0.5l-2.2-3.3l-3.1-3.1v1.8l-3.9-1.5l-2,1.7l-3-0.5l3.8-2.5v-3.5
		c0,0,1-3,0-2s-3.5,1-3.5,1l1.8-3.8l-1.6-1.7l-2.2-1.8c0,0,1-3.8,0-2.8s-3.8,1.8-3.8,1.8l-3,4.2h-1.2l-4,1.5l-2.3,2.3l-1.7,2.3
		l-0.3,3l-1.8-0.2v1.5l2.7,0.7l-3.2,2.2l-1,3l3,0.8l4.7,0.3l4-0.8v2l-4,2.2l-2.2,2.2l-3.4-2.6l-3.8,1.2l-2.7-2.7l-2.3,1.3l-3.7,1.7
		l-3,3.2l-5.7,1.7l-3,4.3l-4.2,1.7l-3.4,3.4l-3.3,3.3l-3.7,2.1l-5,2.2l-2.6,2.6l-5.7,5.7l-5.1,4.9l-1.3,4.8l-2.8,4.2l-1,3l1,2.8H865
		l-2.7,1.5l-0.3,3.5l-3,1.5l-0.8,3.2v1.8h3.3l1,2.3l4.2-0.7l5.7,2.5l1.8,0.3l1,2.7l-0.8,2.7l-3.3,0.8l-3.7,1.7l-2.7,1h-3.9l-2.5-2.5
		l2.4-2.4l-3.2-3.2l-1.8,1.8l-1.8,3.3l2.3,3.3l-0.7,2l1.7,1.7l-1,4l-4.2,3v3.3l-2.2,2.2h-2.5l-1.5,2.8v5.5l-3,3.2v2.3l1.6,1.6h-3.2
		l-3,2.4L834,145l-4.7-4.7l-2.2-2.2l-4.6,0.2l-5.5,0.8l-3.2,3.8l-3.5,3.5l-4.2,6.2v4.8l-3.3,4.2l-3.2,3.2l-3.5,0.2l-3.2-1.7
		l-4.5,2.5c0,0,1,4.3,0.5,3.8s-3.2-3.3-3.2-3.3l-2.3,2.7h-3.6c0,0-2.2-0.8-1.2-1.8s2.5-3,2.5-3l-3-2.2l-5,2.2l-3.5,1.7l-1.5,4.2
		l-0.7,2.3l1,5.3v3.2l-2.8,2.7l0.8-6.5l-3.2-1l-2.5,2.5l-2.8,1.3l1.2-4.5c0,0,3.2-1.2,3.2-2.2s-0.7-1.7-0.7-1.7l-4.8,2.2l-6.2,2.3
		l-1.3,3.8l-4.7,2.3h-3.2l-2.2,2.2l3.5,2.2l0.5,2.3l-3.7,3.3v3.5l2,1.3l1.7-4.3l1.2,1v3.7l2.8,1.5l2.5,2.5l1.2,0.7l-2.5,2.5
		l-3.2-0.2l-1.8,2l-1.4,1.4l3.9,1.8v2.5l-3.7-1l-3.2,0.2l-4.3,1l-2.3,4.3l0.8,4.3H729l-3.7,1l-2.3-2.3l-4.2-0.5v3l2.2,2.2v2.3l1,2.5
		l1.7,5.5l-0.3,3.2l-3.8-2l-1.5,1.5l-3.5-0.7l-2.5-1.7l-3.2-3.2l-3.4,0.1V229c0,0-1.5-2.3-1.5-1.5s-1.8,1.7-1.8,1.7l-2.4-2.3
		l1.3-1.3l2.2-0.7v-3.7l-1.7-1.7l-3.2,2v-3.2l-1.9-1.9h-1.9l1.3-4.1l-4-1.3l-1.2,1.2l-3.7-2.8c0,0-0.3,1.6-1.6,1.6s-1.1,3.1-1.1,3.1
		l-1.3,1l-1.3-1.5l-1.3,0.3l-0.7,2l-2.7-1.8l-1.8-1.8l-2.1,1.6l-2-2l-0.5,2l-0.7,3.8l2.5,3.8l0.5,3.3c0,0,0.8,3,0,3
		s-4.5,0.7-4.5,0.7l-3.5,3l-3.5,1.3l-2-3.2l-0.5,1.8l-0.2,1.3h-4.9l-2.8-2.8l1.2-1.2l-1.3-1.9l-5,1.5l-6.3,1.2l-4.2,2.2l-3.1,3.1
		l-1.6,1.6l2.3,2.2h-2.2l-2-2.8v-3.3l-1.8-1.8l-2.1,2.9l-0.7,2l-3.3-1.3l-2.8-0.7l0.4,2.9l0.8,0.6l0,0l0.6,0.5l-0.3,1.6l-1.1,1.2
		l0.8,1.9l1.5,2.2l1.4,1.4l-0.6,3.4l1,2l3.1,1.1v0.4l0.5,0.2v1.6l4,2.8l2.1,2.1v0.1l0.5,0.5v4.1l2.1,3.9h2.4v0.6h0.5l0.2,3.4h-1.4
		l-0.7,2.3l-3.2,3.2l-2.8,1.9l0.1,6l-2.5,0.9l-0.9,3.2l1.3,1.3v0.1l0.5,0.5v2.8l-1,2.2l-3.4-1l-2.5,0.8l-3.6,5.1l-3.5,1.4v1.4
		l0.9,2.2l1.1,2.6l2.5,1.7v0.2l0.5,0.4l0.3,5.5l2.9,5.3v2.2l0.7,4.2l0.9,6.5l-2.5,0.7l-1.7,2.7l-1.6,1.6l0.6,1.9l0.6-0.6l3.1,1.2
		v0.4l0.5,0.2v2.6l1,1l0,0l0.2,0.2l-1.1,1v2.8l2.8,1.5v0.1l0.1,0.1l0.9,4.5l3.3,3.3l0,0l0.2,0.2l-1.1,3.2l-2,3.1l0.8,2.5v2.2l-1,1
		v3.2l1.7,0.7h2.7l1.4-1.4h1.6l1.5,1.8l3-1.1l2.3,1l1.8-1.8l2.4,0.2v0.2h0.1l0.1,1.9l2.2,2.2v0.1l0.1,0.1v2.1l-2.2,0.6v3l2.6-0.2
		l2.8-0.8l2.5,1.8l0.1,0.2h0.1l2.1,3.7l0.9,3.5l1,1l0,0l0.2,0.2l-1,1v2.3l2.5,1.1h2.4l1.8,1.8l0,0l0.2,0.2l-0.4,3.1l-1.3,1.3v2.2
		l1.9,1.9l1,2.3l0.3,2l2.1,0.7l2.9,1.2v4.1l-0.6,4.2v4.7l-0.5,5l0.4,8.3l4,4l3.5-0.3l1.7-2.5l1-3.1h2.6l5.5-2.1l0.5-2.7l2.1-0.9l0,0
		h0.1l2.2,2.2v2.9l1.8,2.4v-3.2l4.4-3v-5.8l3.1-3.1l1.2-3.7l-0.9-3.2l2.3-2.3l1-3.3l2-2.4h0.1l0,0l3.4,0.5l3.4-0.4l0,0h0.1l3.7,1.8
		l3.2,0.4v3l1.6,1.4v2.4l3.5,0.5l2.3-2.3v-2.5h2.7l1.8,1.8l2.2,2.4l0,0l0.1,0.2v2.2l2,0.2l0.1,0.2h0.1l1.4,3.6l4.6,4.6l0,0l0.3,0.3
		l-0.6,1.8l1.4,1.4v0.1l0.2,0.2l0.8,3.6l3.4,1.3l0.2,0.3l0,0l2.4,3.1l2.5,0.8v0.2l0.2,0.1v2.7l2.5,0.6v0.2l0.2,0.1v1.9l1.8,1.8
		l2.9,0.8l2.2-0.8l0.2,0.3l0,0l1.2,1.9l-2,2.5l1,1.8l3.3,0.9l1-2.5l2-2l2,0.5l1.3,1.3v0.1l0.2,0.2l0.2,2.6l1.8,0.7l1.9-2.7l2.7,1.3
		l0.1,0.2l0.2,0.1l1.2,3.2l1.1,1.9l-0.4,3.9l1.5,0.2l2.2,2.4h1.3v0.3h0.2v1.2l-2.5,1.5l1.4,2.2l0.7,3.3h2.6l0.2,0.3h0.1l1.1,2.2
		l2.4,4.2l2.7-2.7l5.7-4.2h4.2l3.8-1.3l5,0.8l4-2.2h3.5l6.7,0.7l2,2l3.3,1.5l1.3,3.5l3.7,1l2.7,2.7l3.8,3l1.7,4l4,0.7
		c0,0,3.2,2.5,3.2,3.2s2.8,2.3,2.8,2.3l2.4,2.4l2.1,4.1l5,1l5-1.8l1.8-1.8h4.5l4.8-0.7l3.2,0.8l3.8,1l1.9-1.9l3.6,0.9l2.2,2.2
		l2.7,2.3v3.8l2.3,0.8l3.2,1.8h3.2l0.8-3l3-1l3.5-2l3.5-2.8l-1.3-4.2l3-3.8l2.7-4.3l1-3.3l4-2.2h2.8l0.7,2.2l2.4,2.4l2.1,2.1v3.7
		l-1.8,2.8l3.3,3.5l0.8,3.7l1.8,3.2l-0.7,2.7l2.3,3.2l0.3,3.8l1.7,3.7l-1.3,3.5l2.7,4.2l-1.5,3l-2.4,2.4l-2.8-0.9l-2.7,1.3l-2.3,2.3
		v3.3l-1.8,1.8l-2.1,2.1l0.1,3.2l3,1l3.2,3.2l1.5,3.8l1.8,1.8l3.6,3.6l1.8,3.9v3.3l-2,4l-1.2,3.8l1.3,1.3l3.2,0.2v-2.7v-1.7l1.4-1.4
		l0.9-3.2l-0.7-2.8l0.7-4.2v-1.7l2.2,2.2l1.4,1.4v-3.1l1.3-2.8l1.2,1.2v2.2l2.4,1l3.5-2l4.2-1.7h2.2l2.5-4.7l2.2-4.7l3.3-5.5v-3.8
		l0.3-8l-1-6.2l1-6v-8v-6.5l1-3.3v-6.3l-1-6.5l-1-4.8l-1.3-5.3l-1.8-4.8l0.2-6.2l-1.8-6l1-6v-7l-2.6-2.6l-3.1-4.8l-0.8-2.3l-2.3-4
		l-3.3-3.3l-0.8-2.8l-1.7-1.7l-4.2-4.2l-3.4-4.9l-2.2-6.7l-0.5-6.3l-1.7-3.2l-1.6-1.6l-3.1,0.4l-2.5-2.5l-0.7-2.2h-3h-2.8l1-1.8
		l1.2-1.2l1.6-1.6l-2.1-2.1c0,0-2.3,1-3.2,1s-4.7,0.7-4.7,0.7l-1.6-1.6l-3.6-0.4h-4.3l-3.7,0.8l-1.8,1.8l-3,1.7l1.8,3.3l1.5,2.8
		l1.6,1.6l-0.4,2.8l-1.9-1.1l-1.2,1l-1.8,2.5v1.7l-3.3,1.3v-2.2v-3l-1-1l-1,0.3l-2-1.5v-1.7l-1.8,2v2.5l2.3,1v2.7l-1.8,1.8l-2-2
		l-1.6-2.9v-2.2l-2-1l-1.7-1.7l-2.4,2.4l-2.2,2.2H885l-2,2h-2.5l-1.5-3.4l1.3-3.7v-4.1l2.5-4.2V392l1.5-5.7v-4.4v-4l-1.7-1.8v-5.7
		l1-4.2v-6v-4.5l2-3.3l-2.3-2.3l-1.5-3.8l0.8-5.3l2.5-2.5l-2.7-5.3l0.5-5.5l2.8-5.7l2.8-2.8l2.7-4.5l2.4-2.4l3.8-3.7h3.8l2.8-1.8
		l-1-1l-1.3-2.2l2-1.8h2l2.3-2.2l2.6-2.6l-1.1-3.6l3.5,1.3l2.2-2.3l-1.8-1.8l-1.2-3.2l0.8-2.5l2.2-2.2l2.7-0.7l2.3-2.8l4.7-2.2v-1.5
		l3.2-0.5l3-1.2l1.2,1.2l-2.8,0.9l-0.7,2.2v2.2c0,0,2.2,0.8,1.5,1.5s3.2-0.2,3.2-0.2l1.2-3.2v-3.5l3.2-1.3l0.5-2.5l-1.2-5.8l5-0.8
		v-4.6l2.7-0.8l0.2-3.2h-2.5l-1.4,1.4l-1.9,1.8l-2.2,0.3l-2.3-2.3v-3l-2.8-2.8l-0.9-6.6v-5l-3-4.7l0.5-4.7l-3-2l-0.2-7.3l1.8-2.2
		l1.5-5.5v-2.7h4.5l1.3-4l-1.3-3.7l4.7,4.3l1.3,2.8l1.7,1.7l2.5,2.5V210l3,1.5l1.3,3.3l1.2-3.8l-0.3-6.3l-1.7-4v-5.3l-2.1-2.1
		l1.6-2.2l1.5,0.2l0.3-2.2h-3.3l-2.8-2.8l-2.9-2.9l-2-1.8l1-2.7v-3.5l3.7-2l2.6-2.6l1.1,1.1l-3.2,3v3.8l3.5,2.2l2.3,3l1.9,1.9
		l2.1,0.8h2.2l2.2,4.2l2,2v2.8v2.3l-1.2,4l0.2,3.3l2,1.7l2,6.2l1.7,4.2l1.5,5.2l1.3,5.5l3.2,4.2l2,6.2l0.8,5.3l1.7,5l-1.2,1.2
		l-1.5,1.5l1.6,2.8l-1.2,2.5l-1.4,1.4v1.4l3.1,0.7l2.8,4l0.5,3.8l2.3,2.3v3.5l3.3,3.5l4.8,4.8c0,0,1.4,3.2,2.2,4l4.5,3l4.7,2.5
		l7.2,2.2l3.3,0.7l3,2l1.8,2.5l6.3,3.3l5.5,2.3l5.8,2.7l3,3h3.3l2.4,2.4l3.1,1.6h4.8L1049.8,316.9z"/>
	<polygon class="st0" points="988,199.1 985.2,198 983.5,199 983.5,202.2 983.2,205.1 985,206.2 986.1,207.7 986.2,210.2 
		988.6,211.1 988,208.5 987,206.5 988,203.2 	"/>
	<polygon class="st0" points="1042.1,217 1045.5,217 1047.7,214.9 1044.9,214 1042.2,215.1 1039.6,214.1 1037.6,214.9 1038.6,217 	
		"/>
	<polygon class="st0" points="1050.9,324.5 1051,321.9 1049.6,320.4 1048.7,323 1047.3,324.4 1048.9,326 1049.8,327.9 1049.6,330.5 
		1049.4,333.8 1050.9,335.3 1052.6,334.4 1052.6,330.9 1054.1,329.4 1052.9,326.5 	"/>
	<polygon class="st0" points="1058.2,344.5 1055.8,342.9 1055.8,345.1 1057.2,345.8 	"/>
	<polygon class="st0" points="1052.4,207.6 1053.7,206.2 1051.9,206.6 1050,207.9 1051,208.9 	"/>
	<polygon class="st0" points="853.7,44.6 855.3,47 857.1,51 859.7,51.5 861.5,49.8 862.8,47.3 861.4,45.7 863.6,42.5 863.2,39 
		863.2,34.9 861,33.2 859.7,32.7 858.5,33.9 856,35.2 853.9,37.3 854.1,40.8 853.2,41.7 	"/>
	<polygon class="st0" points="893.5,394.7 892.1,396.3 892.1,398.3 892.1,400.5 894.5,399.4 895.8,400.7 897.3,399.3 897.9,396.4 
		896.3,394.1 	"/>
	<polygon class="st0" points="729.2,139.2 730.9,141.6 734.1,142.7 736.2,140.7 738.9,140.7 741.6,139.6 744.1,138.5 745.7,136.9 
		745.7,134.8 747.1,131 744.7,129.2 741.3,130.7 739.6,132.7 737.7,134.6 736.9,134.6 735.5,132.9 733.2,135.2 731.6,136.8 
		730.4,138 728.2,136.9 728.5,138.1 	"/>
	<polygon class="st0" points="699.3,160.8 700.9,160.8 703.1,162.9 702.5,165.3 705.2,166.7 708.8,166.9 710.3,168.4 713,168.4 
		716.2,167.5 716.2,165 714.3,163.2 715.3,162.2 716.9,163.7 719.7,158.7 722.3,156 723.5,157.2 725.9,154.7 726.7,152.5 
		723.9,151.6 722.1,153.4 719.8,151.7 717.1,150.1 714.4,148.1 715.3,146.1 716.7,144.7 717.9,148.5 719.6,150.3 722.6,150.8 
		724.4,150.1 725.9,150.1 727.4,148.5 726.7,145.4 724.2,145.4 724.8,142.7 724.8,140.7 722.9,141.3 718,141.3 716.4,142.9 
		714,144.6 712.1,142.8 707.7,144.2 708.1,146.9 709.2,148 710.8,149.7 712,150.8 710.3,152.2 708.1,150.2 706.8,151.4 705.2,149.8 
		701.4,150.5 699.7,149.6 699,151.6 700.2,152.8 697.9,154 697.9,156.9 699.7,158.7 	"/>
	<polygon class="st0" points="725.4,167.9 724.1,169.1 725.1,172.1 726.9,173.9 728.3,171.1 728.3,168.8 727.3,167.8 	"/>
	<polygon class="st0" points="732.4,179.7 733.8,176.8 737.2,176.1 740.3,174.9 744.4,172.4 742.2,168.5 739.4,168.5 735.3,167.2 
		733.4,168.9 731.6,170.6 729.9,172.4 730.9,174.7 732.6,176.4 731.5,178.8 	"/>
	<polygon class="st0" points="696.4,167.8 698.4,167.8 698.4,165.8 697.6,164.1 696.3,162.8 693.8,162.6 695.4,164.2 	"/>
	<polygon class="st0" points="619.2,225.8 619.2,227.7 621.5,227.7 622.3,229.5 624.3,228.6 626.5,226.3 626.5,222.7 623.7,222.7 
		622,223 	"/>
	<polygon class="st0" points="721.8,118.1 720.6,116.5 719.7,118.1 720.7,119.1 	"/>
	<polygon class="st0" points="708.3,182.7 710,183.5 712.1,185.2 713,183.9 712.1,182.6 709.3,182 	"/>
</g>
</svg>
