<?xml version="1.0" encoding="utf-8"?>
<!-- Generator: Adobe Illustrator 27.8.1, SVG Export Plug-In . SVG Version: 6.00 Build 0)  -->
<svg version="1.1"
	 id="svg2" xmlns:cc="http://web.resource.org/cc/" xmlns:svg="http://www.w3.org/2000/svg" xmlns:rdf="http://www.w3.org/1999/02/22-rdf-syntax-ns#" xmlns:dc="http://purl.org/dc/elements/1.1/"
	 xmlns="http://www.w3.org/2000/svg" xmlns:xlink="http://www.w3.org/1999/xlink" x="0px" y="0px" viewBox="0 0 1092 630.1"
	 style="enable-background:new 0 0 1092 630.1;" xml:space="preserve">
<style type="text/css">
	.st0{fill:none;}
	.st1{fill:#808080;stroke:#808080;stroke-width:0.845;}
</style>
<polygon class="st0" points="163,327.1 164.7,327.9 161.7,326.4 "/>
<polygon class="st0" points="163.4,323.2 163.2,323 162.8,325.2 161.7,326.4 163,325.7 "/>
<path class="st1" d="M198.2,475.1v-0.2h5.8l1.6-3.3l0.2-0.1v-0.1l3.2-2.3l1.8,0.5l0.9-2h0.1l0.1-0.2l4.5-0.8l2.2-5.1l0.1-0.1
	l0.1-0.1l3.8-2.1l2.7-2.7l1.1-4.6h0.2v-0.2h2.7l2.8,2.8l-0.2,0.2l-1.7,1.7l1.9,1.9l2-0.8l1.8-3.5h1.9l3.3-3.3l-1-1v-0.1v-1.1
	l-0.6-2.2h0.1l-0.1-0.3l1.7-0.9l1,1l2-0.9h2.5l3.5-2.6v-1.9l-1.4-2.3l-2.6-1l-0.2-1.5v-0.1l2.1-1.3l-2.1-1.6l-0.3-3l-2-0.1l-1.1-1.6
	l-2.9-1.3l-1.6-2.2l-3.4-0.4l-2.8-3.2L231,417v-2.6l-2.9,1.6l-2-2h-3.7l-1.5-1.5c-1.5,0.5-2.9,1.1-4.4,1.6c-1.6,0.7-3.3,1.5-4.9,2.2
	c-1.4,0.1-2.9,0.2-4.3,0.3c-1.4,0.4-2.8,0.7-4.1,1.1c0.3,1.2,0.6,2.3,0.9,3.5c-0.3,0-0.6,0-0.9,0c-0.9,0.4-1.7,0.7-2.6,1.1
	c-0.8,0-1.6-0.1-2.4-0.1c-0.8,0.3-1.5,0.5-2.3,0.8c-0.6,0-1.2,0.1-1.8,0.1c-1.4-0.8-2.7-1.6-4.1-2.4c-0.6,0.5-1.2,1-1.9,1.5
	c-0.3,0.8-0.6,1.6-1,2.4c-0.8,0.2-1.7,0.4-2.5,0.6c-0.7-0.3-1.5-0.6-2.2-1c-0.8,0.3-1.6,0.6-2.4,1c-0.7-0.2-1.4-0.5-2.1-0.7
	c-1.5-1.3-2.9-2.5-4.4-3.8c-0.9-0.3-1.8-0.5-2.6-0.8c-0.3-0.2-0.6-0.4-0.9-0.6c-0.2-0.7-0.4-1.4-0.6-2.1c-0.7-0.6-1.5-1.2-2.2-1.8
	c-1.3-0.9-2.6-1.7-3.9-2.6c-0.6,0.2-1.2,0.4-1.8,0.6c-0.8-0.4-1.6-0.9-2.4-1.3c-0.3-0.3-0.6-0.7-0.9-1.2c-0.3-0.5-0.6-0.9-0.8-1.3
	c-0.7-0.7-1.4-1.4-2.1-2.1c-1.1-0.5-2.1-1-3.2-1.4c-0.2,0-2.7-0.6-4.6,1.2c-1.9,1.7-1.6,4.2-1.5,4.4c-0.1,1.2-0.1,2.5-0.2,3.8
	c0,1.5,0,2.9,0.1,4.3c0.4,0.7,0.7,1.4,1.1,2.1c0.1,1.2,0.2,2.3,0.2,3.5c-0.4,0.5-0.9,1-1.3,1.5c-0.4,0.4-0.9,0.8-1.3,1.2
	c-0.8,0.6-1.6,1.2-2.4,1.9c-1,0.5-1.9,1-2.9,1.5c-0.4,0.3-0.8,0.6-1.1,1c-0.5,0.2-1,0.4-1.5,0.6c-0.8,0.3-1.5,0.6-2.3,0.9
	c0.5,1.7,1,3.4,1.6,5.1l-1.2,1.2h-3.4l-2.6-1.4l-0.6-1.9l-2.4-0.5l-2.3,2.1h-4.8l-1.2,4l-3.9,3.9l0.2,2.2l2.3,3.6l-1.4,3.6l-3.9,3.9
	c0.1,1.5,0.3,3,0.4,4.5c-0.5,1.3-1,2.6-1.5,3.9c-0.9,0.4-1.7,0.7-2.6,1.1c-0.9-0.8-1.8-1.6-2.8-2.4c-1.2,0.6-2.4,1.2-3.5,1.8
	c-0.3,0.9-0.6,1.7-0.9,2.6c-0.7,0.9-1.4,1.7-2,2.6c1.1,0.9,2.1,1.8,3.2,2.7c0.1,1,0.2,2.1,0.3,3.1c-0.3,0.8-0.7,1.7-1,2.5
	c0.3,1,0.6,2,0.8,3c1.1,1.2,2.2,2.3,3.4,3.5c0.1,1.2,0.1,2.5,0.2,3.7c0.8,0.1,1.5,0.3,2.3,0.4c0.7-0.1,1.4-0.1,2.1-0.2
	c-0.1,0.4-0.2,0.9-0.3,1.3c-0.4,0.8-0.8,1.6-1.3,2.4c-0.7,0.7-1.4,1.4-2.2,2c-1.3-0.1-2.6-0.1-3.9-0.2c-0.9,1.1-1.8,2.2-2.7,3.4
	c-0.7,0-1.4,0-2.1-0.1c-0.4,0.2-0.7,0.4-1.1,0.6c-0.4-0.1-0.9-0.2-1.3-0.3c-0.4-0.5-0.8-1-1.2-1.4c-0.3-1.5-0.6-3.1-0.9-4.6
	c-0.6-0.3-1.3-0.7-1.9-1c-0.5-0.4-0.9-0.8-1.4-1.2c-0.3-0.6-0.6-1.3-0.9-1.9c-0.2-0.8-0.4-1.5-0.7-2.3c-0.8,0.1-1.5,0.2-2.3,0.3v1.6
	l-1.2,1.2h-3.1l-1.6-1.1L77,493l1.9,0.9l0.8,2.2h1.7l1.4-0.5l0.8,2.2l1.3,1.3l3-0.5l1.7,1l0.3,2.4l1.6,1.8l0.5,2.1l1.6,1.7l1.1,3
	l-1.2,2.2l1.2,2.3l1.7,1.7l1.3,1.7v2l1.8,1.8l0.5,2.5l1.4,2.1v3.8l2.3,1.6l1.1,1.7l1.8,0.6l0.8,2.1l-0.2,2.9l2,0.5l3.5-1h3.2
	l2.8-3.3l2.3-1v-2.3l3,0.5l1.2,1.2l2.5,0.7c0,0-0.3,1.2,1.2,1.2s3.6-0.2,3.6-0.2h1.5h1.8h2.3l2.8-0.3l1.7-1.7l-2.1-2.1l-1.4-2.9
	l-0.3-3l2.5,0.3l1.7,1.8l1.8-1.8v-4.6l-0.9-5.7l0.8-4.3l-2-2l-3.2-3l-2.2-1.3l2.2-2.2l1-4.3l-2.4-2.4l-1.1-3.2l2.7-1.8l2.2-2.2
	l3,0.2l2.8-1.2v-3l2.2-2.2l2.6-2.6h3.2l2.2-1.6l1.2-2.7h2.8l1.8,1.8l-1.1,3.2v3.3l2.4,2.4l4.1,0.7l0.3-3.2l2.2-2.2l0.8-1.8h3.8h3.5
	l1.7-2.5h3.5l3.3,1.8l3.8-1.3l2.1-2.1l3.9,0.8C198,476.3,198.1,475.7,198.2,475.1z"/>
</svg>
