<?xml version="1.0" encoding="utf-8"?>
<!-- Generator: Adobe Illustrator 27.8.1, SVG Export Plug-In . SVG Version: 6.00 Build 0)  -->
<svg version="1.1"
	 id="svg2" xmlns:cc="http://web.resource.org/cc/" xmlns:svg="http://www.w3.org/2000/svg" xmlns:rdf="http://www.w3.org/1999/02/22-rdf-syntax-ns#" xmlns:dc="http://purl.org/dc/elements/1.1/"
	 xmlns="http://www.w3.org/2000/svg" xmlns:xlink="http://www.w3.org/1999/xlink" x="0px" y="0px" viewBox="0 0 1092 630.1"
	 style="enable-background:new 0 0 1092 630.1;" xml:space="preserve">
<style type="text/css">
	.st0{fill:none;}
	.st1{fill:#808080;stroke:#808080;}
	.st2{fill:#808080;stroke:#808080;stroke-width:0.9567;}
</style>
<path class="st0" d="M148,319.9l-1.3-1.3C146.7,318.6,147.5,319.9,148,319.9z"/>
<polygon class="st0" points="163,327.1 164.7,327.9 161.7,326.4 "/>
<polygon class="st0" points="142.6,317.6 140.8,319.4 138,319.4 136.6,320.8 134.6,320.6 136.7,320.9 138.1,319.5 140.9,319.5 
	142.7,317.7 144.9,317.7 146.7,318.6 144.8,317.6 "/>
<polygon class="st0" points="163.4,323.2 163.2,323 162.8,325.2 161.7,326.4 163,325.7 "/>
<g>
	<polygon class="st1" points="227.2,256.8 228.5,255.5 226.7,254.6 226.1,255.5 	"/>
	<g>
		<polygon class="st1" points="358.1,236 359.2,238.7 360.3,239 360.1,242.6 361.8,244 360.9,245.5 358.4,246.3 357.5,249 
			360,251.6 363.1,254.6 364.2,254 366,256.7 367.7,256.7 370.1,258.1 370.1,260 372.7,258.8 373.6,257.9 372.8,255.2 371.2,252.6 
			372.4,248.7 371,244.7 372.1,242 372.1,238.2 374.2,236.1 375.1,233.1 377.7,232 377.7,229.2 380.2,227 383.4,227 385.4,223.7 
			386.9,221.8 388.9,221.8 390.3,220.3 392,218.6 393.3,219.9 393.3,217.7 393.3,216.2 394.6,217.5 396.4,217.5 396,214.5 
			397.8,212.8 397.8,215.4 400,213.7 402.8,211.8 402.8,209 405.5,209.8 405.8,208.1 408.4,208.1 411.2,208.4 413.7,207.5 
			412.6,205.1 416.1,203.2 420.8,203.2 423,200.7 429.1,200.7 433.8,200.9 435.7,198.9 439.8,200.4 444.4,198.3 448.1,198 
			451,195.3 454.2,192.4 454.2,188.8 452.1,185.5 448.4,185.5 444.5,187 441.6,188.6 439.1,191 435.3,191 432.6,191.8 431.1,190.3 
			427.9,190.3 426.5,188.3 423.6,188.1 421.1,190.6 417.3,190.6 414.7,189.7 411.1,191.4 409,191.4 407.3,193.3 405.6,195.1 
			402.3,193.9 402.3,196.2 400,196.2 398.2,194.4 397.2,196 398.8,198 397.3,199.5 397.5,202.5 396.3,201.3 393.1,201.5 
			395.1,203.5 391.4,203.6 391.4,205.4 388.9,205.4 386.9,207.4 383,208.4 379.2,209.5 379.2,210.7 382.4,211.8 383.7,213.1 
			379.9,213.9 379.5,215.5 377.8,217.2 376.1,215.6 372.7,215.6 372.7,217.8 371.9,220.1 369.2,219 366.8,220.5 368.6,222.5 
			365.9,225.4 362.4,226.4 361.9,228.4 360.9,228 360,226.9 357.1,226.6 354.7,229.9 354.1,233.2 355.9,235.8 		"/>
		<polygon class="st1" points="463.8,111 465.5,111 465.5,108.6 464,108 462.8,108.4 463.8,109.8 		"/>
		<polygon class="st1" points="458.3,124.3 459.7,124.6 462.4,124.6 464.6,122.5 466.2,120.8 465.7,118.4 463.7,118.6 462.8,120 
			459.5,120.6 457.4,121.8 459,122.5 		"/>
		<polygon class="st1" points="453.3,116.4 452.6,117.1 453.9,118.4 456.3,117.5 456.3,115.5 454.9,115.5 		"/>
		<polygon class="st1" points="447.3,121.6 447.3,124.1 449.4,124.5 449.9,126 452.5,125.4 454.2,123.7 455.5,122.5 456.1,120.4 
			454.3,120.4 451.5,120.3 449.7,118.3 448.3,119.6 		"/>
		<polygon class="st1" points="443.2,131.4 444.9,131.4 445.5,129.4 444,129 443.2,129.8 		"/>
		<polygon class="st1" points="439.3,125.4 440.4,126.5 443,125.9 443.8,124.1 445.7,124.8 444.7,122.5 443,120.8 440.5,122.6 
			439.7,121.8 436.9,121.8 436.9,123.6 435.4,125.1 436.3,126 		"/>
		<polygon class="st1" points="456.2,103.3 454.4,101.8 453.7,103.3 455,104.6 		"/>
		<polygon class="st1" points="451.8,111.4 453.7,110.5 452.5,108.1 451.7,105.3 449.7,105.3 449.7,107.5 451.8,109.6 		"/>
		<polygon class="st1" points="439.1,111.8 437.4,111.8 437,112.1 438.5,113.6 		"/>
		<polygon class="st1" points="442,117 440.7,114.6 439.5,115.8 440.7,117.1 		"/>
		<polygon class="st1" points="443.1,108.9 441.8,109.1 441.8,110.8 443.5,110.8 		"/>
		<polygon class="st1" points="444.5,113.5 444.2,113.2 444.2,114.6 445.7,114.6 		"/>
		<polygon class="st1" points="446.3,117.1 447.4,116 445.7,116.5 		"/>
		<polygon class="st1" points="448.9,109.9 447.4,109.9 447.4,111.6 448.9,111.8 		"/>
		<polygon class="st1" points="446.8,107.2 446,106.4 445.1,106.4 446,108 		"/>
		<polygon class="st1" points="429,116.9 428.1,117.8 429.7,119.5 431.5,119.5 431.5,116.5 430.3,114.9 		"/>
		<polygon class="st1" points="433.8,116.6 435,116.6 435,115.1 433.1,114.9 		"/>
		<polygon class="st1" points="418.8,108.3 418.8,109.8 416.1,107.9 414.1,108.6 414.8,111.6 416.7,111 416.7,113 418.7,113.5 
			420.5,111.7 423,110.6 425.1,111.3 428.3,111.3 430.5,109 428.4,106.9 429.8,105.5 427.4,104 426.1,104.9 424.9,106.1 
			424.9,107.5 423.5,109 420.9,107.1 		"/>
		<polygon class="st1" points="415.5,105.5 418.8,104.4 419.9,105.5 422,104.6 422.9,105.5 422.9,103.6 421.5,102.2 420.1,102.2 
			419,101.8 416.3,101.8 414.7,100.1 413.5,102.4 415,103.8 		"/>
		<polygon class="st1" points="421.5,115 420.4,115 420.8,116.5 423,116.6 		"/>
		<polygon class="st1" points="423.8,120.8 422.4,119.4 421.9,118.3 420.8,119.4 421.7,120.3 		"/>
		<polygon class="st1" points="433.5,102.5 431,102.1 431,103.8 432.3,103.8 		"/>
		<polygon class="st1" points="378.3,265.6 375.8,266.8 374,267.4 374.5,271.4 374.8,273.5 376.4,273.9 377.1,277.1 380.2,277.4 
			381.3,274.8 379.8,272.3 379.9,269.4 		"/>
		<polygon class="st1" points="321.4,261.7 323.7,262.6 325.8,261.1 328.4,261.5 329.7,258.4 327.6,255.6 327.4,253.4 324.7,252.5 
			321.4,253.4 319.4,255.9 317.9,257.9 319,260.8 		"/>
		<path class="st2" d="M169.3,292l0.2,0.1l2.3,4.4l1.8,7l-1.5,2.8l-0.9,2.2l-2.2,2.8l-2.2,0.6l-1,1.5l-3.2-0.5l-1.8,1.8l-1.7,3.4
			l2.2,0.7l2.2,3.5v0.2l0.1,0.2l-0.4,2.5l-1.3,0.7l3.1,1.5h0.1l2.7-0.5l2.4,0.8l0.2,0.1l-0.9,2.8v3.2l1.9-0.4l3.1-0.3l0.1,0.1h0.1
			l1.8,1.8l4,2.8l1.6-1.6l0.1,0.1l0.1-0.1l3.1,3.1v3.1v3.5l3.8,3.8l3.6-1.6l4.1-1l3.7,1.6l3.4-1.6l0.1,0.2l0.1-0.1l2.2,4.6l4.1,0.8
			l0.1,0.1h0.1l3.3,3.3l1.2,3.2l2.8,1.3c0.9,0.9,1.8,1.9,2.7,2.8c0.6,1.3,1.2,2.7,1.9,4c0.8-0.6,1.7-1.3,2.5-1.9
			c1.3,0.3,2.5,0.6,3.8,0.9c0.5-1.1,1.1-2.3,1.6-3.4c0.1-0.1,0.3-0.3,0.4-0.4c0.2,0.2,0.4,0.3,0.6,0.5c1.1,1.1,2.2,2.1,3.3,3.2
			c0.6-0.6,1.2-1.1,1.8-1.7c0.1-0.9,0.1-1.8,0.2-2.7c0.7-0.5,1.4-0.9,2.1-1.4c-1-1.2-2.1-2.4-3.1-3.6c0.3-0.5,0.6-1.1,0.9-1.6
			c0.2,0,0.3,0,0.5,0c1.1,0.4,2.2,0.8,3.3,1.1c1.8-1.8,3.7-3.7,5.5-5.5c0.4-0.5,0.7-1,1.1-1.5c0.2-0.1,0.3-0.2,0.5-0.4
			c0.1,0,0.2,0,0.4,0c0.2,0.1,0.4,0.2,0.6,0.3c0.2,0.4,0.4,0.7,0.7,1.1c0.2,0.4,0.4,0.7,0.7,1.1c0.3,0.5,0.7,0.9,1,1.4
			c-0.1,0.6-0.3,1.1-0.4,1.7c0.5,0.4,1,0.7,1.5,1.1c0,0.7,0,1.4,0,2c-0.3,0.4-0.5,0.8-0.8,1.2c-0.3,0.2-0.6,0.5-0.9,0.7
			c0.2,1,0.3,2,0.5,3c0,0.1-0.1,0.2-0.1,0.3c-0.1,0-0.2-0.1-0.3-0.1c-1.1,0.3-2.1,0.5-3.2,0.8c-0.1,0.8-0.2,1.5-0.3,2.3
			c-0.7,0.8-1.4,1.5-2.1,2.3c-0.1,0.9-0.1,1.8-0.2,2.7c0.6,0.6,1.2,1.2,1.8,1.8c0.1,0.8,0.3,1.7,0.4,2.5c0.2,0.8,0.4,1.6,0.5,2.3
			c-0.4,0.9-0.9,1.8-1.3,2.7c0.5,0.5,0.9,1,1.4,1.5c0.9-0.8,1.8-1.5,2.8-2.3c0.4-1,0.8-2.1,1.2-3.1c0.2-0.1,0.3-0.2,0.5-0.4
			c0.8-0.2,1.6-0.3,2.3-0.5c0.9,0.4,1.8,0.8,2.6,1.2c0.6,0.7,1.3,1.3,1.9,2c0.9-0.7,1.8-1.4,2.7-2c0.2,0,0.4,0,0.5,0
			c0.2,0,0.4,0,0.6-0.1c0.2,0.3,0.4,0.6,0.6,0.9c0.3,0.7,0.6,1.4,1,2.2c0.9-0.2,1.8-0.5,2.7-0.7c0.6-0.4,1.1-0.9,1.7-1.3
			c0.6,0,1.3,0,1.9,0c0.2,0,0.4-0.1,0.6-0.1c0.8-0.5,1.6-0.9,2.4-1.4c0-0.7,0-1.4-0.1-2.1c-0.4-0.5-0.8-1.1-1.2-1.6
			c0.3-0.9,0.5-1.8,0.8-2.7c0.1,0,0.2-0.1,0.3-0.1c0.2,0,0.3-0.1,0.5-0.1c0.9,0.7,1.8,1.4,2.7,2.1c0.3-0.4,0.6-0.8,0.9-1.1
			c0.1,0,0.2-0.1,0.3-0.1c0.1-0.1,0.3-0.2,0.4-0.4c0.3,0.5,0.6,1,0.8,1.6c0.4-0.5,0.8-0.9,1.2-1.4c0.2-0.1,0.3-0.1,0.5-0.2
			c0.3,0.1,0.5,0.2,0.8,0.2c0.3,0.2,0.6,0.4,1,0.6c0.2,0.4,0.4,0.8,0.5,1.2c-0.2,0.7-0.3,1.4-0.5,2.1c0.7,0.7,1.3,1.5,2,2.2
			c0.7-0.2,1.3-0.4,2-0.6c0.2,0,0.3,0,0.5,0c0.2,0.1,0.4,0.2,0.6,0.2c0.7,0.6,1.4,1.2,2.1,2.1c0.8,0.9,1.4,1.8,1.9,2.6
			c0.6-0.2,1.2-0.5,2-0.7c0.4-0.1,0.8-0.1,1.1-0.2c0.3-0.1,0.5-0.2,0.6-0.3c0.1-0.1,0.2-0.2,0.3-0.3c0.2-0.1,0.4,0,0.6,0.1
			s0.5,0.2,0.8,0.2c0.4,0.1,0.7,0.2,1.1,0.3c0.2,0,0.6,0,1-0.3c0.2-0.2,0.3-0.3,0.4-0.5c0-0.1,0.1-0.3,0.2-0.4c0.2-0.1,0.3,0,0.3,0
			c0.1,0,0.3,0,0.4-0.1c0.1,0,0.1-0.1,0.2-0.1c0.2,0.1,0.4,0.2,0.7,0.3c0,0,0.4,0.2,0.6,0.3c0.2,0.2,0.7,0.5,1.2,1.1
			c0.3-0.2,0.7-0.3,1.1-0.5s0.8-0.3,1.2-0.4c0.1-0.3,0.2-0.6,0.2-0.9c0.1-0.4,0.2-0.7,0.3-1.1c0,0,0.1,0,0.3,0
			c0.2-0.1,0.2-0.2,0.2-0.3c0.2,0.2,0.4,0.3,0.6,0.5c0.3,0.2,0.6,0.4,0.9,0.6c0.4,0.3,0.9,0.7,1.3,1.1c0.5,0.5,0.9,1,1.2,1.4
			c1.3,0.4,2.7,0.8,4.1,1.2c1.6,0.5,3.2,1.1,4.6,1.7c1.9,0.2,3.8,0.4,5.7,0.7c0.7-0.8,1.5-1.5,2.2-2.3c0.1-0.9,0.2-1.9,0.3-2.8
			c0.3,0.3,0.5,0.5,0.8,0.8c0.2-0.2,0.5-0.4,0.7-0.6c-0.1-0.3-0.1-0.5-0.2-0.8c0.3-0.8,0.5-1.5,0.8-2.3c1.3-1.1,2.5-2.2,3.8-3.3
			c0.1-1,0.1-2.1,0.2-3.1c0.5-0.6,1.1-1.3,1.6-1.9c-0.4-1.1-0.8-2.2-1.2-3.3c0.7-1.3,1.5-2.5,2.2-3.8c1.2-0.6,2.3-1.1,3.5-1.7
			c0-1.3-0.1-2.6-0.1-3.9c1.4-0.6,2.8-1.3,4.2-1.9c-0.2-1.5-0.4-3-0.7-4.5c0.4-0.9,0.9-1.8,1.3-2.7c0.6-0.6,1.3-1.3,2.2-2.1
			c0.8-0.6,1.5-1.1,2.2-1.5c0.2,0,0.6-0.1,1,0.1c0.2,0.1,0.4,0.2,0.9,0.7c0.2,0.3,0.5,0.6,0.9,1c0.5-0.1,1.3-0.3,2.1-0.7
			c0.5-0.3,0.8-0.5,1.1-0.8c1.3-0.9,2.6-1.8,3.8-2.7c1-0.4,2-0.8,2.9-1.2c0.5-0.8,1.1-1.5,1.6-2.3c0.9-0.1,1.9-0.2,2.8-0.3
			c1.5-0.2,3-0.3,4.5-0.5c0.2-0.5,0.4-1.1,0.6-1.7c0.2-0.4,0.3-0.8,0.5-1.1c0.7-0.2,1.3-0.5,2-0.7c0.9-0.3,1.8-0.6,2.7-0.8
			c1.5-0.3,3-0.7,4.6-1c2.1-0.4,4.2-0.8,6.2-1.2c0.3-0.5,0.7-1.1,1-1.8c0.2-0.4,0.3-0.7,0.4-1c0.4-0.1,0.9-0.2,1.3-0.3
			c0.7-0.2,1.3-0.4,1.9-0.6c1.1-1.1,2.2-2.2,3.4-3.3c0.9-0.5,1.7-1.1,2.6-1.6c0.8-0.5,1.7-1,2.5-1.6c-0.4-0.4-1-0.8-1.6-1.3
			c-0.5-0.3-1-0.6-1.4-0.9c0.4-0.3,0.7-0.5,1.1-0.8s0.8-0.6,1.2-0.9c0.1-0.4,0.2-0.8,0.3-1.2c0.1-0.3,0.1-0.6,0.1-0.9
			c0-0.1,0.1-0.3,0.1-0.4c0-0.2,0.1-0.5,0.1-0.7c-0.7-0.6-1.7-1.2-2.9-1.8c-0.4-0.2-0.9-0.4-1.3-0.5c-0.1-0.3-0.1-0.5-0.2-0.7
			c-0.1-0.4-0.1-0.5,0-0.6c0.1-0.2,0.2-0.3,0.3-0.3c0.5-0.2,1.1-0.5,1.7-0.9c0.8-0.5,1.5-1,2.1-1.5c0-0.9-0.1-1.8-0.1-2.8
			c-0.1-1-0.1-1.9-0.2-2.9c-0.1-0.2-0.1-0.3-0.1-0.4c0-0.2-0.1-0.3-0.1-0.4s0-0.2,0-0.3c0-0.2,0-0.3,0-0.5c0-0.4,0-0.8,0-1.2
			c-0.1-0.3-0.1-0.7,0-1.2s0.3-0.9,0.4-1.1s0.3-0.5,0.4-0.8c0.2-0.5,0.3-0.9,0.4-1.3c-0.3-0.3-0.6-0.6-1-0.9
			c-0.3-0.3-0.5-0.6-0.7-0.8l-3.2-3.2l-3.9-3.9l-3.4-4.2l-1.3,1.3l-3.1-3.1l-2.6,0.8l-3,1.5l0.5,4.8l-0.7,4l-3.2,0.5v2.7l-3.3-0.8
			l-1.4,1.4l-0.2,3.1l-3.2-2.7v-2.8l2.7-1.8l0.5-2.3l-1.8-1.8l-4.4,1.4H360l-1.8,1.8l-5.2-5.2l-4.7-0.9l-5,2.2h-2.7l-3.8-3.5
			l2.5-0.8l1-3h3.2l-1.2-4.3H340l-5.3,1.7v3H333l-1.8-3.3h-3.7l-6.3-0.8l-3.5,0.7l-6.5-1.2l0.7,2.7l-4.2-2l-4.3,1v3l-4.2,2l-3.7-1.7
			l-3.8-1v-3.3l-1.3-4v-4.3l5.3-1.8l3.5,0.8l2.5,2.5l1.5-1.5l1-3v-6.1l-2.8-4.3l-3.8-3.8l-0.9-2.1h-2.9l0.7,4v4.2l-4.2,2.5v2.7
			l-4.3,2.2l-1.3,2.8v4.2l-3.3,4.8l-4,0.8l-2.9,2.9l-2.1,2.6v-3.7l2.3-2.3l-2.8-4.3l-1.9-1.9h-3.2l-4.5,1.4l-4-2.2l-4.8,1.8
			l-5.2-0.8l-0.2,5.8l-2.8,2.3l1.2,2.8l-1.4,1.4l-4.8-1.4l-1.8-3.8l-2.9-2.9l-0.9-4.9l-1-7.5h-2.9l-2.8,3v2.8l-0.3,3.7l2.2,2.2
			l-0.8,4.2l-4.2,3l-3.6-3.6l-3.4-3.4l2.4-4.2l-2.5-7.8l3.1-3.1l1.3-5.9l3.2-3.2l4.1-1.2l2.3-5.2l0.7-3.7l-2.4-2.4l1.8-1.8l-0.1-4.2
			l-0.7-3.7l1.6-1.6l1.1-2.9l2.3,2.3l-1.9,1.9l-0.8,3.8l2.3,1l1.2,6.2l2.2,3.7l1.2,3.3l1.5,3.5l3.2,3.2v4.5l3.1,3.1l4.9,2.8l4.5,1.7
			l5.2-1h4.7l4.4-4.4l2.9-5.1l0.7-6l0.2-3.7l-2.9-2.9l-0.1-5.1l-1-2.3l0.8-4.2v-4.8l-1.3-4.7l-2.8-2.8v-4.2l-2.4-1.2v-3.5l-2.2-2.2
			l-2.8-1.5v-3.2l-0.8-3.2l1.8-1.8l1.9,1.9l1.8,1.2l-0.8-3v-2.5l-4-0.2L258,191l0.7-3.5l-2.9,2l-2.3-2.3h-2.8l-4.8-1.8l-7,3.5
			l-5.3,2.7v9l-2.7,4.7h-8.5l-5.1,5.1l-0.4,3.1l-6.2,11.5l-2.8-1.3l-5.8,4.7l-2.7,0.2v5.7l-3,1.2v4.3l-4,3.2h-4.7l-1.2,11v4.3
			c-2.2,0.7-4.4,1.4-6.7,2.1c-7.6,0-15.3,0-22.9,0.1c-0.2,1.9-0.4,3.8-0.6,5.7c0.6,2,1.3,4,1.9,6c2,6.1,4.1,12.1,6.1,18.2
			c0.6,0.4,1.4,0.8,2.4,1.1C167.7,291.7,168.6,291.9,169.3,292z"/>
	</g>
</g>
</svg>
