<?xml version="1.0" encoding="utf-8"?>
<!-- Generator: Adobe Illustrator 27.8.1, SVG Export Plug-In . SVG Version: 6.00 Build 0)  -->
<svg version="1.1"
	 id="svg2" xmlns:cc="http://web.resource.org/cc/" xmlns:svg="http://www.w3.org/2000/svg" xmlns:rdf="http://www.w3.org/1999/02/22-rdf-syntax-ns#" xmlns:dc="http://purl.org/dc/elements/1.1/"
	 xmlns="http://www.w3.org/2000/svg" xmlns:xlink="http://www.w3.org/1999/xlink" x="0px" y="0px" viewBox="0 0 1092 630.1"
	 style="enable-background:new 0 0 1092 630.1;" xml:space="preserve">
<style type="text/css">
	.st0{fill:none;}
	.st1{fill:#808080;stroke:#808080;}
	.st2{fill:#808080;stroke:#808080;stroke-width:0.8459;}
</style>
<path class="st0" d="M148,319.9l-1.3-1.3C146.7,318.6,147.5,319.9,148,319.9z"/>
<polygon class="st0" points="163,327.1 164.7,327.9 161.7,326.4 "/>
<polygon class="st0" points="142.6,317.6 140.8,319.4 138,319.4 136.6,320.8 134.6,320.6 136.7,320.9 138.1,319.5 140.9,319.5 
	142.7,317.7 144.9,317.7 146.7,318.6 144.8,317.6 "/>
<polygon class="st0" points="163.4,323.2 163.2,323 162.8,325.2 161.7,326.4 163,325.7 "/>
<g>
	<path class="st1" d="M32.5,465.3l-0.1-0.1l-0.1-0.1c0,0,0,0-0.1,0c0,0,0,0,0,0.1c0,0,0,0.1,0.1,0.1
		C32.4,465.2,32.4,465.3,32.5,465.3c-0.1,0.1-0.1,0.1-0.1,0.1s0,0,0.1,0C32.5,465.4,32.6,465.4,32.5,465.3
		C32.6,465.3,32.6,465.3,32.5,465.3z"/>
	<path class="st1" d="M29.4,453.2C29.5,453.2,29.5,453.2,29.4,453.2c0-0.1-0.1-0.1-0.1-0.1s0,0.1-0.1,0.1h-0.1H29c0,0,0,0.1-0.1,0.1
		c0,0.1-0.1,0.1-0.1,0.2s-0.1,0.1-0.1,0.2v0.1h0.1l0.1-0.1c0,0,0.1,0,0.1-0.1c0,0,0-0.1-0.1-0.1v-0.1c0,0,0.1,0,0.1-0.1h0.1
		C29.4,453.4,29.4,453.3,29.4,453.2z"/>
	<path class="st1" d="M31.5,464.6C31.5,464.6,31.4,464.6,31.5,464.6c-0.1,0-0.1,0.1-0.2,0.1c0,0,0,0-0.1,0.1v0.1l-0.1,0.1
		c0,0,0,0,0,0.1v0.1c0,0,0,0.1,0.1,0.1h0.1c0.1,0,0.1,0,0-0.1c0,0-0.1-0.1,0-0.2c0,0,0.1,0,0.1-0.1c0,0,0-0.1,0.1-0.1h0.1
		C31.6,464.8,31.6,464.7,31.5,464.6C31.5,464.7,31.5,464.6,31.5,464.6z"/>
	<path class="st1" d="M28.9,453.4C28.9,453.3,28.9,453.3,28.9,453.4c0.1-0.1,0.1-0.1,0.1-0.1h0.1c0.1,0,0-0.2-0.1-0.1h-0.1
		c0,0-0.1,0-0.1,0.1c-0.1,0.1-0.1,0.1-0.1,0.2s0,0.1,0,0.2s-0.1,0.1-0.2,0.1c0,0.1,0,0.2,0.1,0.1c0.1,0,0.1-0.1,0.2-0.1
		c0-0.1,0-0.1,0.1-0.2C28.9,453.4,28.9,453.4,28.9,453.4z"/>
	<path class="st1" d="M23.4,452.6L23.4,452.6h-0.2c0,0-0.1,0-0.1-0.1H23c0,0-0.1-0.1-0.1,0h-0.1h-0.1h-0.1v-0.1c0,0-0.1,0-0.1,0.1
		s0,0.2,0,0.2s0,0.2,0.1,0.1c0,0,0.1,0,0.1-0.1c0.1,0,0,0,0.1,0c0,0.1,0.1-0.1,0.1-0.1c0.1,0,0.1,0,0.2,0.1s0.1,0.1,0.2,0.1
		C23.2,452.7,23.3,452.7,23.4,452.6L23.4,452.6z"/>
	<path class="st1" d="M23.7,454.9L23.7,454.9c-0.1-0.1-0.1-0.1-0.2-0.1l0.1-0.1c0,0,0,0-0.1,0h-0.1h-0.1c0,0,0,0,0-0.1
		s-0.1-0.1-0.1,0s0,0.1,0,0.2s0,0.1,0,0.2s0,0.1,0.1,0.2c0,0,0.1,0.1,0.2,0.1s0.1-0.1,0.1-0.2V455C23.6,455,23.7,455,23.7,454.9
		c0,0.1,0,0.2,0.1,0.2S23.8,455,23.7,454.9C23.8,455,23.7,454.9,23.7,454.9z"/>
	<path class="st1" d="M28.7,452.6L28.7,452.6c0-0.1,0-0.1,0-0.2v-0.1c0,0,0,0,0-0.1v-0.1c-0.1,0-0.1,0.2-0.2,0.2v0.1
		c0,0,0,0.1,0.1,0.1C28.7,452.7,28.7,452.7,28.7,452.6z"/>
	<path class="st1" d="M31.9,462.4c-0.1,0-0.1,0-0.2,0c0,0,0,0-0.1,0c0,0-0.1,0-0.1,0.1s-0.1,0.1,0,0.2c0.1,0,0.1,0,0.2,0
		s0.1,0,0.2,0s0.1-0.1,0.1-0.1S32.1,462.4,31.9,462.4C32,462.2,32,462.4,31.9,462.4z"/>
	<path class="st2" d="M117.1,451.7c-0.9-1.3-1.7-2.6-2.6-3.9c-0.2-0.8-0.4-1.7-0.6-2.5c-1.5,0.1-3.1,0.2-4.6,0.4l-1.5,1.5h-2.3
		l-1.2-1.6h-2.9v-2.1l-1.3-1.3l-1.3,1.7l-1.2,2.8l-6.2,0.7l0.2,2.7l-2.3-0.3l-2.3,2.3l0.6,3.7l-2.5,1.5l-3.8,3.6l-3.9-4.4l-2.7-2.9
		l-2.8,1.2l-3.2-1.3l-3.7,1.6l-2.5,2.7l2,0.7l1.8,1.8l2.8,0.7l2,1.5l-0.7,3l-2.8-1.2l-3.8-0.6l-2.3-1l-1.5,1.5l-2-1.8l-1.8-1.3
		l-2-0.3l-0.7,2.2l1.3,2.5l-0.6,4.2l-2.5-0.8h-2l-3.8,0.1l-2.8,1.2l-1.2,2.5l-2.5-0.8l-2.7-3.3l-2,0.3l-1.8,1.8l0.8,3.3l-1,3
		l1.3,2.7l2,1.8l-0.4,5l1.7,2.5l1.3,2.8l0.6,5.7l-0.6,7.7l1.2,4l2.2-0.3l1.7,2.3l1.3,1.7l1.8,0.3l0.8,3.3l2.4,3.8l1.1,4l3.7,2.6
		l2.5,1.2l1.4,3.8l2.8,2.3l-0.7,3.3l2.3,2.2l0.6,5.3l2.3,2.3l3.7,0.6l2.1,2.1l0.6,1.8l2.8,0.3l0.8,3l2.5,2.7l-1,2.8l-1.5,2.5l2.3,3
		l1.3,3.5v2.2l2.7,1.8l0.2,4l1.7,5.5l0.5,3.2l3.7,0.9l3.8-1.2l2.7,1.2l4-1.7l-0.2-5.3l0.8-4.3l-0.9-5.7l0.1-4.7l3.8-5.9l1.7-1.5
		v-1.2l1.9-1.9l0.8-2.9l0.8-3.2l-1-3.2l-1.8-1.8v-3c0.8-0.7,1.7-1.3,2.5-2c0-0.9,0-1.8,0.1-2.7c-0.2-0.8-0.3-1.5-0.5-2.3
		c-0.6-0.3-1.2-0.5-1.8-0.8c-0.3-0.6-0.7-1.2-1-1.8c-0.7-0.6-1.4-1.2-2.2-1.8c0-1.2,0-2.3,0.1-3.5c-0.4-0.7-0.8-1.5-1.2-2.2
		c-0.4-0.8-0.8-1.7-1.2-2.5c-0.4-0.6-0.7-1.2-1.1-1.8c-0.1-0.7-0.2-1.4-0.3-2.2c-0.5-0.5-1-1-1.6-1.6c-0.5-0.5-1-1.1-1.4-1.6
		c-0.3-0.7-0.7-1.4-1-2.1c0.2-0.7,0.4-1.5,0.7-2.2c-0.4-1-0.8-2-1.2-3c-0.6-0.5-1.2-1-1.8-1.4c-0.2-0.7-0.3-1.4-0.5-2.2
		c-0.7-0.5-1.3-1.1-2-1.6l-0.2-2.8l-1.9-0.8l-3,0.5l-1.3-1.3l-0.8-2.2l-1.4,0.5h-1.6l-0.8-2.2l-1.9-0.9c0.7-0.3,1.5-0.7,2.2-1
		c0.6,0.5,1.2,1,1.8,1.4c1,0,2.1,0,3.1,0.1c0.4-0.7,0.8-1.3,1.2-2c0-0.4,0.1-0.8,0.1-1.2c0.5,0,1,0,1.6,0c0.3,0.6,0.5,1.2,0.8,1.7
		v2.2l1.6,1.6l2.1,0.6l0.6,2.9l0.6,2.1l1.2,1.2c0.8,0.4,1.6,0.9,2.4,1.3c0.4-0.2,0.7-0.5,1.1-0.7c0.7,0,1.5,0.1,2.2,0.1
		c1.4-0.9,2.7-1.7,4.1-2.6c0.7-0.4,1.3-0.8,2-1.2c1.6-0.9,3.2-1.9,4.8-2.8c0.2-1,0.4-2.1,0.6-3.1c-0.1-0.8-0.3-1.6-0.4-2.4
		c-0.7-0.1-1.4-0.1-2.1-0.2c-0.4-0.2-0.7-0.4-1.1-0.7c-0.3-0.7-0.7-1.4-1-2.2c-1.1-1.1-2.2-2.2-3.3-3.3c-0.3-0.9-0.5-1.8-0.8-2.7
		c0.3-0.8,0.7-1.7,1-2.5c-0.1-1.1-0.1-2.3-0.2-3.4c-0.7-0.9-1.4-1.9-2.2-2.8c0.4-0.5,0.9-1,1.3-1.6c0-0.6,0-1.1,0.1-1.7
		c0.8-0.1,1.5-0.3,2.3-0.4c0.6,0.5,1.1,1,1.7,1.5c1.3-0.3,2.6-0.6,3.8-0.8c1.3-1.8,2.6-3.6,3.8-5.3c-0.6-1.7-1.3-3.4-1.9-5.1
		c1.4-1.2,2.8-2.4,4.2-3.6C116.4,454.7,116.7,453.2,117.1,451.7z"/>
	<path class="st1" d="M33.1,465.2c0.1,0,0.1-0.1,0.2-0.1c0.1,0,0.1,0,0.2,0c0,0,0.1,0.1,0.2,0.1c0.1,0,0-0.1,0.1-0.2s0.2-0.1,0.2,0
		l0.1,0.1c0,0.1,0,0.1,0.1,0.1c0,0.1,0.1,0.2,0.2,0.2c0,0,0.1,0,0.1-0.1l0.1-0.1c0-0.1,0-0.1,0.1-0.2v-0.1v-0.1c0,0,0,0-0.1,0h-0.1
		c-0.1,0-0.1-0.1-0.1-0.1c0-0.1,0.1-0.2,0-0.3c-0.1,0-0.1-0.1-0.2-0.1c-0.1,0-0.1-0.1-0.1-0.2s0-0.2-0.1-0.2c0,0-0.1,0-0.2-0.1
		c-0.1,0,0.1-0.1,0.1-0.1c0.1,0-0.1-0.2-0.2-0.2c-0.1-0.1-0.2-0.2-0.3-0.3l-0.1-0.1c0,0-0.1,0-0.2,0c-0.1,0-0.1,0-0.2,0h-0.1
		c-0.1,0-0.1,0.1-0.2,0.1c0,0-0.1,0-0.2,0c-0.1-0.1-0.2-0.2-0.2-0.3v-0.1v-0.1c0-0.1,0-0.1,0-0.2s0-0.1,0-0.2c0,0,0-0.1,0.1-0.1h0.1
		c0.1,0,0.1-0.1,0-0.2c0,0,0-0.1-0.1-0.1h-0.1h-0.1c0,0-0.1,0-0.1,0.1c0,0-0.1,0.1-0.2,0.1h-0.1h-0.1h-0.1h-0.1h-0.1h-0.1
		c-0.1,0-0.1,0-0.2-0.1s-0.2-0.1-0.2-0.2c0,0-0.1,0-0.2-0.1s-0.3-0.1-0.4-0.2s-0.1-0.3-0.1-0.4V461v-0.1c0-0.1,0-0.1,0-0.2
		s0-0.3,0-0.4c0-0.2,0.1-0.3,0.1-0.5c0-0.1,0.1-0.3,0.1-0.4s0-0.1,0-0.2s0-0.1,0.1-0.2c0-0.1,0-0.3,0.1-0.4c0-0.1,0.1-0.3,0.1-0.4
		s0.1-0.1,0.1-0.2v-0.1v-0.1c0-0.1,0-0.1,0-0.2s0.1-0.1,0.1-0.2c0.1-0.1,0.1-0.2,0.1-0.4c0.1-0.1,0.2-0.3,0.2-0.4s0-0.1,0.1-0.2
		v-0.1c0,0,0,0,0-0.1c0,0-0.1,0-0.1-0.1L31,456l0,0l-0.1,0.1l-0.1,0.1c0,0-0.4,0.1-0.3,0.2c0,0,0.1,0,0.2,0c0,0,0.2-0.1,0.2,0
		c0.1,0.1,0,0.3-0.1,0.4s-0.1,0.2-0.2,0.4c0,0.1,0,0.1,0,0.2s-0.1,0.2-0.1,0.3c0,0-0.1,0.1-0.1,0.2s0,0.2,0,0.2
		c-0.1,0.1-0.1,0.3-0.1,0.4s-0.1,0.3-0.1,0.4c0,0.3-0.1,0.6-0.2,0.8c0,0.1-0.1,0.2-0.1,0.3c0,0-0.1,0.1,0,0.2c0,0.1,0,0.1,0,0.2
		s-0.1,0.1-0.1,0.2v0.1v0.1c0,0.1,0,0.1,0,0.2c0,0,0.1,0,0,0.1v0.1v0.1h-0.1c-0.1,0-0.2-0.1-0.3-0.1c-0.1,0,0-0.1,0-0.1V461v-0.1
		c0-0.1-0.1-0.1-0.1-0.2s-0.1-0.2-0.1-0.4c0-0.1,0-0.2-0.1-0.3l0,0l-0.1-0.1l0,0c0-0.1,0-0.1,0-0.2s0-0.2,0-0.2s0,0,0.1-0.1v-0.1
		c0-0.1,0-0.2,0-0.2c0.1,0,0.1,0,0.2,0s0.1,0.1,0.2,0.1s0.1,0,0.1-0.1s0.1-0.1,0.1-0.2c0.1-0.1,0.2-0.2,0.2-0.4c0-0.1,0-0.1,0.1-0.2
		c0-0.1,0-0.2,0-0.2V458v-0.1c0-0.1,0.1-0.1,0.1-0.2s-0.1-0.1-0.2-0.1c0,0,0,0,0-0.1v-0.1v-0.1v-0.1c0,0-0.1-0.1,0-0.1H30h0.1h0.1
		c-0.1,0-0.1-0.1-0.2-0.1h-0.1l0,0v-0.1c0,0,0-0.1-0.1-0.1c0,0-0.2-0.1-0.1-0.1h0.1h0.1c0.1-0.1,0.1-0.1,0.2-0.2l0.1-0.1
		c-0.1,0-0.1-0.1-0.2-0.1s-0.2,0-0.2-0.1c0,0,0,0,0-0.1h0.1c0.1,0,0.1-0.1,0.2-0.1h0.1l0.1,0.1l0,0l0,0l0.1-0.1c0,0,0.1,0,0.1-0.1
		v-0.1c-0.1,0-0.1,0-0.2,0s-0.1-0.1-0.2-0.1c0,0-0.1,0-0.1-0.1c0,0,0,0-0.1,0s-0.2,0-0.2,0c-0.1,0-0.1,0-0.2,0h-0.1l-0.1-0.1h-0.1
		h-0.1c0,0,0,0-0.1-0.1c0,0-0.1,0-0.1-0.1c0,0,0,0,0.1,0h0.1h0.1c0,0,0.1,0,0.1-0.1c0.1,0,0.1,0,0.2,0s0.1,0,0.2-0.1l0.2,0.1
		c0.1,0,0.1,0,0.2,0s0.2-0.1,0.3-0.1c0.1,0,0.1,0,0.1-0.1s0-0.1-0.1-0.2c0-0.1,0-0.2-0.1-0.2l-0.1,0.2c0,0.1,0,0.1-0.1,0.1
		s0-0.1-0.1-0.1s-0.1,0-0.2,0.1h-0.1c0,0-0.1,0-0.1-0.1s0-0.1,0.1-0.2c0.1,0,0.1-0.1,0.2-0.1c0-0.1-0.1-0.1-0.1-0.1
		c-0.1,0-0.1,0-0.1,0s-0.1,0-0.1,0.1l-0.1,0.1h-0.1c0,0,0-0.1,0.1-0.1l0.1-0.1h-0.1l0.1-0.1h-0.1c0,0-0.1,0,0,0s0.1-0.1,0.2-0.1
		c0,0,0,0,0.1,0h0.1H30c0,0,0-0.1,0.1-0.1V454v-0.1v-0.1l0.1,0.1v-0.1v-0.1c0,0,0-0.2-0.1-0.1c-0.1,0-0.1,0.1-0.2,0.1v-0.1v-0.1
		c0.1,0,0.1-0.1,0.2-0.1v-0.1H30h-0.1h-0.1c0,0-0.1,0-0.1-0.1c0,0,0-0.1,0.1-0.1s0.1,0,0.1-0.1s-0.1-0.1-0.1-0.2l0,0c0,0,0,0,0-0.1
		s0-0.1-0.1-0.2c0,0,0,0,0,0.1v0.1c0,0.1,0,0.2,0,0.2c0,0.1,0,0.1,0,0.2c-0.1,0.1-0.1,0.1-0.2,0.2c0,0.1-0.1,0-0.2,0l-0.2-0.1
		c0-0.1,0-0.1,0.1-0.2v-0.1v0.1c0,0.1,0.1,0,0.2,0v-0.1c0-0.1,0-0.3,0-0.4s0-0.1,0-0.2s0-0.1,0-0.2s-0.1-0.2-0.1-0.2
		c0-0.1-0.1,0-0.1,0c-0.1,0.1,0.2,0.3,0,0.3h-0.1v0.1c0,0.1-0.1,0.1-0.1,0c-0.1,0,0-0.1,0-0.2V452v-0.1h-0.1c0,0,0,0-0.1,0l0,0h-0.1
		l0,0l0,0c0,0,0,0,0.1,0h0.1c0,0,0-0.1,0-0.2s0-0.1,0.1-0.2h0.1c0,0,0-0.1,0.1-0.1c0,0,0,0,0-0.1v-0.1v-0.1h-0.1
		c-0.1,0.1-0.1,0.1-0.2,0.2h-0.1v-0.1c0-0.1,0-0.2,0-0.2c0-0.1,0-0.1,0.1-0.2c0-0.1,0.1-0.1,0.1-0.2c0,0,0,0,0-0.1l0,0
		c0,0-0.1-0.1-0.2-0.1s-0.1,0-0.2,0h-0.1c0,0,0,0-0.1,0l0,0c0,0.1-0.1,0.1-0.1,0.2s0,0.1-0.1,0.2c0,0,0,0.1-0.1,0.1H28
		c-0.1,0-0.1,0.1-0.2,0.1c0,0,0,0,0,0.1v0.1c0,0,0,0-0.1,0h-0.1v0.1v0.1c0,0.1-0.1,0-0.2,0c0,0-0.1,0-0.1,0.1h0.1
		c0.1,0,0.1,0,0.2,0.1c0,0.1,0.1,0.1,0.1,0.2s0.1,0.1,0.1,0.2c0,0,0,0.2-0.1,0.1l-0.1-0.1h-0.1c0,0,0,0-0.1-0.1h-0.1
		c-0.1,0.1-0.2,0.3-0.3,0.2c0-0.1,0-0.1,0-0.2s-0.1-0.1-0.1-0.1l-0.2-0.1c-0.1,0-0.1,0.1-0.2,0c-0.1,0-0.1-0.1-0.1-0.2v-0.1l0,0
		c0,0,0,0-0.1,0l-0.1-0.1c0,0-0.1,0-0.1-0.1c-0.1,0-0.1,0-0.2,0s-0.3,0-0.4-0.1c-0.1,0-0.1,0-0.2-0.1c-0.1,0-0.1,0-0.2-0.1
		c-0.1,0-0.1-0.1-0.1-0.2s-0.1-0.1,0-0.2v-0.1l0,0c0,0,0,0-0.1,0s-0.1,0.1-0.1,0.2v0.1c0,0-0.1,0-0.1-0.1c-0.1,0-0.1-0.1-0.2-0.1
		c-0.3-0.1-0.6-0.2-0.8-0.3c0,0-0.1,0-0.1-0.1c-0.1,0-0.1,0-0.2-0.1c-0.1,0-0.1,0-0.2,0s-0.1,0-0.2,0s0,0.1-0.1,0.1c0,0-0.1,0-0.2,0
		c0,0,0-0.1-0.1-0.1v-0.1c0,0,0-0.1-0.1-0.1h-0.1c-0.1,0-0.1,0-0.2,0s-0.1-0.1-0.2-0.1s-0.1-0.1-0.2-0.1s-0.1,0-0.2,0
		s-0.3-0.1-0.4-0.1s-0.2,0-0.3,0s-0.1,0-0.2,0.1c-0.1,0,0,0.1-0.1,0.2c0,0.1-0.1,0.1-0.1,0.1c0,0.1,0,0.1,0.1,0.2c0,0.1,0,0.1,0,0.2
		s0.1,0.1,0.1,0.2c0,0,0,0.1,0.1,0.2c0.1,0,0.1,0,0.2,0h0.1h0.1c0.1,0,0.1,0.1,0.2,0.1c0,0.1,0.1,0.1,0.1,0.2
		c0.1,0.1,0.2,0.2,0.2,0.3c0,0.1,0.1,0.2,0.1,0.2v0.1v0.1c0,0.1,0,0.2,0,0.2c0,0.1,0,0.1,0,0.2s0,0.1,0,0.2s0,0.2,0,0.2
		c0,0.1,0,0.1,0,0.2s0,0.1,0,0.2s0,0.1,0,0.2s0.1,0.1,0.1,0.2s0,0.1,0,0.2s0.1,0.1,0.1,0.1h0.1c0,0,0.1,0,0.1,0.1c0,0,0,0,0.1,0.1
		h0.1c0,0,0.1,0.1,0.1,0.2s0,0.1,0,0.2s0,0.2,0,0.2c0,0.1,0,0.1,0.1,0.2c0,0.1,0,0.1,0,0.2s0,0.1,0,0.2c-0.1,0.1-0.2,0.2-0.3,0.3
		c0,0,0,0-0.1,0.1v0.1c0,0.1-0.1,0.1-0.1,0.2s-0.1,0.1-0.1,0.2s-0.1,0.1-0.1,0.1c-0.1,0-0.1,0.1-0.2,0.1c0,0-0.1,0.1-0.2,0.1
		s-0.1-0.1-0.2-0.1c0,0-0.1,0-0.2,0s-0.1,0.1-0.2,0.1h-0.1c0,0,0,0.1-0.1,0.1c0,0.1-0.1,0.1-0.1,0.1c0,0.1-0.1,0.1-0.1,0.2
		s-0.1,0.1-0.2,0.1s-0.1,0-0.2,0s-0.1,0.1-0.1,0.1s0,0.1,0.1,0.1v0.1H20c0,0-0.1,0-0.1-0.1c0,0,0-0.1-0.1-0.1c0,0-0.1,0-0.1-0.1
		s-0.1-0.1-0.1-0.1s0-0.1-0.1-0.1s-0.1,0-0.1,0h-0.1h-0.1v-0.1l0,0l0,0c-0.1,0.1,0,0.3,0,0.4s0,0.1,0,0.2s0,0.1,0,0.2s0,0.1,0,0.2
		s0.1,0.1,0.2,0.1s0,0.1,0,0.2s0,0.1-0.1,0.2c0,0.1-0.1,0.1-0.1,0.1c0,0.1,0.1,0.1,0.1,0.2s0,0.1,0,0.2s0,0.1,0.1,0.2
		c0,0.1,0.1,0.1,0.1,0.2c0,0,0.1,0.1,0.2,0.1s0.1,0.2,0.2,0.3c0,0,0,0.1,0.1,0.1l0.1,0.1c0.1,0,0.1,0.1,0.2,0.1s0.1,0.1,0.2,0.1h0.1
		c0,0,0.1,0,0.1,0.1c0.1,0,0.1,0.1,0.1,0.1c0.1,0,0.1,0.1,0.2,0.1s0.3-0.1,0.4-0.1c0,0,0.1,0,0.1,0.1c0,0,0.1,0,0.1,0.1
		c0,0,0,0,0.1,0.1h0.1c0.1,0,0.1-0.1,0.2-0.1s0.1,0.1,0.1,0.1c0,0.1,0.1,0.1,0.2,0.1s0.1-0.1,0.2-0.1s0.1,0,0.2,0s0.2-0.1,0.2-0.1
		c0.1,0,0.1,0,0.2,0s0.1,0,0.2-0.1c0.1,0,0.1,0,0.2,0h0.1h0.1c0.1,0,0.1,0,0.2,0.1c0.1,0,0.1,0.1,0.1,0.1c0.1,0.1,0.3,0.2,0.4,0.3
		c0.1,0,0.1,0,0.2,0s0.1,0,0.2,0s0.1,0.1,0.2,0.1s0.1,0.1,0.1,0.1c0,0.1,0,0.1,0.1,0.2c0,0,0.2,0,0.2,0.1s0,0.1,0.1,0.2
		c0.1,0,0.1,0,0.2,0c0,0,0.1,0.1,0.2,0.1c0,0.1,0.1,0.1,0.1,0.2s0,0.2,0,0.2c0,0.1,0,0.1,0,0.2c0.1,0.1,0.3,0,0.4,0
		c0.1-0.1,0.2-0.2,0.4-0.2c0.1,0,0.1,0,0.2,0s0.1,0.1,0.2,0.1c0,0,0,0,0.1,0c0,0,0.1,0,0.1-0.1c0,0,0.1-0.1,0.2,0c0,0,0,0,0.1,0.1
		c0,0,0,0.1,0.1,0.1h0.1v0.1c0,0.1,0,0.2,0.1,0.2s0.1-0.1,0.1-0.2c0,0,0.1-0.1,0.2,0l0.1,0.1c0,0,0,0.1,0.1,0.1s0.1-0.1,0-0.1v-0.1
		l0.1-0.1c0.1-0.1,0.3-0.1,0.4,0c0.1,0,0.2,0,0.2,0.1c0.1,0,0.1,0,0.2,0s0.1,0.1,0.1,0.1c0,0.1,0.1,0.1,0.1,0.2
		c0.1,0.1,0.1,0.2,0.2,0.4c0,0.1,0,0.1,0.1,0.2c0,0.1,0,0.1,0,0.2s0,0.1,0,0.2c0,0,0,0,0,0.1v0.1c0,0.1,0,0.1-0.1,0.2
		c0,0.1-0.1,0.1,0,0.2c0,0.1,0.1,0.1,0.1,0.1c0.1,0,0.1,0.1,0.2,0.1c-0.1,0-0.1-0.1-0.1-0.1s0.1-0.2,0.1-0.1c0.1,0,0.1,0.1,0.1,0.2
		v0.1c0,0,0,0.1-0.1,0.1c0,0.1,0,0.1,0.1,0.2c0,0,0.1,0,0.2,0s0.1-0.1,0.2,0c0.1,0,0.1,0.1,0.2,0.1c0,0,0,0.1,0.1,0.1v0.1
		c0,0.1,0,0.1,0.1,0.2c0,0,0,0.1,0.1,0.1c0,0,0,0,0,0.1s0.1,0.1,0.1,0.2c0.1,0,0.1,0,0.2,0s0.1,0,0.2,0s0.1,0.1,0.1,0.2
		c0,0,0,0,0.1,0.1c0,0,0,0.1,0.1,0.1c0.1,0,0.1,0,0.2,0.1c0.1,0,0.1,0.1,0.2,0.1h0.1v-0.1c0-0.1,0-0.1,0-0.2c0,0,0-0.1,0.1-0.2
		s0.1-0.1,0.2-0.1c0.1,0,0.1-0.1,0.2-0.1C32.9,465.2,33,465.2,33.1,465.2z M23.2,452.7c-0.1,0-0.1-0.1-0.2-0.1
		c0-0.1-0.1-0.1-0.2-0.1l-0.1,0.1c0,0,0-0.1-0.1,0c0,0-0.1,0-0.1,0.1c-0.1,0-0.1-0.1-0.1-0.1c0-0.1,0-0.2,0-0.2s0-0.1,0.1-0.1v0.1
		h0.1h0.1h0.1h0.1H23c0,0,0.1,0,0.1,0.1h0.1h0.1l0,0C23.3,452.7,23.2,452.7,23.2,452.7z M23.8,455.1c-0.1,0-0.1-0.1-0.1-0.1h-0.1
		c0,0,0,0,0,0.1s0,0.1-0.1,0.2c0,0-0.2,0-0.2-0.1s-0.1-0.1-0.1-0.2s0-0.1,0-0.2s0-0.1,0-0.2s0.1-0.1,0.1,0c0,0,0,0,0,0.1
		c0,0,0,0,0.1,0h0.1c0,0,0,0,0.1,0l-0.1,0.1c0,0,0.1,0,0.2,0.1v0.1C23.7,455,23.8,455,23.8,455.1C23.8,455,23.9,455.1,23.8,455.1z
		 M28.6,452.5c0-0.1,0.1-0.2,0.2-0.2s0,0.1,0,0.1s0,0,0,0.1v0.1c0,0,0,0,0,0.1v0.1c0,0.1-0.1,0.1-0.1,0.1l-0.1-0.1
		C28.6,452.5,28.6,452.5,28.6,452.5z M28.8,453.7c0,0.1-0.1,0.1-0.2,0.1s-0.1-0.1-0.1-0.1c0-0.1,0.1-0.1,0.2-0.1c0-0.1,0-0.1,0-0.2
		s0.1-0.1,0.1-0.2c0,0,0-0.1,0.1-0.1H29c0.1,0,0.1,0.1,0.1,0.1H29c0,0-0.1,0-0.1,0.1c0,0,0,0-0.1,0.1l-0.1,0.1
		C28.8,453.5,28.9,453.6,28.8,453.7z M29.1,453.5v0.1c0,0,0,0.1,0.1,0.1c0,0,0,0.1-0.1,0.1c0,0-0.1,0-0.1,0.1c0,0,0,0-0.1,0v-0.1
		c0-0.1,0.1-0.1,0.1-0.2S29,453.5,29.1,453.5c-0.1-0.1,0-0.1,0-0.1s0,0,0.1,0h0.1c0,0,0-0.1,0.1-0.1h0.1v0.1c0,0.1-0.1,0.1-0.1,0.1
		C29.3,453.4,29.2,453.4,29.1,453.5C29.2,453.4,29.2,453.4,29.1,453.5z M31.5,464.8L31.5,464.8c-0.1,0-0.1,0-0.2,0.1
		c0,0,0,0-0.1,0.1c-0.1,0,0,0.1,0,0.2c0.1,0.1,0,0.1,0,0.1h-0.1l-0.1-0.1v-0.1V465c0,0,0.1,0,0.1-0.1v-0.1c0,0,0,0,0.1-0.1l0.1-0.1
		h0.1C31.5,464.6,31.5,464.7,31.5,464.8C31.6,464.7,31.6,464.8,31.5,464.8z M32,462.4c0,0,0,0.1-0.1,0.1s-0.1,0-0.2,0s-0.1,0-0.2,0
		s-0.1-0.1,0-0.2c0,0,0-0.1,0.1-0.1c0,0,0,0,0.1,0s0.1,0.1,0.2,0c0.1,0,0.1-0.1,0.1-0.1C32.1,462.2,32,462.4,32,462.4z M32.5,465.4
		C32.5,465.4,32.4,465.4,32.5,465.4c-0.1-0.1-0.1-0.1-0.1-0.1c0-0.1-0.1-0.1-0.1-0.1l-0.1-0.1V465c0,0,0,0,0.1,0l0.1,0.1l0.1,0.1
		C32.5,465.2,32.6,465.2,32.5,465.4C32.6,465.4,32.5,465.4,32.5,465.4z"/>
</g>
</svg>
