<?xml version="1.0" encoding="utf-8"?>
<!-- Generator: Adobe Illustrator 27.8.1, SVG Export Plug-In . SVG Version: 6.00 Build 0)  -->
<svg version="1.1"
	 id="svg2" xmlns:cc="http://web.resource.org/cc/" xmlns:svg="http://www.w3.org/2000/svg" xmlns:rdf="http://www.w3.org/1999/02/22-rdf-syntax-ns#" xmlns:dc="http://purl.org/dc/elements/1.1/"
	 xmlns="http://www.w3.org/2000/svg" xmlns:xlink="http://www.w3.org/1999/xlink" x="0px" y="0px" viewBox="0 0 1092 630.1"
	 style="enable-background:new 0 0 1092 630.1;" xml:space="preserve">
<style type="text/css">
	.st0{fill:none;}
	.st1{fill:#808080;stroke:#808080;}
</style>
<path class="st0" d="M148,319.9l-1.3-1.3C146.7,318.6,147.5,319.9,148,319.9z"/>
<polygon class="st0" points="163,327.1 164.7,327.9 161.7,326.4 "/>
<polygon class="st0" points="142.6,317.6 140.8,319.4 138,319.4 136.6,320.8 134.6,320.6 136.7,320.9 138.1,319.5 140.9,319.5 
	142.7,317.7 144.9,317.7 146.7,318.6 144.8,317.6 "/>
<polygon class="st0" points="163.4,323.2 163.2,323 162.8,325.2 161.7,326.4 163,325.7 "/>
<path class="st1" d="M107.3,328.3c0.5-0.9,1.1-1.8,1.6-2.7c0.8-0.1,1.6-0.1,2.4-0.2c0.3-0.6,0.7-1.3,1-1.9c0.3-0.7,0.5-1.4,0.8-2.2
	c0.1-1,0.2-2,0.3-3c0.5-0.5,0.9-0.9,1.4-1.4c0.2-0.8,0.4-1.5,0.6-2.3c0.5-0.5,1.1-0.9,1.6-1.4h0.1l0.1,0.1c0.2,0.4,0.4,0.8,0.5,1.2
	c0.5,0.6,0.9,1.3,1.4,1.9c1,0,2.1,0,3.1,0c0.5,0.3,0.9,0.7,1.4,1c0.7,0.1,1.4,0.2,2.1,0.2c0.3,0,0.7,0.1,1,0.1
	c0.5,0.2,1.1,0.5,1.6,0.7c1,0.2,2.1,0.4,3.1,0.5c0.2,0,0.5-0.1,0.7-0.1c0.5,0.5,1,1,1.5,1.4c0.2,0,0.5,0.1,0.7,0.1
	c0.6,0,1.2,0,1.9,0.1c0.6-0.5,1.1-1,1.7-1.5c0.9,0,1.7,0,2.6,0c0.6-0.4,1.2-0.9,1.8-1.3c0.6,0,1.2,0.1,1.8,0.1
	c0.5,0.2,1,0.4,1.4,0.6c0.4,0.4,0.8,0.7,1.2,1.1c1.1,0.6,1.6,1.5,1.4,2c0,0.1-0.2,0.3-0.7,0.5c0.8,0.1,1.6,0.2,2.4,0.2
	c0.6,0.7,1.3,1.4,1.9,2.1c0.9-0.1,1.8-0.3,2.7-0.4c0.2-0.4,0.3-0.7,0.5-1.1c0.3,0.4,0.5,0.8,0.8,1.1c0.3,0.2,0.7,0.4,1.3,0.7
	c0.4,0.2,0.7,0.3,1.3,0.5c1.4,0.5,1.7,0.5,2.2,0.9c0.4,0.3,0.6,0.6,0.7,0.8c0.7-0.5,1.4-1.1,2.1-1.6c0.1-1,0.2-2,0.3-2.9
	c-0.8-1.2-1.5-2.3-2.3-3.5c-0.7-0.1-1.3-0.1-2-0.2c-0.1-0.1-0.3-0.3-0.4-0.4c0.2,0,0.5-0.1,0.7-0.1c0-0.6-0.1-1.3-0.1-1.9
	c0.4-0.5,0.7-1.1,1.1-1.6c0.5-0.4,1-0.8,1.5-1.2c1,0.1,2.1,0.2,3.1,0.3c0.5-0.5,0.9-1,1.4-1.4c0.7,0.1,1.5,0.2,2.2,0.3
	c0.9-1,1.7-2.1,2.6-3.1c0.9-1.9,1.7-3.8,2.6-5.6c-0.5-2.6-1-5.3-1.5-7.9c-0.8-1.6-1.5-3.3-2.3-4.9c-1.8-0.3-3.6-0.6-5.5-0.9
	l-0.1-0.2l-0.1-0.1l-6.3-18.2l-1.8-6.2v-4.9h-15.3l2.2,2.5l3.6,1.5l-0.8,0.8l-2.7,0.7v5.7l3,2.6l0.4,4.9l1.1-1.3l0.4,0.6v1.2l-0.7,1
	v1.3l-1.5,0.7h-0.7l-0.6,0.5l-1.5-1.1l-1.2,0.2l0.4-1.6l0.4-1.4v-0.9l0.5-0.6l-1.3-3l-3.7-1.1l-2.3-2.5l-2.8-1.4l-1.5,1.5l-0.7,2.5
	l-4.5-1l-3.3,2l-3.9-0.1l-2.8,3.8l-3.5,1.3l-0.2,2.5l-1.8,2.2l-4.2,0.2l-1.6,2v3.5l-4,2.5l-2.7,0.6l0.8,3l-1.8,3.4l-3.2,3.1
	l-0.5,2.4l1.5,3.3l2.4,2.3l-0.9,2.7l-1,2.5l3.2,0.8l2.8,2.7c-0.1,2.3-0.2,4.6-0.3,6.9c1.3,0,2.6,0.1,4,0.1v-0.1
	C106.4,326.9,106.9,327.6,107.3,328.3z"/>
</svg>
