<?xml version="1.0" encoding="utf-8"?>
<!-- Generator: Adobe Illustrator 27.8.1, SVG Export Plug-In . SVG Version: 6.00 Build 0)  -->
<svg version="1.1"
	 id="svg2" xmlns:cc="http://web.resource.org/cc/" xmlns:svg="http://www.w3.org/2000/svg" xmlns:rdf="http://www.w3.org/1999/02/22-rdf-syntax-ns#" xmlns:dc="http://purl.org/dc/elements/1.1/"
	 xmlns="http://www.w3.org/2000/svg" xmlns:xlink="http://www.w3.org/1999/xlink" x="0px" y="0px" viewBox="0 0 1092 630.1"
	 style="enable-background:new 0 0 1092 630.1;" xml:space="preserve">
<style type="text/css">
	.st0{fill:none;}
	.st1{fill:#808080;stroke:#808080;}
</style>
<path class="st0" d="M148,319.9l-1.3-1.3C146.7,318.6,147.5,319.9,148,319.9z"/>
<polygon class="st0" points="163,327.1 164.7,327.9 161.7,326.4 "/>
<polygon class="st0" points="142.6,317.6 140.8,319.4 138,319.4 136.6,320.8 134.6,320.6 136.7,320.9 138.1,319.5 140.9,319.5 
	142.7,317.7 144.9,317.7 146.7,318.6 144.8,317.6 "/>
<polygon class="st0" points="163.4,323.2 163.2,323 162.8,325.2 161.7,326.4 163,325.7 "/>
<path class="st1" d="M93.3,383.6l1.8,0.7l1.2,1l0.1,0.1v2.7l1.8,0.5v0.1h0.1l0.5,1.5l1.7,0.8v0.1h0.1l0.5,3.7l1.8,3.1l0.6,3.7
	l1.7,0.3l0.1,0.1l1.2,1.2l2-1.6h2.2l1.5-1.5l-0.9-1.8l3.3-1.9l0.9-2.3l2.7-0.9l0.1,0.1l1.2,1.2l1.6,2.3h1.9c0,0,0.9-1.4,0.9-1.9
	s2.5,0,2.5,0l0.8-1.5l2.4-0.2l0.1,0.1l0.8,1.3l-0.8,1.7l1,1.7l2.1-1.4l0.1,0.1l2.2,2.2l0.7,4.3l2.3-0.2l3,0.9v0.1h0.1l1.1,2.6
	l2.9,0.4l1.9-2.1l0.1,0.1l1.8,1.8l1.5-0.1l0.1,0.1l1.8,1.9l1.6,0.8l1.9-1.3l1.5-1.5v-1.3h1.9l1.6-1.6l1-1l2-0.5l1.6-1.6l-0.6-1.5
	v-1.6l-1.1-1.1l-1.6-1.1v-3l1.9-1.9l2.8-0.6l2-2h0.2l0.1-0.1l2.1-0.3l1.1-0.2c1.3-0.2,2.6-0.4,3.9-0.7c1.5-0.2,3.1-0.4,4.6-0.6
	c0.8-0.8,1.5-1.5,2.3-2.3c0.2-1,0.3-2.1,0.5-3.1c0.7-0.7,1.4-1.4,2.1-2.1c0.1,0,0.1,0,0.2,0c0.7,0.8,1.4,1.5,2.1,2.3
	c1.2,0,2.4,0,3.6,0c0.3-1.2,0.6-2.3,1-3.5c0.1,0,0.2,0,0.3,0c1,0.1,1.9,0.2,2.9,0.3c1.4,0.3,2.8,0.6,4.1,0.9c1.7-0.5,3.4-1,5.1-1.5
	c0.6-0.5,1.2-1.1,1.7-1.6c0.1-0.1,0.3-0.1,0.4-0.2c0.9,0.2,1.8,0.4,2.7,0.5c0.3,0.7,0.5,1.4,0.8,2.1c0.7,0.6,1.5,1.2,2.2,1.7
	c1.1,0.1,2.2,0.2,3.4,0.3c0.4,0.2,0.8,0.5,1.3,0.7c0.7-0.8,1.3-1.6,2-2.4c1.2-0.5,2.4-1,3.6-1.5c0.1,0,0.2,0,0.3,0
	c0.1,0,0.3,0,0.4,0.1c0.5,0.6,1,1.1,1.5,1.7c0.6-0.7,1.2-1.3,1.9-2c0.2,0,0.3,0,0.5,0c1.5,0,3,0,4.5,0c0.6-2.8,1.1-5.6,1.7-8.5
	c0.5-0.9,1.1-1.7,1.6-2.6c-1.5-1.2-3-2.3-4.4-3.5c-0.9,0.8-1.7,1.6-2.6,2.5c-1.1-0.2-2.1-0.4-3.2-0.6c-0.4,0.5-0.7,1.1-1.1,1.6
	c-0.2,0-0.4-0.1-0.5-0.1c-0.1,0-0.3,0-0.4,0c-0.6-0.9-1.1-1.8-1.7-2.7c-1.6-1.3-3.3-2.5-4.9-3.8c-0.8-0.9-1.6-1.8-2.4-2.8
	c-0.7-1.3-1.3-2.6-2-3.9c-1.8-0.1-3.6-0.1-5.4-0.2c-0.1,0-0.2-0.1-0.3-0.1c-0.2-0.1-0.3-0.2-0.5-0.3c-0.4-1.7-0.9-3.3-1.3-5
	c-1.4,0.3-2.8,0.5-4.2,0.8c-1.2-0.6-2.3-1.2-3.5-1.8c-1.3,0.5-2.6,1-3.9,1.5c-1,0.7-1.9,1.4-2.9,2.1c-0.1,0-0.3-0.1-0.4-0.1
	c-0.1,0-0.3,0-0.4-0.1c-0.7-1.2-1.4-2.4-2.1-3.6c-0.4-2.7-0.8-5.4-1.1-8.2c-1.1-0.7-2.2-1.5-3.3-2.2c-0.7,0.7-1.3,1.4-2,2.2
	c-0.2-0.1-0.4-0.1-0.7-0.2c-1-1-2-2-3-3c-0.5-0.6-1-1.2-1.6-1.8c-1.1,0.2-2.2,0.4-3.3,0.5c-0.6,0.2-1.3,0.4-1.9,0.6
	c-0.1-0.1-0.3-0.1-0.4-0.2c-0.1-0.1-0.2-0.2-0.3-0.2c0.1-1.2,0.3-2.4,0.4-3.6c0.3-0.9,0.6-1.7,0.8-2.6c-1-0.1-1.9-0.2-2.9-0.3
	c-0.6,0.2-1.3,0.4-1.9,0.6c-0.3-0.1-0.6-0.2-1-0.3c-0.5-0.2-1-0.4-1.6-0.6c-0.5-0.2-1-0.5-1.5-0.7c-1-0.3-1.9-0.6-2.9-0.9
	c-0.6-0.4-1.2-0.8-1.8-1.1c-0.5-0.6-0.9-1.1-1.4-1.7c-0.3,0.4-0.6,0.8-0.9,1.2c-0.6,0.2-1.2,0.4-1.8,0.5c-0.5-0.7-1.1-1.4-1.6-2.2
	c-1,0.2-2.1,0.5-3.1,0.7l-0.6-2.4c-0.5,0-1.3-1.3-1.3-1.3l-1.8-0.9h-2.2l-1.8,1.8h-2.8l-1.4,1.4l-2.1-0.3h-0.3l-1.9-1.9h-3.5l-2-1.2
	l-2.4,0.2l-0.1-0.1l-1.4-1.4h-2.9H120l-1.5-1.5l-1-2.1l-2.5,2.1l-0.3,2.1l-1.5,1.5l-0.3,3.5l-0.9,2l-1,1.8h-2.3l-1,2.8l-0.1-0.1v0.1
	l-2.2-2.8l-2.7,0.3l-3.2,2.7l-1.2,2.5l-3.3,1l-1.3,3.7l-1.8,4.3l-1,4l0.2,2.9l-1.7,1.2l2.5,2.5l-1,3.7l-0.8,3.3l-3.2,1l-3.3-1.2
	l-1-2.5l-1.8-2l-2.5,0.2l-0.8,3l-2.2,2.5l-3.2,3.2l-1.5,2.7l1.5,2.5l1.8,1.7l2.2-1.9l1.5,2.2l1.8,2l2.5,0.3l1.8,1.8l1.3,3.3
	l-0.3,2.7l-1.2,4.5l1.8,0.1l1.2-1.8l2.4-0.8l1.4,1.1h2.1l0.1,0.1L93.3,383.6z"/>
</svg>
