<?xml version="1.0" encoding="utf-8"?>
<!-- Generator: Adobe Illustrator 27.8.1, SVG Export Plug-In . SVG Version: 6.00 Build 0)  -->
<svg version="1.1"
	 id="svg2" xmlns:cc="http://web.resource.org/cc/" xmlns:svg="http://www.w3.org/2000/svg" xmlns:rdf="http://www.w3.org/1999/02/22-rdf-syntax-ns#" xmlns:dc="http://purl.org/dc/elements/1.1/"
	 xmlns="http://www.w3.org/2000/svg" xmlns:xlink="http://www.w3.org/1999/xlink" x="0px" y="0px" viewBox="0 0 1092 630.1"
	 style="enable-background:new 0 0 1092 630.1;" xml:space="preserve">
<style type="text/css">
	.st0{fill:none;}
	.st1{fill:#808080;stroke:#808080;stroke-miterlimit:10;}
</style>
<path class="st0" d="M148,319.9l-1.3-1.3C146.7,318.6,147.5,319.9,148,319.9z"/>
<polygon class="st0" points="163,327.1 164.7,327.9 161.7,326.4 "/>
<polygon class="st0" points="142.6,317.6 140.8,319.4 138,319.4 136.6,320.8 134.6,320.6 136.7,320.9 138.1,319.5 140.9,319.5 
	142.7,317.7 144.9,317.7 146.7,318.6 144.8,317.6 "/>
<polygon class="st0" points="163.4,323.2 163.2,323 162.8,325.2 161.7,326.4 163,325.7 "/>
<path class="st1" d="M268,377.7l-1.5,1.5h-0.2l-0.1,0.1l-2.5,0.3l-0.8-1.9l-1.3-1.3l-2.4,2.4l-0.2-0.1l-0.1,0.1l-1.9-1.9l-3.1-1.4
	l-2.7,0.6l-1.1,3.4l-1.9,2.3l-0.1-0.1l-0.2,0.2l-1.2-1.2l1.1-2.3l-0.8-2.7v-2.4l-1.7-1.8V369l2.2-2.2v-2.2h0.2v-0.1l3-0.7v-3.2
	l0.2-0.2l0.6-0.6l1.2-1.3l-0.3-2.5l-1.5-0.8l0.6-1.8l-1.4-1.6v-0.1l-0.6-0.6l-0.3-0.4l-0.9-1.1l-1-0.3l-1.7,1.4l-3.7,3.7l-2.3,2.3
	h-0.2l-3.1-1.3l-1.7,1.5l3.7,3.8l-2.3,1.2v3.1l-1.1,1.1l-0.2-0.1l-2,2.3l-0.6,7.9h-0.2h-4.4l-2,2.1l-0.2-0.2l-0.1,0.2l-1.7-1.6
	l-3.7,1.3l-2.6,2.6l-0.2-0.2l-0.1,0.2l-1.1-1.1h-3.1l-1.8-1.8l-1.2-2.8H207l-1.9,1.9l-5.1,1.3h-0.1h-0.1l-3.9-0.9h-3.2l-1.4,3.4
	h-0.1h-3.4l-2.3-2.3l-1.8,1.8l-0.8,3.5l-2.2,2.2l-4.3,0.5l-3.6,1.2l-1.3,0.2l-2.2,0.4l-1.9,2c-1.1,0.1-2.2,0.3-3.3,0.4
	c-0.8,0.6-1.6,1.2-2.4,1.8c0,1.1-0.1,2.1-0.1,3.2c0,0.3,0,0.6,0,0.9c0.5,0.3,0.9,0.6,1.4,0.8c0.2,0.2,0.4,0.4,0.7,0.6
	c0.1,0.4,0.1,0.7,0.2,1.1c0,0.3,0,0.7,0.1,1c-0.1,0.1-0.1,0.3-0.2,0.4c-0.3,0.4-0.6,0.8-1,1.2c-0.7,0.2-1.5,0.3-2.2,0.5
	c-0.7,0.8-1.5,1.5-2.2,2.3c-0.8,0.3-1.6,0.6-2.4,0.8c0.1,0.4,0.1,0.9,0.2,1.3c-0.6,0.4-1.1,0.8-1.7,1.2c-0.6,0.2-1.2,0.4-1.8,0.6
	c0,0.8,0,1.5,0,2.3c1.3,0,2.6,0.1,3.9,0.1l1.6,1.6l2.8,1.2h2.1c0.6,1,1.3,2,1.9,3c0,1.2-0.1,2.3-0.1,3.5c1.4,0.8,2.7,1.6,4.1,2.3
	l0.8-0.7h3.6l4.3,4.2l2.1,0.3l2.7-2l1.7,1.8l3.8-0.6l0.5-2.2l1.7-1.7l0.2,0.4l4.4,3l1.6-0.6l1.6-0.6h0.1l2.9,1.1l3.2-1.1v-4v-0.1
	l3.8-2.2l4.1-1.1l5.4-1.4l3.9-2.3l1.5,1.6h3.7l2,2l2.9-1.6v2.6l0.9,4.1l2.8,3.2v-0.1l1.5-3.8l4.8-4.8v-4.8l3-3.2l1.6,1.6h2.9
	l2.1-2.1l0.9-2.9l1.9-3.2l3.1-2.2l3.9,3.8l3.3-0.1h0.1l0.1,3.4h2.9l3.7-2.3v-2.8l0.9-2.7l-1.7-1.7v-2.7l3-3l2.6-1l2.8-2.3l0.4-2.9
	l-1.8-1.5l-2.3-2.3l-3-1.4l-1.6-1.6l0.1-0.1H268V377.7z"/>
</svg>
